<svg xmlns="http://www.w3.org/2000/svg" width="4000" height="3395" viewBox="0 0 4000 3395" version="1.1"><path d="M 1327.775 388.750 C 1324.777 392.462, 1321.693 396.512, 1320.921 397.750 C 1320.150 398.988, 1319.226 400, 1318.868 400 C 1317.769 400, 1315 392.135, 1315 389.015 C 1315 383.613, 1307.692 382.395, 1306.391 387.579 C 1306.053 388.925, 1306.081 392.057, 1306.454 394.541 L 1307.131 399.056 1162.815 398.383 C 1083.442 398.013, 993.862 398.054, 963.750 398.474 L 909 399.239 909 406.240 L 909 413.241 1004.750 412.555 C 1093.461 411.920, 1314.567 413.234, 1315.737 414.404 C 1316.019 414.686, 1315.532 416.713, 1314.653 418.908 C 1312.145 425.177, 1307.986 444.391, 1306.409 457 C 1304.274 474.056, 1302.850 510.060, 1303.144 539.500 L 1303.403 565.500 1300.576 570.965 C 1294.256 583.179, 1289.039 601.281, 1286.956 618.216 C 1285.144 632.955, 1286.180 663.745, 1288.952 677.500 C 1293.085 698.011, 1299.887 716.185, 1309.677 732.877 C 1314.005 740.255, 1317.928 745.112, 1326.490 753.696 L 1337.658 764.892 1332.186 771.696 C 1321.308 785.220, 1302.498 810.734, 1295.466 821.500 C 1284.096 838.910, 1277.694 850.573, 1265.053 876.912 C 1243.234 922.372, 1240.959 932.521, 1250.448 942.065 C 1253.548 945.182, 1253.738 945.695, 1252.501 947.610 C 1250.359 950.925, 1248.218 959.507, 1246.417 972 C 1243.453 992.556, 1246.214 1006.697, 1255.086 1016.404 C 1257.789 1019.361, 1260 1022.017, 1260 1022.306 C 1260 1023.276, 1222.532 1045.734, 1200.562 1057.932 L 1194.624 1061.229 1189.421 1055.365 C 1184.410 1049.717, 1184.036 1049.500, 1179.315 1049.500 C 1173.199 1049.500, 1169.936 1051.547, 1166.380 1057.615 C 1164.276 1061.205, 1163.667 1063.542, 1163.667 1068.026 L 1163.667 1073.808 1156.467 1075.945 C 1152.507 1077.121, 1147.679 1078.340, 1145.738 1078.655 C 1142.379 1079.200, 1142.175 1079.066, 1141.506 1075.864 C 1139.944 1068.382, 1131.471 1058.111, 1115.587 1044.445 C 1106.880 1036.953, 1106.572 1036.788, 1102.252 1037.275 C 1097.007 1037.866, 1091.678 1042.415, 1089.893 1047.824 C 1088.238 1052.839, 1089.384 1062.231, 1092.392 1068.307 C 1093.806 1071.163, 1097.799 1076.442, 1101.265 1080.038 C 1111.133 1090.276, 1120.927 1093.835, 1130.716 1090.740 C 1133.347 1089.908, 1137.975 1088.931, 1141 1088.569 C 1144.025 1088.206, 1150.914 1086.756, 1156.308 1085.346 C 1161.703 1083.937, 1166.203 1082.944, 1166.308 1083.142 C 1166.414 1083.339, 1167.361 1085.191, 1168.412 1087.259 C 1171.417 1093.165, 1180.557 1102.607, 1185.661 1105.078 C 1190.056 1107.206, 1191.384 1107.317, 1209.890 1107.107 C 1240.010 1106.767, 1254.034 1103.921, 1300 1088.821 C 1331.448 1078.490, 1350.939 1071.025, 1366 1063.545 C 1375.037 1059.057, 1376.988 1058.434, 1380 1059.073 C 1386.457 1060.443, 1411.622 1063, 1418.597 1062.994 C 1422.394 1062.991, 1427.235 1062.507, 1429.355 1061.919 C 1440.958 1058.697, 1450.856 1040.205, 1454.019 1015.842 C 1455.015 1008.175, 1455.678 1006.054, 1457.717 1004.013 C 1462.718 999.007, 1466.649 988.823, 1472.970 964.500 C 1482.117 929.298, 1484.975 902.501, 1484.969 852 C 1484.964 814.699, 1482.835 801.177, 1475.443 791.493 C 1471.849 786.786, 1471.719 785, 1474.969 785 C 1478.042 785, 1494.407 779.328, 1501.165 775.920 C 1515.597 768.644, 1529.624 756.507, 1538.016 744.035 C 1546.384 731.600, 1552.749 712.811, 1555.070 693.695 C 1556.743 679.917, 1555.720 622.077, 1553.563 608.500 C 1551.614 596.233, 1547.586 581.568, 1543.896 573.301 L 1541.129 567.102 1546.617 549.301 C 1566.319 485.388, 1569.948 468.980, 1570.732 440.273 L 1571.258 421.045 1574.686 419.023 C 1578.074 417.024, 1579.460 417, 1693.807 417.018 C 1757.438 417.028, 1845.196 416.506, 1888.825 415.858 L 1968.149 414.679 1972.050 418.589 L 1975.951 422.500 1974.532 428 C 1971.277 440.619, 1969.760 455.508, 1969.797 474.500 C 1969.857 505.500, 1973.919 554.173, 1978.570 579.637 L 1980.970 592.775 1978.998 598.505 C 1974.156 612.580, 1970.418 642.149, 1971.489 657.906 C 1972.243 668.994, 1973.852 683.767, 1974.561 686.114 C 1974.968 687.462, 1973.890 687.811, 1968.013 688.231 C 1961.377 688.706, 1959.314 689.562, 1931.738 703.293 C 1887.749 725.195, 1868.680 737.020, 1838.003 761.422 C 1787.477 801.611, 1781.704 810.291, 1793.813 827.863 L 1797.509 833.227 1784.910 845.863 C 1770.312 860.504, 1765.283 868.791, 1764.279 879.858 C 1763.973 883.236, 1763.480 886, 1763.184 886 C 1760.666 886, 1696.053 843.338, 1682.281 832.581 C 1671.168 823.902, 1657.928 811.395, 1651.296 803.311 L 1647.859 799.122 1652.099 795.311 C 1655.037 792.670, 1657.632 788.736, 1660.547 782.500 C 1665.667 771.546, 1671.466 751.010, 1670.519 747.180 C 1669.550 743.256, 1665.156 739.119, 1660.677 737.913 C 1645.511 733.829, 1626.907 754.728, 1626.774 776 C 1626.750 779.811, 1627.397 784.074, 1628.339 786.306 C 1633.671 798.942, 1658.621 825.906, 1679.500 841.597 C 1702.923 859.200, 1736.574 881.936, 1753.881 891.851 C 1765.883 898.727, 1765.996 898.826, 1769.604 905.639 C 1775.421 916.620, 1782.872 926.842, 1791.984 936.344 C 1805.016 949.932, 1810.870 952.471, 1822.792 949.707 C 1826.253 948.905, 1828.950 948.530, 1828.786 948.874 C 1828.622 949.218, 1827.203 951.947, 1825.632 954.937 C 1823.869 958.295, 1822.578 962.568, 1822.257 966.108 C 1821.805 971.085, 1822.156 972.737, 1824.921 978.645 C 1826.672 982.387, 1829.126 986.810, 1830.373 988.474 C 1833.447 992.574, 1834.501 994.421, 1833.405 993.784 C 1832.907 993.495, 1828.675 992.034, 1824 990.537 C 1813.691 987.237, 1782.150 975.463, 1761 967.018 C 1732.396 955.598, 1709.941 942.828, 1693.496 928.630 L 1687.856 923.760 1690.375 921.130 C 1695.788 915.479, 1698.820 903.022, 1699.704 882.801 L 1700.303 869.103 1696.751 865.551 C 1693.514 862.314, 1692.697 862, 1687.501 862 C 1677.478 862, 1671.374 866.703, 1665.723 878.779 C 1662.171 886.368, 1660.933 899.385, 1662.959 907.831 C 1664.390 913.794, 1670.619 921.525, 1675.705 923.650 C 1677.517 924.407, 1679 925.596, 1679 926.292 C 1679 929.490, 1695.445 943.256, 1710 952.244 C 1734.527 967.388, 1810.699 998.595, 1837.500 1004.479 C 1845.287 1006.188, 1845.739 1006.454, 1854.500 1014.457 C 1867.865 1026.667, 1872.211 1029.680, 1878.485 1031.084 C 1883.250 1032.151, 1884.886 1032.082, 1890.260 1030.589 C 1913.427 1024.155, 1944.953 990.838, 1944.990 972.750 C 1944.998 968.900, 1945.332 967.998, 1946.750 967.990 C 1951.149 967.966, 1959.634 962.638, 1966.302 955.714 C 1992.245 928.775, 2012.314 900.314, 2029.326 866.337 C 2042.670 839.686, 2057.089 807.697, 2059.120 800.238 C 2060.278 795.982, 2061.309 792.404, 2061.410 792.287 C 2061.511 792.169, 2063.793 792.735, 2066.482 793.545 C 2090.351 800.728, 2135.250 801.685, 2162.096 795.583 C 2204.194 786.014, 2231.457 758.122, 2239.884 716 C 2242.979 700.532, 2243.982 685.708, 2243.991 655.284 C 2244 629.571, 2242.794 613.227, 2240.172 603.522 C 2239.445 600.828, 2240.105 599.573, 2247.074 590.403 C 2251.312 584.826, 2257.353 575.891, 2260.498 570.548 C 2272.052 550.914, 2297.696 495.626, 2306.458 471.454 C 2311.020 458.872, 2316.208 437.869, 2317.466 426.892 C 2318.089 421.452, 2318.222 421.250, 2321.893 420.150 C 2327.287 418.534, 2333.535 413.703, 2336.183 409.103 L 2338.457 405.152 2347.478 404.592 C 2365.898 403.447, 2462.367 401.986, 2519.098 401.993 L 2577.696 402 2579.571 406.158 C 2580.602 408.445, 2582.693 412.038, 2584.218 414.142 L 2586.989 417.968 2584.393 423.734 C 2575.202 444.148, 2570.942 463.673, 2566.016 507.966 C 2561.925 544.750, 2561.022 556.363, 2561.010 572.338 C 2561 585.894, 2560.930 586.334, 2557.585 593.944 C 2553.545 603.131, 2550 614.222, 2550 617.671 C 2550 619.708, 2548.935 618.787, 2543.806 612.316 C 2530.827 595.939, 2515.415 583.048, 2499.260 575.055 C 2489.225 570.090, 2487.784 569.706, 2485.479 571.392 C 2483.725 572.674, 2483.664 573.246, 2484.755 578.146 C 2491.071 606.513, 2490.114 612.878, 2478.110 622.333 C 2476.267 623.785, 2475.908 624.789, 2476.383 627.167 C 2477.375 632.124, 2480.798 635.858, 2489.497 641.470 C 2494.040 644.401, 2498.007 647.202, 2498.312 647.695 C 2498.616 648.188, 2495.256 652.846, 2490.845 658.046 C 2486.434 663.246, 2482.179 668.449, 2481.390 669.609 C 2478.476 673.891, 2482.095 676.908, 2492.791 679.118 L 2499 680.400 2499 691.078 C 2499 699.461, 2499.330 702.029, 2500.536 703.030 C 2501.381 703.731, 2505.373 704.517, 2509.407 704.776 C 2519.304 705.411, 2525.387 703.327, 2532.434 696.887 C 2540.166 689.819, 2544.902 682.092, 2549.218 669.500 L 2552.988 658.500 2553.002 665 C 2553.011 668.575, 2553.663 676.978, 2554.453 683.673 C 2558.400 717.145, 2568.556 742.266, 2586.205 762.216 L 2592.146 768.933 2588.332 772.216 C 2566.811 790.742, 2533.657 822.931, 2521.088 837.500 C 2512.023 848.008, 2492.168 873.593, 2480.396 889.936 C 2470.909 903.107, 2463.497 916.670, 2462.534 922.623 C 2461.335 930.036, 2465.486 936.772, 2475.500 943.661 L 2480.500 947.101 2450.500 946.428 L 2420.500 945.755 2417 943.206 C 2415.075 941.804, 2413.315 940.512, 2413.089 940.334 C 2412.864 940.157, 2413.368 939.222, 2414.211 938.256 C 2419.225 932.509, 2420.921 923.611, 2420.965 902.827 L 2421 886.154 2417.961 883.115 C 2411.018 876.172, 2399.199 878.534, 2392.005 888.302 C 2386.979 895.126, 2384.695 904.349, 2385.195 915.805 C 2385.798 929.600, 2388.732 934.416, 2401.908 943.240 C 2406.744 946.479, 2407.109 948, 2403.051 948 C 2397.851 948, 2379.161 952.001, 2370.700 954.926 C 2366.190 956.485, 2361.002 958.035, 2359.170 958.371 C 2349.838 960.083, 2341.739 968.629, 2338.011 980.701 C 2335.815 987.811, 2335.353 999.132, 2337.016 1005.118 C 2340.237 1016.712, 2352.137 1023.263, 2360.604 1018.100 C 2364.082 1015.979, 2368.781 1005.489, 2373.420 989.487 C 2376.110 980.208, 2376.876 968.506, 2375.020 965.038 C 2374.144 963.401, 2374.855 962.992, 2381.770 961.159 C 2390.872 958.745, 2399.245 957.212, 2409.757 956.033 L 2417.383 955.178 2425.257 959.646 C 2439.116 967.510, 2458.882 975.603, 2489.510 985.953 C 2533.818 1000.927, 2558.984 1007.282, 2579.420 1008.657 L 2588.500 1009.268 2607.204 1021.684 C 2637.405 1041.732, 2642.698 1043.745, 2652.606 1038.949 C 2658.558 1036.068, 2662.401 1030.929, 2674.733 1009.366 C 2697.267 969.963, 2708.396 937.915, 2723.128 870 C 2730.737 834.926, 2731.099 828.970, 2726.255 818.686 C 2724.490 814.939, 2722.149 810.613, 2721.052 809.073 C 2718.685 805.749, 2719.183 805, 2723.760 805 C 2729.491 805, 2746.887 801.069, 2755 797.940 C 2768.452 792.752, 2779.235 785.544, 2789.358 774.972 C 2809.851 753.572, 2817.445 731.116, 2822.150 678.002 L 2823.346 664.504 2825.171 672.988 C 2828.875 690.205, 2832.673 698.659, 2840.350 706.776 C 2847.986 714.850, 2853.550 717.379, 2863.830 717.446 C 2874.114 717.513, 2875 716.679, 2875 706.934 C 2875 703.258, 2875.270 698.898, 2875.601 697.246 C 2876.173 694.383, 2876.543 694.187, 2883.447 693.073 C 2891.569 691.763, 2895 689.894, 2895 686.780 C 2895 685.622, 2891.185 679.596, 2886.523 673.389 L 2878.046 662.103 2880.773 660.180 C 2882.273 659.122, 2885.846 657.075, 2888.713 655.630 C 2895.836 652.041, 2900.647 647.599, 2902.066 643.301 C 2903.228 639.779, 2903.164 639.618, 2899.071 635.839 C 2890.830 628.230, 2889.992 620.137, 2895.473 601.092 C 2897.384 594.455, 2898.684 588.340, 2898.363 587.504 C 2897.348 584.858, 2893.579 584.799, 2886.870 587.325 C 2867.712 594.536, 2846.851 609.667, 2832.716 626.605 C 2825.615 635.114, 2825.639 635.128, 2824.651 621.880 C 2823.953 612.513, 2820.985 596.929, 2818.658 590.403 C 2817.854 588.149, 2816.682 580.499, 2816.054 573.403 C 2814.094 551.284, 2804.423 491.436, 2799.930 473.631 C 2795.275 455.181, 2789.992 440.709, 2782.800 426.706 C 2778.169 417.690, 2777.895 416.774, 2779.347 415.170 C 2780.214 414.211, 2781.894 411.234, 2783.080 408.553 L 2785.236 403.678 2826.368 404.334 C 2848.991 404.694, 2917.787 405.291, 2979.250 405.660 L 3091 406.330 3091 399.328 L 3091 392.326 2937.760 391.623 C 2842.170 391.184, 2784.159 390.559, 2783.560 389.960 C 2782.382 388.782, 2778.741 388.703, 2777.450 389.827 C 2776.928 390.282, 2739.825 390.322, 2695 389.917 C 2524.667 388.376, 2377.912 389.037, 2329.250 391.565 C 2317.332 392.184, 2317 392.145, 2317 390.136 C 2317 386.955, 2313.423 385.493, 2310.433 387.452 C 2309.095 388.329, 2308 389.672, 2308 390.438 C 2308 392.119, 2301.668 392.703, 2274.500 393.527 C 2264.050 393.844, 2239.075 394.754, 2219 395.548 C 2164.912 397.689, 2069.775 400.804, 2034.908 401.576 C 2007.648 402.179, 2004.046 402.077, 2001.842 400.632 C 1999.658 399.201, 1999.141 399.182, 1997.434 400.474 C 1996.370 401.278, 1994.886 401.951, 1994.135 401.968 C 1993.052 401.993, 1993.104 401.491, 1994.385 399.535 C 1996.652 396.076, 1996.395 393.305, 1993.641 391.500 C 1990.357 389.348, 1989.040 390.170, 1984.793 397.021 C 1981.145 402.905, 1981.014 403, 1976.543 403 C 1972.618 403, 1972 402.719, 1972 400.934 C 1972 395.065, 1966.459 392.844, 1963.413 397.492 C 1962.515 398.863, 1962.013 400.590, 1962.297 401.331 C 1962.722 402.440, 1955.301 402.793, 1920.157 403.337 C 1865.250 404.187, 1719.862 404.186, 1645.750 403.335 L 1588 402.672 1588 400.371 C 1588 397.715, 1584.797 395.612, 1582.070 396.478 C 1581.050 396.802, 1579.662 398.402, 1578.986 400.033 C 1577.932 402.577, 1577.222 403, 1574.002 403 C 1570.470 403, 1570.127 402.717, 1568.238 398.250 C 1567.133 395.637, 1565.922 392.487, 1565.547 391.249 C 1564.190 386.773, 1558.282 386.218, 1556.671 390.415 C 1556.055 392.021, 1557.121 396.489, 1558.925 399.861 C 1560.853 403.462, 1558.337 402.236, 1556.133 398.500 C 1552.975 393.148, 1547 394.036, 1547 399.858 L 1547 402.317 1483.250 401.651 C 1448.188 401.285, 1402.813 400.694, 1382.418 400.338 L 1345.336 399.691 1345.786 397.340 C 1346.300 394.650, 1344.504 392, 1342.165 392 C 1341.291 392, 1338.656 393.884, 1336.309 396.188 C 1330.700 401.693, 1329.869 400.586, 1334.974 394.409 C 1339.465 388.974, 1340.244 384.736, 1337.066 383.035 C 1333.962 381.374, 1333.502 381.658, 1327.775 388.750 M 2617.655 403.543 C 2618.433 405.570, 2609.545 413.757, 2601.387 418.528 C 2595.843 421.770, 2594.938 422.781, 2592.177 428.812 C 2584.259 446.108, 2578.916 468.875, 2576.037 497.588 C 2573.349 524.385, 2571 554.760, 2571 562.704 L 2571 569.198 2575.636 563.031 C 2586.599 548.446, 2596.523 539.777, 2610.031 532.985 C 2629.433 523.229, 2651.237 519.950, 2683.500 521.938 C 2746.353 525.810, 2777.874 536.226, 2801.309 560.868 L 2807.119 566.976 2806.460 562.238 C 2801.746 528.335, 2791.500 476.851, 2786.014 459.500 C 2783.753 452.350, 2779.158 440.800, 2775.804 433.834 C 2770.233 422.264, 2769.437 421.116, 2766.603 420.572 C 2758.468 419.010, 2744 409.413, 2744 405.579 L 2744 403.326 2699.750 402.664 C 2628.210 401.594, 2616.953 401.715, 2617.655 403.543 M 2226.500 408.060 C 2196.250 409.040, 2143.375 410.543, 2109 411.399 C 2074.625 412.254, 2035.393 413.246, 2021.817 413.602 L 1997.134 414.250 1994.317 417.195 C 1992.768 418.815, 1990.046 421.040, 1988.270 422.139 C 1986.020 423.532, 1984.712 425.357, 1983.958 428.157 C 1979.486 444.765, 1977.428 472.073, 1978.965 494.416 C 1980.106 511.013, 1985.472 564.036, 1986.816 572 L 1987.575 576.500 1991.881 569.285 C 1994.249 565.316, 1997.968 560.046, 2000.145 557.573 L 2004.103 553.076 1998.197 544.288 C 1992.210 535.381, 1988 527.875, 1988 526.111 C 1988 524.364, 1991.098 522, 1993.387 522 C 1994.999 522, 1996.283 523.198, 1997.941 526.250 C 2000.616 531.174, 2010.099 546, 2010.573 546 C 2010.750 546, 2013.870 543.748, 2017.507 540.995 C 2021.144 538.242, 2025.556 535.259, 2027.310 534.367 C 2029.065 533.475, 2030.638 532.627, 2030.807 532.482 C 2030.977 532.337, 2029.576 529.807, 2027.694 526.859 C 2025.813 523.912, 2023.060 519.099, 2021.577 516.166 C 2019.047 511.161, 2018.978 510.682, 2020.463 508.416 C 2022.212 505.747, 2025.143 505.262, 2026.880 507.355 C 2027.498 508.100, 2029.059 510.688, 2030.347 513.105 C 2031.636 515.522, 2034.302 520.014, 2036.272 523.087 L 2039.853 528.673 2046.676 526.894 C 2050.429 525.916, 2053.582 525.089, 2053.682 525.058 C 2053.782 525.026, 2051.394 520.228, 2048.376 514.394 C 2041.687 501.466, 2041.364 497.500, 2047 497.500 C 2049.799 497.500, 2050.700 498, 2051.500 499.998 C 2052.050 501.372, 2054.903 507.373, 2057.840 513.334 C 2062.552 522.895, 2063.435 524.108, 2065.340 523.630 C 2066.528 523.332, 2071.213 522.778, 2075.750 522.400 C 2080.287 522.022, 2083.992 521.665, 2083.983 521.606 C 2083.973 521.548, 2082.631 517, 2081 511.500 C 2077.216 498.739, 2077.063 493.384, 2080.436 491.847 C 2083.573 490.418, 2085.828 491.315, 2086.370 494.207 C 2086.606 495.468, 2088.089 501.900, 2089.665 508.500 L 2092.532 520.500 2101.003 520.179 C 2105.662 520.003, 2109.664 519.669, 2109.896 519.437 C 2110.129 519.205, 2109.758 513.142, 2109.072 505.965 C 2108.097 495.754, 2108.089 492.598, 2109.035 491.457 C 2110.728 489.418, 2114.737 489.640, 2115.913 491.838 C 2117.082 494.022, 2119 508.498, 2119 515.138 L 2119 519.829 2125.750 520.196 C 2129.463 520.398, 2132.656 520.468, 2132.846 520.352 C 2133.036 520.236, 2134.102 513.472, 2135.214 505.321 C 2136.326 497.169, 2137.566 489.825, 2137.970 489 C 2138.921 487.058, 2142.704 486.509, 2144.555 488.046 C 2146.490 489.651, 2146.376 494.192, 2144.043 508.493 C 2142.967 515.089, 2142.404 520.741, 2142.793 521.053 C 2143.632 521.726, 2165.066 525.290, 2165.460 524.822 C 2166.361 523.750, 2174 505.770, 2174 504.721 C 2174 502.534, 2177.028 499, 2178.902 499 C 2179.885 499, 2181.516 499.913, 2182.527 501.029 C 2184.249 502.933, 2184.266 503.351, 2182.799 507.779 C 2181.938 510.376, 2179.646 515.926, 2177.705 520.113 L 2174.175 527.727 2184.160 531.970 L 2194.145 536.213 2196.687 533.856 C 2198.086 532.560, 2202.141 527.788, 2205.698 523.250 C 2209.255 518.712, 2212.804 515, 2213.583 515 C 2215.122 515, 2219 518.472, 2219 519.850 C 2219 521.220, 2213.105 529.040, 2207.380 535.265 L 2202.078 541.030 2210.665 549.265 C 2215.388 553.794, 2221.052 560.147, 2223.252 563.381 C 2226.732 568.497, 2233.274 581.444, 2235.439 587.500 C 2236.111 589.379, 2236.303 589.318, 2238.616 586.500 C 2245.637 577.946, 2252.887 564.973, 2270.471 529.500 C 2295.238 479.535, 2301.851 462.525, 2306.432 437 C 2308.807 423.765, 2308.709 421.056, 2305.695 416.655 C 2304.246 414.541, 2302.507 411.278, 2301.830 409.405 L 2300.598 406 2291.049 406.138 C 2285.797 406.214, 2256.750 407.079, 2226.500 408.060 M 1326.233 415.250 C 1324.674 417.176, 1319.078 435.424, 1317.444 443.910 C 1313.783 462.918, 1313 475.089, 1313 512.943 L 1313 550.446 1319.750 543.889 C 1328.649 535.245, 1333.069 531.968, 1341.500 527.768 C 1354.852 521.116, 1363.332 519.063, 1393 515.303 C 1412.434 512.841, 1456.149 512.828, 1468 515.282 C 1485.392 518.884, 1498.330 523.730, 1509.463 530.812 C 1513.337 533.276, 1513.403 533.404, 1511.095 533.963 C 1509.179 534.427, 1507.217 536.434, 1506.411 538.755 C 1506.363 538.896, 1504.454 537.996, 1502.170 536.755 C 1499.151 535.116, 1498.014 533.867, 1498.008 532.184 C 1497.988 526.438, 1492.681 523.762, 1489.711 528.002 C 1488.491 529.744, 1487.899 529.861, 1485.155 528.904 C 1482.501 527.979, 1482 527.296, 1482 524.602 C 1482 520.791, 1480.469 519, 1477.213 519 C 1475.470 519, 1474.515 519.824, 1473.674 522.054 C 1472.782 524.417, 1472.066 524.986, 1470.510 524.568 C 1469.405 524.270, 1467.938 524.021, 1467.250 524.014 C 1466.563 524.006, 1466 523.190, 1466 522.200 C 1466 518.024, 1459.948 516.360, 1458 520 C 1457.299 521.310, 1455.906 522, 1453.965 522 C 1451.510 522, 1451 521.591, 1451 519.622 C 1451 514.403, 1443.772 513.134, 1443.184 518.250 C 1442.936 520.398, 1442.342 521, 1440.469 521 C 1439.094 521, 1437.614 520.147, 1437 519 C 1436.308 517.706, 1434.906 517, 1433.032 517 C 1431.013 517, 1429.942 517.606, 1429.500 519 C 1428.818 521.147, 1423.664 521.884, 1422.500 520 C 1421.527 518.425, 1416.009 518.812, 1415.362 520.500 C 1415.012 521.412, 1413.498 522, 1411.500 522 C 1409.502 522, 1407.988 521.412, 1407.638 520.500 C 1406.809 518.338, 1402.355 518.655, 1400.718 520.993 C 1399.950 522.089, 1398.011 523.248, 1396.409 523.568 C 1393.848 524.080, 1393.355 523.779, 1392.335 521.075 C 1390.444 516.068, 1384 517.289, 1384 522.655 C 1384 524.482, 1383.289 525.028, 1380.250 525.537 C 1378.188 525.882, 1376.050 526.279, 1375.500 526.419 C 1374.950 526.559, 1373.959 525.397, 1373.298 523.837 C 1371.221 518.933, 1365.644 520.316, 1364.846 525.933 C 1364.601 527.657, 1363.626 528.598, 1361.500 529.165 C 1359.664 529.654, 1358.368 529.577, 1358.161 528.964 C 1357.583 527.261, 1354.925 525, 1353.500 525 C 1351.263 525, 1349 527.961, 1349 530.886 C 1349 533.027, 1348.245 533.989, 1345.563 535.268 C 1342.204 536.870, 1342.120 536.858, 1341.813 534.704 C 1341.559 532.912, 1340.846 532.500, 1338 532.500 L 1334.500 532.500 1334.201 537.670 C 1333.927 542.394, 1333.532 543.142, 1329.630 546.340 C 1326.599 548.823, 1324.944 549.577, 1323.929 548.935 C 1320.132 546.532, 1316.651 549.623, 1317.580 554.575 C 1318.083 557.257, 1317.626 558.883, 1315.357 562.473 C 1312.761 566.581, 1312.220 566.941, 1309.436 566.421 C 1304.870 565.566, 1303.604 567.674, 1304.478 574.674 C 1305.054 579.278, 1304.753 581.644, 1302.900 587.087 C 1300.618 593.788, 1300.599 593.809, 1297.329 593.279 C 1294.544 592.827, 1293.913 593.106, 1293.159 595.123 C 1292.271 597.497, 1293.054 606.885, 1294.775 614.511 C 1295.282 616.760, 1295.338 623.131, 1294.901 629.011 C 1294.014 640.960, 1295.364 663.818, 1297.618 675 C 1303.491 704.135, 1313.180 725.913, 1327.641 742.484 C 1350.068 768.183, 1383.261 780.983, 1427.500 780.991 C 1469.808 780.999, 1499.799 772.336, 1518.725 754.638 C 1529.521 744.543, 1536.359 733.287, 1541.288 717.500 C 1545.841 702.912, 1547.128 692.292, 1547.711 664.500 C 1548.335 634.768, 1547.367 620.061, 1543.085 594.199 C 1541.473 584.465, 1539.849 573.679, 1539.477 570.231 C 1538.708 563.118, 1536.728 561.005, 1532.800 563.107 C 1530.895 564.126, 1530.393 563.964, 1529.050 561.898 C 1528.198 560.586, 1525.217 556.804, 1522.426 553.494 C 1518.098 548.359, 1517.206 546.569, 1516.358 541.297 L 1515.363 535.119 1518.931 537.971 C 1523.449 541.582, 1527.791 546.284, 1531.800 551.907 C 1533.903 554.857, 1535.111 555.850, 1535.454 554.907 C 1538.295 547.105, 1540.283 540.322, 1547.595 513.500 C 1558.672 472.866, 1561.050 460.231, 1561.731 438.412 L 1562.264 421.324 1559.116 419.083 L 1555.968 416.841 1454.234 415.452 C 1325.707 413.698, 1327.487 413.701, 1326.233 415.250 M 2097.250 529.723 L 2094 530.127 2094 536.482 C 2094 544.690, 2093.439 546, 2089.928 546 C 2086.063 546, 2084.983 543.568, 2085.711 536.507 L 2086.313 530.678 2076.989 531.340 C 2071.861 531.704, 2067.494 532.173, 2067.285 532.381 C 2067.077 532.590, 2067.458 535.755, 2068.132 539.415 C 2069.207 545.246, 2069.161 546.267, 2067.764 547.665 C 2066.684 548.745, 2065.322 549.047, 2063.542 548.600 C 2060.629 547.869, 2060.412 547.455, 2059.545 541 C 2058.582 533.822, 2058.084 533.439, 2051.598 534.891 C 2048.538 535.575, 2045.835 536.457, 2045.593 536.850 C 2045.350 537.243, 2046.100 540.788, 2047.261 544.728 C 2049.753 553.192, 2048.896 557, 2044.500 557 C 2041.732 557, 2041.334 556.312, 2038.564 546.750 C 2037.647 543.587, 2036.453 541, 2035.909 541 C 2034.100 541, 2027.575 544.734, 2021.269 549.379 C 2015.412 553.692, 2015.098 554.127, 2016.044 556.616 C 2019.854 566.637, 2019.146 572, 2014.012 572 C 2011.492 572, 2010.952 571.489, 2010.053 568.250 C 2009.480 566.188, 2008.990 563.825, 2008.964 563 C 2008.856 559.584, 2001.417 570.295, 1995.420 582.500 C 1984.466 604.795, 1981.462 620, 1981.592 652.500 C 1981.676 673.617, 1981.906 676.524, 1984.408 688 C 1992.950 727.193, 2008.830 753.201, 2034 769.223 C 2051.091 780.103, 2069.770 786.485, 2093.595 789.586 C 2109.800 791.695, 2139.023 790.989, 2155 788.102 C 2198.171 780.301, 2221.122 758.408, 2230.551 716.032 C 2236.756 688.147, 2237.672 634.306, 2232.385 608.233 C 2227.808 585.656, 2217.667 566.864, 2203.646 554.974 L 2196.545 548.952 2194.873 551.168 C 2193.954 552.387, 2192.690 555.091, 2192.065 557.176 C 2190.717 561.675, 2187.938 563.573, 2185 562 C 2182.274 560.541, 2182.456 556.711, 2185.567 550.028 C 2187.938 544.933, 2187.996 544.470, 2186.405 543.307 C 2183.848 541.437, 2171.073 536.594, 2170.420 537.247 C 2170.108 537.559, 2169.548 540.893, 2169.176 544.657 C 2168.527 551.225, 2168.387 551.513, 2165.690 551.822 C 2160.837 552.379, 2159.714 550.496, 2160.503 543.124 C 2160.885 539.564, 2161.406 536.107, 2161.661 535.441 C 2162.130 534.220, 2157.948 532.974, 2147.395 531.189 L 2142.289 530.326 2142.395 535.913 C 2142.500 541.487, 2142.492 541.501, 2139.316 541.808 C 2135.649 542.164, 2134.615 540.813, 2133.528 534.247 C 2132.736 529.466, 2131.231 528.645, 2124.253 529.184 L 2120.166 529.500 2122.642 535.356 C 2125.010 540.958, 2125.042 541.296, 2123.364 543.150 C 2122.400 544.216, 2120.698 544.956, 2119.582 544.794 C 2117.144 544.441, 2113.351 538.036, 2112.461 532.769 L 2111.824 529 2106.162 529.160 C 2103.048 529.248, 2099.037 529.502, 2097.250 529.723 M 2648 531.133 C 2638.264 532.126, 2621.236 536.845, 2613.660 540.648 C 2599.523 547.746, 2590.161 556.804, 2578.062 575.090 C 2566.491 592.579, 2558 613.768, 2558 625.157 L 2558 628.993 2562.750 624.074 C 2565.363 621.368, 2568.699 618.856, 2570.165 618.490 C 2574.396 617.435, 2579.387 620.526, 2587.428 629.182 L 2594.787 637.103 2600.966 628.802 C 2610.105 616.524, 2618.848 609.969, 2622.283 612.819 C 2622.974 613.393, 2624.353 616.256, 2625.349 619.181 C 2627.217 624.671, 2631.711 632.079, 2633.539 632.683 C 2634.111 632.872, 2635.107 631.108, 2635.753 628.763 C 2637.510 622.391, 2640.462 618.297, 2645.694 614.979 C 2651.069 611.571, 2656.412 611.031, 2657.864 613.750 C 2658.377 614.712, 2659.121 618.094, 2659.516 621.264 C 2660.400 628.364, 2662.984 632, 2667.145 632 C 2670.217 632, 2674.333 629.894, 2686.352 622.173 C 2694.542 616.912, 2697.274 617.250, 2698.448 623.671 C 2700.519 635, 2706.925 634.766, 2718.283 622.946 C 2723.912 617.087, 2724.400 617.352, 2732.272 630.547 L 2735.044 635.194 2741.886 628.186 C 2748.401 621.514, 2755.096 617, 2758.476 617 C 2759.332 617, 2760.745 618.688, 2761.615 620.750 C 2764.452 627.471, 2767.022 632.452, 2768.956 634.979 L 2770.854 637.458 2777.418 631.154 C 2784.609 624.249, 2786.564 623.800, 2788.945 628.507 C 2789.778 630.153, 2791.066 632.550, 2791.807 633.834 L 2793.156 636.167 2799.328 630.248 C 2802.723 626.992, 2806.541 623.773, 2807.814 623.095 C 2810.625 621.596, 2812.185 622.631, 2815.102 627.929 L 2817.068 631.500 2816.434 623.500 C 2813.322 584.218, 2799.850 563.286, 2767.876 548.055 C 2762.169 545.336, 2753.505 541.960, 2748.623 540.552 C 2719.488 532.148, 2677.015 528.173, 2648 531.133 M 2494.453 584.171 C 2496.545 593.349, 2496.954 596.256, 2496.976 602.091 C 2497.009 611.023, 2494.933 617.265, 2489.974 623.146 C 2485.026 629.014, 2484.991 628.937, 2495.971 636.254 C 2505.350 642.505, 2509 645.851, 2509 648.200 C 2509 649.205, 2505.406 654.183, 2501.014 659.263 C 2496.622 664.343, 2493.022 669, 2493.014 669.610 C 2493.006 670.226, 2495.497 670.978, 2498.603 671.298 C 2507.158 672.181, 2507.882 673.279, 2508.217 685.876 L 2508.500 696.500 2511.419 696.833 C 2516.299 697.389, 2522.777 694.949, 2527.532 690.763 C 2534.535 684.599, 2539.744 672.918, 2546.538 648.143 L 2549.927 635.785 2544.214 627.167 C 2533.754 611.390, 2513.825 592.478, 2499.711 584.935 C 2493.955 581.859, 2493.925 581.854, 2494.453 584.171 M 2882.220 598.567 C 2867.488 605.114, 2848.418 620.640, 2835.979 636.215 L 2828.220 645.930 2831.512 661.912 C 2836.423 685.756, 2839.661 694.294, 2846.785 702.189 C 2851.181 707.060, 2855.324 709, 2861.332 709 L 2865.727 709 2866.252 699.750 C 2867.010 686.401, 2867.210 686.125, 2876.921 685.082 C 2879.903 684.762, 2882.483 684.050, 2882.654 683.500 C 2882.826 682.950, 2879.599 678.020, 2875.483 672.545 C 2871.367 667.070, 2868 661.986, 2868 661.248 C 2868 659.071, 2872.730 655.309, 2881.430 650.567 C 2885.910 648.125, 2890.404 645.211, 2891.417 644.092 C 2893.218 642.101, 2893.188 641.978, 2890.004 638.352 C 2888.214 636.313, 2886.048 633.038, 2885.190 631.073 C 2882.997 626.048, 2883.276 614.233, 2885.818 604.536 C 2886.966 600.156, 2887.814 596.493, 2887.703 596.396 C 2887.591 596.300, 2885.124 597.277, 2882.220 598.567 M 2647.083 623.763 C 2643.941 626.905, 2642.014 632.375, 2642.006 638.179 C 2642.001 641.503, 2640.011 645, 2638.124 645 C 2637.721 645, 2635.297 643.672, 2632.737 642.048 C 2627.677 638.839, 2622.849 632.931, 2619.830 626.256 C 2617.953 622.103, 2617.860 622.045, 2615.526 623.575 C 2614.213 624.435, 2610.021 629.287, 2606.210 634.357 C 2598.526 644.581, 2596.348 647, 2594.831 647 C 2594.267 647, 2589.393 642.725, 2584 637.500 C 2578.277 631.955, 2573.365 628, 2572.201 628 C 2569.413 628, 2564.256 634.216, 2563.299 638.729 C 2562.860 640.803, 2562.541 651.950, 2562.591 663.500 C 2562.672 682.112, 2562.982 685.933, 2565.317 697.102 C 2568.091 710.372, 2572.534 724.136, 2576.743 732.500 C 2598.045 774.834, 2642.676 797, 2706.613 797 C 2759.548 797, 2789.863 777.687, 2803.931 735 C 2808.989 719.652, 2814.475 683.631, 2815.665 657.956 L 2816.292 644.412 2812.455 638.956 C 2810.344 635.955, 2808.476 633.311, 2808.305 633.079 C 2807.736 632.315, 2802.838 637.426, 2799.755 642 C 2793.956 650.604, 2792.169 650.504, 2786.968 641.289 L 2783.719 635.532 2777.985 641.766 C 2774.831 645.195, 2771.550 648, 2770.693 648 C 2768.620 648, 2762.613 640.554, 2758.550 632.950 L 2755.273 626.817 2750.454 632.399 C 2739.130 645.516, 2731.838 646.405, 2725.420 635.454 C 2723.985 633.004, 2722.487 631, 2722.092 631 C 2721.697 631, 2720.052 632.391, 2718.437 634.092 C 2714.311 638.434, 2708.829 641, 2703.675 641 C 2698.251 641, 2694.833 638.538, 2692.637 633.050 L 2691.042 629.063 2682.906 634.242 C 2675.802 638.763, 2673.987 639.470, 2668.585 639.814 C 2663.013 640.168, 2662.079 639.938, 2659.164 637.485 C 2655.385 634.305, 2653.445 630.890, 2652.472 625.704 C 2651.534 620.703, 2650.512 620.335, 2647.083 623.763 M 1487.025 643.752 C 1482.093 646.233, 1480.179 651.467, 1482.452 656.258 C 1485.244 662.140, 1492.735 663.883, 1497.462 659.750 C 1503.179 654.751, 1502.186 646.229, 1495.565 643.463 C 1491.197 641.638, 1491.229 641.636, 1487.025 643.752 M 2154.383 650.534 C 2148.219 653.672, 2147.060 661.906, 2152.077 666.923 C 2161.458 676.304, 2176.125 662.826, 2167.250 652.981 C 2163.875 649.237, 2158.820 648.276, 2154.383 650.534 M 1354.923 653.923 C 1350.506 658.340, 1351.134 664.988, 1356.367 669.228 C 1363.621 675.103, 1374.255 665.234, 1369.883 656.684 C 1366.690 650.441, 1359.696 649.150, 1354.923 653.923 M 2062.750 654.080 C 2060.434 655.429, 2058 660.257, 2058 663.500 C 2058 666.873, 2060.501 671.663, 2062.945 672.970 C 2064.003 673.537, 2066.508 674, 2068.511 674 C 2078.068 674, 2081.494 661.140, 2073.633 654.772 C 2071.277 652.863, 2065.473 652.494, 2062.750 654.080 M 2653.357 663.954 C 2646.982 666.639, 2646.118 677.269, 2651.913 681.718 C 2653.868 683.219, 2659.463 683.358, 2662.055 681.970 C 2665.045 680.371, 2667.267 675.238, 2666.573 671.538 C 2665.472 665.666, 2658.623 661.736, 2653.357 663.954 M 2728.106 670.901 C 2724.793 673.996, 2723.919 679.112, 2726.030 683.055 C 2727.241 685.318, 2732.053 688, 2734.903 688 C 2744.816 688, 2748.459 673.179, 2739.469 669.422 C 2734.403 667.306, 2731.558 667.676, 2728.106 670.901 M 1509.200 692.200 C 1508.540 692.860, 1507.995 694.997, 1507.988 696.950 C 1507.954 707.025, 1500.892 722.611, 1492.271 731.638 C 1482.567 741.798, 1470.676 748.641, 1454.040 753.639 C 1446.917 755.779, 1442.845 756.286, 1429.500 756.696 C 1415.754 757.118, 1412.175 756.894, 1404.095 755.104 C 1389.978 751.977, 1379.068 746.298, 1370.481 737.605 C 1362.063 729.084, 1358.421 722.188, 1356.361 710.872 C 1354.614 701.277, 1353.943 699.629, 1351.595 699.167 C 1348.121 698.484, 1346.849 700.932, 1347.571 706.915 C 1350.956 735, 1369.345 753.966, 1401.500 762.537 C 1410.942 765.054, 1434.563 765.610, 1445.354 763.570 C 1485.267 756.025, 1511.834 732.027, 1515.482 700.224 C 1515.989 695.808, 1515.840 693.512, 1514.979 692.474 C 1513.499 690.691, 1510.835 690.565, 1509.200 692.200 M 1962.931 697.367 C 1960.419 698.044, 1952.544 701.786, 1945.431 705.682 C 1938.319 709.577, 1925.631 716.418, 1917.235 720.884 C 1881.982 739.635, 1865.814 750.338, 1835.249 775.161 C 1802.107 802.077, 1797 807.190, 1797 813.454 C 1797 820.941, 1809.073 834.295, 1830.843 850.887 C 1842.377 859.677, 1851.112 867.518, 1864.014 880.660 C 1884.454 901.479, 1908.671 927.176, 1921.662 941.829 C 1932.099 953.600, 1937.366 957.861, 1942.513 958.696 C 1945.627 959.201, 1947.003 958.666, 1952.804 954.688 C 1969.113 943.507, 1995.195 910.480, 2012.576 879 C 2024.798 856.865, 2051.629 798.097, 2052.189 792.237 C 2052.493 789.052, 2052.318 788.895, 2044.802 785.614 C 2028.352 778.433, 2008.777 762.430, 1999.295 748.411 C 1990.657 735.639, 1983.418 719.925, 1979.009 704.374 C 1977.144 697.793, 1976.751 697.200, 1973.870 696.624 C 1969.770 695.804, 1968.377 695.899, 1962.931 697.367 M 2194.245 698.250 C 2193.696 698.938, 2192.716 702.601, 2192.069 706.390 C 2188.814 725.454, 2176.463 740.767, 2156.429 750.581 C 2118.902 768.963, 2069.073 761.663, 2049.431 734.905 C 2044.100 727.643, 2040.154 717.508, 2039.369 709.058 C 2038.507 699.786, 2035.562 696.581, 2031.571 700.571 C 2029.601 702.542, 2029.591 706.027, 2031.531 715.792 C 2039.552 756.177, 2087.423 778.364, 2139.807 765.975 C 2167.202 759.496, 2188.567 742.711, 2196.890 721.129 C 2200.528 711.696, 2202.368 701.556, 2200.930 698.870 C 2199.794 696.747, 2195.747 696.372, 2194.245 698.250 M 2609.529 700.614 C 2607.563 702.580, 2607.541 711.171, 2609.479 720.315 C 2614.626 744.609, 2633.521 762.225, 2663.500 770.682 C 2676.456 774.337, 2699.201 775.005, 2713.639 772.154 C 2747.327 765.503, 2770.285 745.406, 2776 717.566 C 2777.106 712.177, 2777.053 711.512, 2775.418 710.316 C 2774.428 709.592, 2773.286 709, 2772.880 709 C 2771.031 709, 2769.046 712.461, 2767.997 717.513 C 2766.108 726.615, 2760.432 736.646, 2753.034 743.957 C 2737.940 758.876, 2717.341 766.347, 2691.500 766.275 C 2666.357 766.205, 2645.997 758.930, 2631.959 745 C 2620.939 734.065, 2616.030 722.561, 2615.985 707.566 C 2615.976 704.780, 2615.639 702.017, 2615.235 701.427 C 2613.884 699.455, 2611.087 699.056, 2609.529 700.614 M 1651.195 748.132 C 1642.182 752.594, 1635.546 765.530, 1636.200 777.367 C 1636.549 783.691, 1636.846 784.473, 1639.955 787.251 L 1643.332 790.269 1646.131 786.884 C 1650.835 781.198, 1655.089 772.280, 1658.116 761.764 C 1661.406 750.329, 1661.653 747.464, 1659.418 746.607 C 1656.922 745.649, 1655.786 745.860, 1651.195 748.132 M 1339.368 775.750 C 1336.764 779.462, 1330.090 788.575, 1324.536 796 C 1311.229 813.790, 1293.766 839.976, 1286.684 852.761 C 1283.558 858.404, 1281 863.225, 1281 863.474 C 1281 863.722, 1275.393 875.550, 1268.541 889.758 C 1251.961 924.132, 1250.256 930.676, 1256.373 936.445 C 1263.440 943.110, 1275.322 947.413, 1302 952.968 C 1309.975 954.629, 1319.200 956.837, 1322.500 957.876 C 1337.488 962.592, 1401.175 987.110, 1422 996.181 C 1433.455 1001.170, 1441.259 1002.905, 1446.420 1001.609 C 1455.912 999.227, 1468.359 961.060, 1473.523 918.500 C 1475.540 901.874, 1476.507 848.521, 1475.229 824.345 C 1474.123 803.409, 1473.013 799.931, 1464.816 791.725 C 1460.667 787.572, 1459.685 787.044, 1457.273 787.671 C 1455.748 788.068, 1443.475 788.417, 1430 788.446 C 1410.402 788.489, 1403.399 788.129, 1395 786.646 C 1381.181 784.205, 1364.550 778.836, 1353.946 773.392 C 1349.241 770.976, 1345.102 769, 1344.747 769 C 1344.392 769, 1341.971 772.038, 1339.368 775.750 M 2591 781.699 C 2549.646 818.082, 2530.578 837.999, 2506.184 870.293 C 2491.615 889.581, 2490.276 892.539, 2493.982 897.250 C 2497.575 901.817, 2504.097 900.566, 2510.059 894.167 C 2512.620 891.418, 2515.605 891.393, 2517.057 894.107 C 2518.009 895.886, 2517.687 896.908, 2514.990 900.664 C 2511.014 906.200, 2510.099 911.696, 2512.535 915.414 C 2514.789 918.853, 2518.959 921, 2523.385 921 C 2528.563 921, 2531.057 919.726, 2536.162 914.474 C 2540.130 910.391, 2541.157 909.823, 2543.495 910.409 C 2546.439 911.148, 2546.468 911.629, 2544.094 920.500 C 2541.015 932.009, 2548.934 944, 2559.613 944 C 2563.029 944, 2564.679 943.343, 2567.516 940.852 C 2569.489 939.120, 2571.766 936.420, 2572.577 934.852 C 2574.228 931.658, 2577.919 930.993, 2580.010 933.513 C 2581.026 934.736, 2580.937 936.071, 2579.543 940.502 C 2577.517 946.943, 2578.104 952.390, 2581.334 957.135 C 2588.437 967.567, 2600.343 967.357, 2606.224 956.697 C 2608.139 953.224, 2609.053 952.500, 2611.520 952.500 L 2614.500 952.500 2614.178 961.266 C 2613.995 966.238, 2614.365 971.576, 2615.033 973.601 C 2616.767 978.853, 2621.547 983.824, 2625.593 984.583 C 2630.190 985.446, 2633.799 983.799, 2639.058 978.441 C 2646.261 971.102, 2649.762 972.881, 2648.216 983.094 C 2646.821 992.309, 2648.511 998.178, 2653.265 1000.637 C 2660.539 1004.398, 2667.125 1001.611, 2673.673 992 C 2687.751 971.335, 2701.060 931.282, 2714.212 870 C 2716.985 857.075, 2719.820 843.962, 2720.511 840.859 C 2722.747 830.817, 2718.713 818.305, 2710.360 809.372 L 2706.500 805.244 2690 804.168 C 2656.376 801.977, 2628.250 793.627, 2607.072 779.548 C 2603.310 777.047, 2599.842 775.023, 2599.366 775.050 C 2598.889 775.078, 2595.125 778.070, 2591 781.699 M 1795.728 847.319 C 1785.885 856.074, 1778.821 864.584, 1775.401 871.806 C 1772.100 878.778, 1771.890 889.703, 1774.927 896.567 C 1777.409 902.178, 1788.668 919.499, 1794.435 926.580 C 1807.094 942.119, 1814.599 944.320, 1831.959 937.585 C 1842.881 933.348, 1845.360 933.287, 1845.816 937.241 C 1846.052 939.297, 1844.624 942.057, 1840.103 948.279 C 1826.714 966.707, 1827.384 970.922, 1847.308 993.586 C 1867.347 1016.382, 1877.518 1023.972, 1886.171 1022.589 C 1894.799 1021.209, 1903.865 1015.057, 1919.337 1000.084 C 1932.139 987.694, 1937.919 977.711, 1936.541 970.367 C 1936.029 967.640, 1933.760 964.829, 1926.297 957.682 C 1921.025 952.632, 1908.062 939.050, 1897.491 927.500 C 1869.924 897.381, 1847.246 874.684, 1833.924 863.885 C 1827.557 858.723, 1818.502 851.237, 1813.802 847.250 C 1809.101 843.263, 1804.963 840, 1804.606 840 C 1804.248 840, 1800.253 843.293, 1795.728 847.319 M 1682.389 871.905 C 1669.461 879.788, 1666.763 908.864, 1678.445 914.407 C 1680.292 915.283, 1682.016 916, 1682.278 916 C 1683.099 916, 1686.911 906.436, 1688.520 900.339 C 1690.801 891.701, 1691.726 872.073, 1689.908 870.922 C 1687.765 869.565, 1685.805 869.821, 1682.389 871.905 M 2403.859 889.158 C 2399.692 891.574, 2396.383 896.883, 2394.398 904.339 C 2391.731 914.356, 2393.399 924.599, 2398.533 929.733 C 2403.449 934.649, 2406.245 934.182, 2408.904 928.001 C 2412.910 918.689, 2414.633 891.776, 2411.429 888.571 C 2409.381 886.524, 2408.249 886.612, 2403.859 889.158 M 2479.088 906.962 C 2473.507 915.228, 2471.114 920.723, 2471.044 925.434 C 2471.010 927.676, 2472.181 929.506, 2476.008 933.195 C 2480.049 937.090, 2485.987 940.459, 2506.758 950.645 C 2520.916 957.588, 2535.650 965.085, 2539.500 967.305 C 2550.055 973.391, 2582.695 994.496, 2598.500 1005.454 C 2606.200 1010.793, 2618.329 1018.791, 2625.454 1023.226 C 2644.902 1035.335, 2648.014 1035.006, 2658.250 1019.756 C 2661.412 1015.045, 2664 1010.923, 2664 1010.595 C 2664 1010.268, 2661.779 1010, 2659.065 1010 C 2656.351 1010, 2652.863 1009.521, 2651.315 1008.936 C 2645.534 1006.752, 2640 999.224, 2640 993.545 C 2640 990.178, 2639.096 989.911, 2634.916 992.043 C 2632.656 993.196, 2629.071 994, 2626.190 994 C 2617.571 994, 2609.333 986.022, 2606.758 975.183 C 2605.800 971.151, 2605.178 970.121, 2604.010 970.634 C 2599.663 972.543, 2593.292 973.196, 2589.405 972.130 C 2580.305 969.634, 2571.876 961.147, 2570.519 953.114 L 2569.871 949.280 2566.186 950.596 C 2561.347 952.324, 2559.387 952.304, 2553.194 950.465 C 2545.601 948.210, 2538.521 940.844, 2536.312 932.900 C 2534.990 928.142, 2534.328 927.062, 2533.075 927.614 C 2532.209 927.995, 2528.475 928.513, 2524.778 928.765 C 2518.852 929.168, 2517.523 928.911, 2513.562 926.589 C 2507.563 923.073, 2503.873 918.056, 2503.255 912.572 C 2502.914 909.542, 2502.357 908.309, 2501.484 908.645 C 2498.673 909.723, 2491.432 906.721, 2487.902 903.014 L 2484.304 899.236 2479.088 906.962 M 1260.071 953.123 C 1257.639 957.123, 1255.075 970.715, 1254.341 983.500 C 1253.845 992.141, 1254.066 994.384, 1255.969 1000 C 1260.032 1011.995, 1265.189 1016.417, 1282.545 1022.795 C 1297.826 1028.409, 1308.617 1031, 1316.721 1031 C 1326.751 1031, 1330.999 1028.048, 1338.521 1015.849 C 1344.316 1006.452, 1345.506 1005.044, 1347.679 1005.015 C 1350.844 1004.974, 1351.728 1007.942, 1352.200 1020.189 C 1352.748 1034.433, 1354.274 1038.853, 1359.906 1042.515 C 1364.078 1045.227, 1366.404 1045.887, 1386.545 1050.080 C 1403.374 1053.583, 1420.714 1054.910, 1426.163 1053.111 C 1435.205 1050.127, 1440.100 1040.743, 1444.407 1018.141 L 1445.759 1011.045 1442.129 1010.493 C 1436.240 1009.597, 1417.786 1003.229, 1401.075 996.327 C 1354.168 976.952, 1327.852 967.731, 1298.539 960.398 C 1286.418 957.365, 1273.436 953.785, 1269.690 952.442 C 1265.945 951.099, 1262.676 950, 1262.426 950 C 1262.175 950, 1261.116 951.405, 1260.071 953.123 M 2444 959.091 C 2457.639 965.697, 2469.998 970.335, 2494 977.852 C 2535.080 990.719, 2565.274 998.672, 2569.765 997.807 C 2572.600 997.261, 2539.195 976.775, 2519.500 966.982 L 2501.500 958.031 2486 957.035 C 2477.475 956.487, 2462.625 955.799, 2453 955.506 L 2435.500 954.974 2444 959.091 M 2355.893 968.497 C 2351.173 971.063, 2346.733 979.442, 2344.984 989.087 C 2343.509 997.220, 2345.135 1005.288, 2349.033 1009.187 C 2354.183 1014.337, 2355.743 1013.202, 2360.282 1001 C 2365.750 986.301, 2367.820 976.009, 2366.509 970.040 C 2365.911 967.316, 2365.459 967.004, 2362.171 967.040 C 2360.152 967.062, 2357.327 967.718, 2355.893 968.497 M 1339.825 1029.814 C 1334.728 1036.655, 1327.861 1040, 1318.914 1040 C 1307.395 1040, 1294.200 1037.060, 1277.908 1030.864 L 1270.315 1027.976 1257.066 1036.035 C 1249.779 1040.467, 1234.520 1049.236, 1223.158 1055.523 C 1211.796 1061.809, 1201.872 1067.320, 1201.104 1067.770 C 1199.994 1068.419, 1200.554 1069.926, 1203.841 1075.131 C 1208.767 1082.930, 1211 1088.856, 1211 1094.126 L 1211 1098 1219.122 1098 C 1237.083 1098, 1262.524 1092.408, 1292 1081.980 C 1317.630 1072.913, 1347.536 1061.647, 1355.896 1057.909 L 1363.197 1054.644 1359.348 1052.712 C 1350.567 1048.302, 1345.234 1040.429, 1344.092 1030.191 L 1343.500 1024.882 1339.825 1029.814 M 1099.397 1048.516 C 1097.203 1051.866, 1097.920 1059.117, 1101.069 1065.423 C 1105.989 1075.275, 1118.843 1084.002, 1126.356 1082.593 C 1132.100 1081.515, 1132.651 1079.870, 1129.484 1073.254 C 1127.483 1069.072, 1123.750 1064.563, 1115.823 1056.750 C 1109.529 1050.547, 1104.097 1046, 1102.981 1046 C 1101.917 1046, 1100.304 1047.132, 1099.397 1048.516 M 1176.289 1058.800 C 1175.623 1059.224, 1174.367 1061.270, 1173.500 1063.347 C 1169.883 1072.002, 1176.928 1088.953, 1186.877 1095.537 C 1190.073 1097.653, 1191.727 1098.058, 1196.134 1097.806 C 1201.435 1097.504, 1201.497 1097.463, 1201.216 1094.500 C 1200.899 1091.157, 1197.449 1081.881, 1195.056 1077.936 C 1190.825 1070.965, 1180.406 1058.002, 1179.044 1058.015 C 1178.195 1058.024, 1176.955 1058.377, 1176.289 1058.800 M 2339.500 1345.116 C 2307.966 1349.697, 2292.199 1362.496, 2287.487 1387.338 C 2285.412 1398.278, 2285.443 1435.516, 2287.537 1447.619 C 2291.427 1470.097, 2303.509 1482.535, 2326.664 1487.897 C 2350.523 1493.421, 2390.527 1492.104, 2410.336 1485.142 C 2418.835 1482.155, 2424.162 1478.726, 2429.465 1472.828 C 2439.779 1461.356, 2441.142 1455.695, 2441.728 1421.910 C 2442.098 1400.496, 2441.883 1393.705, 2440.623 1387.020 C 2434.635 1355.272, 2413.669 1343.756, 2362.526 1344.122 C 2353.162 1344.189, 2342.800 1344.636, 2339.500 1345.116 M 1247 1367.630 C 1223.141 1371.047, 1212.291 1376.361, 1196.489 1392.371 C 1183.566 1405.462, 1177.896 1417.343, 1176.005 1435.289 C 1175.404 1440.994, 1175.027 1545.362, 1175.014 1709.500 C 1174.992 1998.169, 1175.308 1981.611, 1169.478 1999.471 C 1163.835 2016.758, 1151.959 2036.417, 1138.386 2050.937 C 1123.927 2066.407, 1098.486 2082.863, 1079 2089.351 C 1050.410 2098.869, 1013.053 2098.589, 984.500 2088.641 C 964.229 2081.579, 950.417 2072.695, 926 2051.015 C 899.307 2027.314, 880.475 2018.250, 860 2019.249 C 843.779 2020.040, 829.816 2026.337, 814.758 2039.653 C 797.543 2054.877, 790 2070.583, 790 2091.204 C 790 2115.629, 802.600 2138.178, 832.857 2167.903 C 876.668 2210.943, 932.354 2236.112, 1001.500 2244.127 C 1015.646 2245.766, 1054.306 2245.770, 1068.500 2244.133 C 1122.470 2237.909, 1168.058 2220.040, 1212.500 2187.692 C 1230.072 2174.901, 1257.792 2148.058, 1271.238 2130.812 C 1304.134 2088.619, 1323.195 2042.815, 1329.210 1991.500 C 1331.124 1975.175, 1331.102 1436.483, 1329.188 1427 C 1326.050 1411.458, 1319.956 1400.060, 1308.680 1388.641 C 1296.510 1376.317, 1283.990 1370.413, 1265.026 1368.054 C 1256.731 1367.022, 1252.019 1366.912, 1247 1367.630 M 1755.500 1559.649 C 1753.850 1559.842, 1748.225 1560.470, 1743 1561.046 C 1654.531 1570.796, 1573.581 1627.007, 1525.147 1712.322 C 1504.690 1748.357, 1492.112 1784.829, 1484.049 1831.500 C 1478.993 1860.764, 1477.370 1910.547, 1480.380 1944 C 1486.908 2016.537, 1510.546 2078.701, 1552.081 2132.563 C 1563.010 2146.735, 1586.106 2170.318, 1599.314 2180.792 C 1626.575 2202.409, 1650.647 2216.418, 1678.795 2227.045 C 1730.532 2246.578, 1793.251 2251.119, 1842.500 2238.898 C 1860.987 2234.310, 1879.252 2227.376, 1899.500 2217.258 C 1926.118 2203.957, 1944.855 2190.682, 1966.737 2169.623 L 1977 2159.746 1977.022 2163.623 C 1977.051 2168.898, 1980.373 2183.445, 1982.869 2189.227 C 1991.984 2210.344, 2010.418 2225.606, 2034 2231.559 C 2044.077 2234.102, 2064.906 2233.159, 2075.500 2229.679 C 2086.453 2226.081, 2094.958 2220.822, 2103.557 2212.329 C 2116.058 2199.981, 2122.991 2185.641, 2125.017 2167.941 C 2125.773 2161.331, 2125.994 2077.834, 2125.752 1889.500 C 2125.377 1597.062, 2125.773 1617.199, 2120.121 1603.184 C 2113.447 1586.635, 2096.647 1570.144, 2080.146 1563.945 C 2061.750 1557.034, 2038.750 1557.475, 2020.500 1565.089 C 2004.244 1571.870, 1989.064 1587.692, 1982.206 1605 C 1979.411 1612.054, 1977 1623.720, 1977 1630.187 C 1977 1636.124, 1977.916 1636.505, 1964.594 1625.031 C 1943.762 1607.087, 1916.192 1590.824, 1886.768 1579.123 C 1851.688 1565.172, 1817.390 1558.877, 1778 1559.160 C 1767.275 1559.237, 1757.150 1559.457, 1755.500 1559.649 M 2925 1561.018 C 2902.266 1564.096, 2889.397 1567.475, 2868.108 1575.957 C 2841.116 1586.711, 2814.861 1603.373, 2789.645 1625.753 C 2779.464 1634.790, 2762.390 1652.881, 2756.093 1661.306 L 2752.500 1666.112 2751.815 1651.806 C 2751.007 1634.934, 2749.659 1626.853, 2746.173 1618 C 2742.137 1607.749, 2737.418 1600.487, 2729.923 1592.992 C 2714.794 1577.863, 2699.397 1571.655, 2677 1571.655 C 2654.637 1571.655, 2639.202 1577.867, 2624.142 1592.927 C 2616.410 1600.659, 2611.131 1608.718, 2607.633 1618.131 C 2602.234 1632.658, 2602.500 1617.900, 2602.500 1903 C 2602.500 2154.046, 2602.591 2167.881, 2604.296 2175 C 2608.159 2191.129, 2613.898 2201.651, 2624.722 2212.449 C 2638.807 2226.500, 2655.343 2233, 2677 2233 C 2692.624 2233, 2705.367 2229.688, 2716.500 2222.734 C 2732.198 2212.928, 2744.308 2196.162, 2749.289 2177.341 C 2751.339 2169.596, 2751.372 2167.345, 2752.030 1994 C 2752.467 1878.852, 2753.055 1816.609, 2753.741 1813 C 2761.312 1773.179, 2782.857 1740.172, 2814.662 1719.664 C 2839.999 1703.328, 2867.722 1696.037, 2904.500 1696.037 C 2952.372 1696.037, 2982.428 1708.336, 3003.279 1736.457 C 3017.112 1755.114, 3024.446 1776.789, 3028.500 1811 C 3029.753 1821.571, 3029.983 1849.436, 3029.991 1991.526 C 3029.997 2103.932, 3030.351 2162.357, 3031.061 2168.026 C 3033.284 2185.779, 3039.960 2199.647, 3052.157 2211.843 C 3060.717 2220.404, 3069.317 2225.797, 3080.500 2229.618 C 3087.246 2231.923, 3090.616 2232.417, 3102 2232.772 C 3116.318 2233.218, 3125.607 2231.669, 3136.425 2227.032 C 3150.927 2220.816, 3165.836 2205.574, 3172.955 2189.687 C 3179.342 2175.433, 3179.002 2186.675, 3178.979 1990.627 C 3178.955 1785.456, 3179.002 1786.842, 3170.445 1739.500 C 3159.410 1678.448, 3141.865 1641.542, 3108.356 1608.899 C 3095.975 1596.838, 3085.017 1588.728, 3072.375 1582.268 C 3054.892 1573.335, 3036.134 1567.229, 3014.522 1563.435 C 2988.158 1558.808, 2949.114 1557.753, 2925 1561.018 M 2357 1571.572 C 2355.625 1571.801, 2351.421 1572.489, 2347.659 1573.101 C 2321.050 1577.430, 2297.421 1601.058, 2291.442 1629.315 C 2290.207 1635.154, 2290 1674.293, 2290 1902.443 C 2290 2145.352, 2290.144 2169.403, 2291.636 2176.127 C 2294.671 2189.799, 2300.565 2200.434, 2311.443 2211.866 C 2325.176 2226.298, 2341.945 2233.015, 2364.167 2232.985 C 2389.043 2232.951, 2407.516 2224.183, 2422.679 2205.211 C 2429.162 2197.100, 2433.430 2188.502, 2436.283 2177.811 L 2438.500 2169.500 2438.500 1903.500 C 2438.500 1616.985, 2438.756 1631.412, 2433.428 1617.817 C 2429.893 1608.796, 2424.398 1600.501, 2416.963 1592.962 C 2406.140 1581.988, 2395.413 1575.997, 2381.500 1573.157 C 2375.591 1571.951, 2360.561 1570.979, 2357 1571.572 M 1776 1697.465 C 1746.181 1701.834, 1723.780 1711.107, 1699.085 1729.303 C 1657.312 1760.084, 1629.014 1814.069, 1622.976 1874.500 C 1621.558 1888.684, 1621.562 1917.851, 1622.982 1931.124 C 1629.376 1990.860, 1656.596 2043.066, 1697.512 2074.068 C 1721.754 2092.436, 1744.502 2102.205, 1774.500 2107.132 C 1785.002 2108.857, 1819.007 2108.856, 1829.500 2107.131 C 1878.917 2099.004, 1918.637 2073.194, 1946.659 2031 C 1973.426 1990.696, 1986.234 1937.371, 1982.086 1883.500 C 1979.440 1849.136, 1972.225 1821.605, 1958.988 1795.368 C 1930.729 1739.352, 1885.633 1705.776, 1827.500 1697.466 C 1815.377 1695.733, 1787.821 1695.732, 1776 1697.465" stroke="none" fill="#1a120f" fill-rule="evenodd"/><path d="M 1443.667 515.667 C 1443.300 516.033, 1443 517.383, 1443 518.667 C 1443 520.480, 1442.451 521, 1440.535 521 C 1439.094 521, 1437.626 520.170, 1437 519 C 1436.308 517.706, 1434.906 517, 1433.032 517 C 1431.013 517, 1429.942 517.606, 1429.500 519 C 1428.818 521.147, 1423.664 521.884, 1422.500 520 C 1421.527 518.425, 1416.009 518.812, 1415.362 520.500 C 1415.012 521.412, 1413.498 522, 1411.500 522 C 1409.502 522, 1407.988 521.412, 1407.638 520.500 C 1406.809 518.338, 1402.355 518.655, 1400.718 520.993 C 1399.950 522.089, 1398.011 523.248, 1396.409 523.568 C 1393.848 524.080, 1393.355 523.779, 1392.335 521.075 C 1390.444 516.068, 1384 517.289, 1384 522.655 C 1384 524.482, 1383.289 525.028, 1380.250 525.537 C 1378.188 525.882, 1376.050 526.279, 1375.500 526.419 C 1374.950 526.559, 1373.959 525.397, 1373.298 523.837 C 1371.221 518.933, 1365.644 520.316, 1364.846 525.933 C 1364.601 527.657, 1363.626 528.598, 1361.500 529.165 C 1359.664 529.654, 1358.368 529.577, 1358.161 528.964 C 1357.583 527.261, 1354.925 525, 1353.500 525 C 1351.263 525, 1349 527.961, 1349 530.886 C 1349 533.027, 1348.245 533.989, 1345.563 535.268 C 1342.204 536.870, 1342.120 536.858, 1341.813 534.704 C 1341.559 532.912, 1340.846 532.500, 1338 532.500 L 1334.500 532.500 1334.201 537.670 C 1333.927 542.394, 1333.532 543.142, 1329.630 546.340 C 1326.599 548.823, 1324.944 549.577, 1323.929 548.935 C 1320.132 546.532, 1316.651 549.623, 1317.580 554.575 C 1318.083 557.257, 1317.626 558.883, 1315.357 562.473 C 1312.761 566.581, 1312.220 566.941, 1309.436 566.421 C 1304.870 565.566, 1303.604 567.674, 1304.478 574.674 C 1305.054 579.278, 1304.753 581.644, 1302.900 587.087 C 1300.618 593.788, 1300.599 593.809, 1297.329 593.279 C 1294.544 592.827, 1293.913 593.106, 1293.159 595.123 C 1292.271 597.497, 1293.054 606.885, 1294.775 614.511 C 1295.282 616.760, 1295.338 623.131, 1294.901 629.011 C 1294.014 640.960, 1295.364 663.818, 1297.618 675 C 1303.491 704.135, 1313.180 725.913, 1327.641 742.484 C 1350.068 768.183, 1383.261 780.983, 1427.500 780.991 C 1469.808 780.999, 1499.799 772.336, 1518.725 754.638 C 1529.521 744.543, 1536.359 733.287, 1541.288 717.500 C 1545.841 702.912, 1547.128 692.292, 1547.711 664.500 C 1548.335 634.768, 1547.367 620.061, 1543.085 594.199 C 1541.473 584.465, 1539.849 573.679, 1539.477 570.231 C 1538.708 563.118, 1536.728 561.005, 1532.800 563.107 C 1530.895 564.126, 1530.393 563.964, 1529.050 561.898 C 1528.198 560.586, 1525.177 556.758, 1522.339 553.391 C 1517.949 548.184, 1517.075 546.451, 1516.493 541.788 C 1515.623 534.825, 1514.926 533.764, 1511.492 534.170 C 1509.261 534.434, 1507.296 536.207, 1506.411 538.755 C 1506.363 538.896, 1504.454 537.996, 1502.170 536.755 C 1499.151 535.116, 1498.014 533.867, 1498.008 532.184 C 1497.988 526.438, 1492.681 523.762, 1489.711 528.002 C 1488.491 529.744, 1487.899 529.861, 1485.155 528.904 C 1482.501 527.979, 1482 527.296, 1482 524.602 C 1482 520.791, 1480.469 519, 1477.213 519 C 1475.470 519, 1474.515 519.824, 1473.674 522.054 C 1472.782 524.417, 1472.066 524.986, 1470.510 524.568 C 1469.405 524.270, 1467.938 524.021, 1467.250 524.014 C 1466.563 524.006, 1466 523.190, 1466 522.200 C 1466 518.024, 1459.948 516.360, 1458 520 C 1457.299 521.310, 1455.906 522, 1453.965 522 C 1451.538 522, 1451 521.583, 1451 519.700 C 1451 518.435, 1450.460 516.860, 1449.800 516.200 C 1448.506 514.906, 1444.753 514.580, 1443.667 515.667 M 2097.250 529.723 L 2094 530.127 2094 536.482 C 2094 544.690, 2093.439 546, 2089.928 546 C 2086.063 546, 2084.983 543.568, 2085.711 536.507 L 2086.313 530.678 2076.989 531.340 C 2071.861 531.704, 2067.494 532.173, 2067.285 532.381 C 2067.077 532.590, 2067.458 535.755, 2068.132 539.415 C 2069.207 545.246, 2069.161 546.267, 2067.764 547.665 C 2066.684 548.745, 2065.322 549.047, 2063.542 548.600 C 2060.629 547.869, 2060.412 547.455, 2059.545 541 C 2058.582 533.822, 2058.084 533.439, 2051.598 534.891 C 2048.538 535.575, 2045.835 536.457, 2045.593 536.850 C 2045.350 537.243, 2046.100 540.788, 2047.261 544.728 C 2049.753 553.192, 2048.896 557, 2044.500 557 C 2041.732 557, 2041.334 556.312, 2038.564 546.750 C 2037.647 543.587, 2036.453 541, 2035.909 541 C 2034.100 541, 2027.575 544.734, 2021.269 549.379 C 2015.412 553.692, 2015.098 554.127, 2016.044 556.616 C 2019.854 566.637, 2019.146 572, 2014.012 572 C 2011.492 572, 2010.952 571.489, 2010.053 568.250 C 2009.480 566.188, 2008.990 563.825, 2008.964 563 C 2008.856 559.584, 2001.417 570.295, 1995.420 582.500 C 1984.466 604.795, 1981.462 620, 1981.592 652.500 C 1981.676 673.617, 1981.906 676.524, 1984.408 688 C 1992.950 727.193, 2008.830 753.201, 2034 769.223 C 2051.091 780.103, 2069.770 786.485, 2093.595 789.586 C 2109.800 791.695, 2139.023 790.989, 2155 788.102 C 2198.171 780.301, 2221.122 758.408, 2230.551 716.032 C 2236.756 688.147, 2237.672 634.306, 2232.385 608.233 C 2227.808 585.656, 2217.667 566.864, 2203.646 554.974 L 2196.545 548.952 2194.873 551.168 C 2193.954 552.387, 2192.690 555.091, 2192.065 557.176 C 2190.717 561.675, 2187.938 563.573, 2185 562 C 2182.274 560.541, 2182.456 556.711, 2185.567 550.028 C 2187.938 544.933, 2187.996 544.470, 2186.405 543.307 C 2183.848 541.437, 2171.073 536.594, 2170.420 537.247 C 2170.108 537.559, 2169.548 540.893, 2169.176 544.657 C 2168.527 551.225, 2168.387 551.513, 2165.690 551.822 C 2160.837 552.379, 2159.714 550.496, 2160.503 543.124 C 2160.885 539.564, 2161.406 536.107, 2161.661 535.441 C 2162.130 534.220, 2157.948 532.974, 2147.395 531.189 L 2142.289 530.326 2142.395 535.913 C 2142.500 541.487, 2142.492 541.501, 2139.316 541.808 C 2135.649 542.164, 2134.615 540.813, 2133.528 534.247 C 2132.736 529.466, 2131.231 528.645, 2124.253 529.184 L 2120.166 529.500 2122.642 535.356 C 2125.010 540.958, 2125.042 541.296, 2123.364 543.150 C 2122.400 544.216, 2120.698 544.956, 2119.582 544.794 C 2117.144 544.441, 2113.351 538.036, 2112.461 532.769 L 2111.824 529 2106.162 529.160 C 2103.048 529.248, 2099.037 529.502, 2097.250 529.723 M 2648 531.133 C 2638.264 532.126, 2621.236 536.845, 2613.660 540.648 C 2599.523 547.746, 2590.161 556.804, 2578.062 575.090 C 2566.491 592.579, 2558 613.768, 2558 625.157 L 2558 628.993 2562.750 624.074 C 2565.363 621.368, 2568.699 618.856, 2570.165 618.490 C 2574.396 617.435, 2579.387 620.526, 2587.428 629.182 L 2594.787 637.103 2600.966 628.802 C 2610.105 616.524, 2618.848 609.969, 2622.283 612.819 C 2622.974 613.393, 2624.353 616.256, 2625.349 619.181 C 2627.217 624.671, 2631.711 632.079, 2633.539 632.683 C 2634.111 632.872, 2635.107 631.108, 2635.753 628.763 C 2637.510 622.391, 2640.462 618.297, 2645.694 614.979 C 2651.069 611.571, 2656.412 611.031, 2657.864 613.750 C 2658.377 614.712, 2659.121 618.094, 2659.516 621.264 C 2660.400 628.364, 2662.984 632, 2667.145 632 C 2670.217 632, 2674.333 629.894, 2686.352 622.173 C 2694.542 616.912, 2697.274 617.250, 2698.448 623.671 C 2700.519 635, 2706.925 634.766, 2718.283 622.946 C 2723.912 617.087, 2724.400 617.352, 2732.272 630.547 L 2735.044 635.194 2741.886 628.186 C 2748.401 621.514, 2755.096 617, 2758.476 617 C 2759.332 617, 2760.745 618.688, 2761.615 620.750 C 2764.452 627.471, 2767.022 632.452, 2768.956 634.979 L 2770.854 637.458 2777.418 631.154 C 2784.609 624.249, 2786.564 623.800, 2788.945 628.507 C 2789.778 630.153, 2791.066 632.550, 2791.807 633.834 L 2793.156 636.167 2799.328 630.248 C 2802.723 626.992, 2806.541 623.773, 2807.814 623.095 C 2810.625 621.596, 2812.185 622.631, 2815.102 627.929 L 2817.068 631.500 2816.434 623.500 C 2813.322 584.218, 2799.850 563.286, 2767.876 548.055 C 2762.169 545.336, 2753.505 541.960, 2748.623 540.552 C 2719.488 532.148, 2677.015 528.173, 2648 531.133 M 2494.453 584.171 C 2496.545 593.349, 2496.954 596.256, 2496.976 602.091 C 2497.009 611.023, 2494.933 617.265, 2489.974 623.146 C 2485.026 629.014, 2484.991 628.937, 2495.971 636.254 C 2505.350 642.505, 2509 645.851, 2509 648.200 C 2509 649.205, 2505.406 654.183, 2501.014 659.263 C 2496.622 664.343, 2493.022 669, 2493.014 669.610 C 2493.006 670.226, 2495.497 670.978, 2498.603 671.298 C 2507.158 672.181, 2507.882 673.279, 2508.217 685.876 L 2508.500 696.500 2511.419 696.833 C 2516.299 697.389, 2522.777 694.949, 2527.532 690.763 C 2534.535 684.599, 2539.744 672.918, 2546.538 648.143 L 2549.927 635.785 2544.214 627.167 C 2533.754 611.390, 2513.825 592.478, 2499.711 584.935 C 2493.955 581.859, 2493.925 581.854, 2494.453 584.171 M 2882.220 598.567 C 2867.488 605.114, 2848.418 620.640, 2835.979 636.215 L 2828.220 645.930 2831.512 661.912 C 2836.423 685.756, 2839.661 694.294, 2846.785 702.189 C 2851.181 707.060, 2855.324 709, 2861.332 709 L 2865.727 709 2866.252 699.750 C 2867.010 686.401, 2867.210 686.125, 2876.921 685.082 C 2879.903 684.762, 2882.483 684.050, 2882.654 683.500 C 2882.826 682.950, 2879.599 678.020, 2875.483 672.545 C 2871.367 667.070, 2868 661.986, 2868 661.248 C 2868 659.071, 2872.730 655.309, 2881.430 650.567 C 2885.910 648.125, 2890.404 645.211, 2891.417 644.092 C 2893.218 642.101, 2893.188 641.978, 2890.004 638.352 C 2888.214 636.313, 2886.048 633.038, 2885.190 631.073 C 2882.997 626.048, 2883.276 614.233, 2885.818 604.536 C 2886.966 600.156, 2887.814 596.493, 2887.703 596.396 C 2887.591 596.300, 2885.124 597.277, 2882.220 598.567 M 2647.083 623.763 C 2643.941 626.905, 2642.014 632.375, 2642.006 638.179 C 2642.001 641.503, 2640.011 645, 2638.124 645 C 2637.721 645, 2635.297 643.672, 2632.737 642.048 C 2627.677 638.839, 2622.849 632.931, 2619.830 626.256 C 2617.953 622.103, 2617.860 622.045, 2615.526 623.575 C 2614.213 624.435, 2610.021 629.287, 2606.210 634.357 C 2598.526 644.581, 2596.348 647, 2594.831 647 C 2594.267 647, 2589.393 642.725, 2584 637.500 C 2578.277 631.955, 2573.365 628, 2572.201 628 C 2569.413 628, 2564.256 634.216, 2563.299 638.729 C 2562.860 640.803, 2562.541 651.950, 2562.591 663.500 C 2562.672 682.112, 2562.982 685.933, 2565.317 697.102 C 2568.091 710.372, 2572.534 724.136, 2576.743 732.500 C 2598.045 774.834, 2642.676 797, 2706.613 797 C 2759.548 797, 2789.863 777.687, 2803.931 735 C 2808.989 719.652, 2814.475 683.631, 2815.665 657.956 L 2816.292 644.412 2812.455 638.956 C 2810.344 635.955, 2808.476 633.311, 2808.305 633.079 C 2807.736 632.315, 2802.838 637.426, 2799.755 642 C 2793.956 650.604, 2792.169 650.504, 2786.968 641.289 L 2783.719 635.532 2777.985 641.766 C 2774.831 645.195, 2771.550 648, 2770.693 648 C 2768.620 648, 2762.613 640.554, 2758.550 632.950 L 2755.273 626.817 2750.454 632.399 C 2739.130 645.516, 2731.838 646.405, 2725.420 635.454 C 2723.985 633.004, 2722.487 631, 2722.092 631 C 2721.697 631, 2720.052 632.391, 2718.437 634.092 C 2714.311 638.434, 2708.829 641, 2703.675 641 C 2698.251 641, 2694.833 638.538, 2692.637 633.050 L 2691.042 629.063 2682.906 634.242 C 2675.802 638.763, 2673.987 639.470, 2668.585 639.814 C 2663.013 640.168, 2662.079 639.938, 2659.164 637.485 C 2655.385 634.305, 2653.445 630.890, 2652.472 625.704 C 2651.534 620.703, 2650.512 620.335, 2647.083 623.763 M 1487.025 643.752 C 1482.093 646.233, 1480.179 651.467, 1482.452 656.258 C 1485.244 662.140, 1492.735 663.883, 1497.462 659.750 C 1503.179 654.751, 1502.186 646.229, 1495.565 643.463 C 1491.197 641.638, 1491.229 641.636, 1487.025 643.752 M 2154.383 650.534 C 2148.219 653.672, 2147.060 661.906, 2152.077 666.923 C 2161.458 676.304, 2176.125 662.826, 2167.250 652.981 C 2163.875 649.237, 2158.820 648.276, 2154.383 650.534 M 1354.923 653.923 C 1350.506 658.340, 1351.134 664.988, 1356.367 669.228 C 1363.621 675.103, 1374.255 665.234, 1369.883 656.684 C 1366.690 650.441, 1359.696 649.150, 1354.923 653.923 M 2062.750 654.080 C 2060.434 655.429, 2058 660.257, 2058 663.500 C 2058 666.873, 2060.501 671.663, 2062.945 672.970 C 2064.003 673.537, 2066.508 674, 2068.511 674 C 2078.068 674, 2081.494 661.140, 2073.633 654.772 C 2071.277 652.863, 2065.473 652.494, 2062.750 654.080 M 2653.357 663.954 C 2646.982 666.639, 2646.118 677.269, 2651.913 681.718 C 2653.868 683.219, 2659.463 683.358, 2662.055 681.970 C 2665.045 680.371, 2667.267 675.238, 2666.573 671.538 C 2665.472 665.666, 2658.623 661.736, 2653.357 663.954 M 2728.106 670.901 C 2724.793 673.996, 2723.919 679.112, 2726.030 683.055 C 2727.241 685.318, 2732.053 688, 2734.903 688 C 2744.816 688, 2748.459 673.179, 2739.469 669.422 C 2734.403 667.306, 2731.558 667.676, 2728.106 670.901 M 1509.200 692.200 C 1508.540 692.860, 1507.995 694.997, 1507.988 696.950 C 1507.954 707.025, 1500.892 722.611, 1492.271 731.638 C 1482.567 741.798, 1470.676 748.641, 1454.040 753.639 C 1446.917 755.779, 1442.845 756.286, 1429.500 756.696 C 1415.754 757.118, 1412.175 756.894, 1404.095 755.104 C 1389.978 751.977, 1379.068 746.298, 1370.481 737.605 C 1362.063 729.084, 1358.421 722.188, 1356.361 710.872 C 1354.614 701.277, 1353.943 699.629, 1351.595 699.167 C 1348.121 698.484, 1346.849 700.932, 1347.571 706.915 C 1350.956 735, 1369.345 753.966, 1401.500 762.537 C 1410.942 765.054, 1434.563 765.610, 1445.354 763.570 C 1485.267 756.025, 1511.834 732.027, 1515.482 700.224 C 1515.989 695.808, 1515.840 693.512, 1514.979 692.474 C 1513.499 690.691, 1510.835 690.565, 1509.200 692.200 M 1962.931 697.367 C 1960.419 698.044, 1952.544 701.786, 1945.431 705.682 C 1938.319 709.577, 1925.631 716.418, 1917.235 720.884 C 1881.982 739.635, 1865.814 750.338, 1835.249 775.161 C 1802.107 802.077, 1797 807.190, 1797 813.454 C 1797 820.941, 1809.073 834.295, 1830.843 850.887 C 1842.377 859.677, 1851.112 867.518, 1864.014 880.660 C 1884.454 901.479, 1908.671 927.176, 1921.662 941.829 C 1932.099 953.600, 1937.366 957.861, 1942.513 958.696 C 1945.627 959.201, 1947.003 958.666, 1952.804 954.688 C 1969.113 943.507, 1995.195 910.480, 2012.576 879 C 2024.798 856.865, 2051.629 798.097, 2052.189 792.237 C 2052.493 789.052, 2052.318 788.895, 2044.802 785.614 C 2028.352 778.433, 2008.777 762.430, 1999.295 748.411 C 1990.657 735.639, 1983.418 719.925, 1979.009 704.374 C 1977.144 697.793, 1976.751 697.200, 1973.870 696.624 C 1969.770 695.804, 1968.377 695.899, 1962.931 697.367 M 2194.245 698.250 C 2193.696 698.938, 2192.716 702.601, 2192.069 706.390 C 2188.814 725.454, 2176.463 740.767, 2156.429 750.581 C 2118.902 768.963, 2069.073 761.663, 2049.431 734.905 C 2044.100 727.643, 2040.154 717.508, 2039.369 709.058 C 2038.507 699.786, 2035.562 696.581, 2031.571 700.571 C 2029.601 702.542, 2029.591 706.027, 2031.531 715.792 C 2039.552 756.177, 2087.423 778.364, 2139.807 765.975 C 2167.202 759.496, 2188.567 742.711, 2196.890 721.129 C 2200.528 711.696, 2202.368 701.556, 2200.930 698.870 C 2199.794 696.747, 2195.747 696.372, 2194.245 698.250 M 2609.529 700.614 C 2607.563 702.580, 2607.541 711.171, 2609.479 720.315 C 2614.626 744.609, 2633.521 762.225, 2663.500 770.682 C 2676.456 774.337, 2699.201 775.005, 2713.639 772.154 C 2747.327 765.503, 2770.285 745.406, 2776 717.566 C 2777.106 712.177, 2777.053 711.512, 2775.418 710.316 C 2774.428 709.592, 2773.286 709, 2772.880 709 C 2771.031 709, 2769.046 712.461, 2767.997 717.513 C 2766.108 726.615, 2760.432 736.646, 2753.034 743.957 C 2737.940 758.876, 2717.341 766.347, 2691.500 766.275 C 2666.357 766.205, 2645.997 758.930, 2631.959 745 C 2620.939 734.065, 2616.030 722.561, 2615.985 707.566 C 2615.976 704.780, 2615.639 702.017, 2615.235 701.427 C 2613.884 699.455, 2611.087 699.056, 2609.529 700.614 M 1645.253 739.104 C 1638.610 742.392, 1630.180 754.178, 1628.518 762.500 C 1628.126 764.462, 1628.583 763.879, 1629.839 760.813 C 1630.895 758.236, 1632.733 754.550, 1633.924 752.623 C 1637.256 747.231, 1646.445 739.344, 1650.712 738.212 C 1653.677 737.425, 1653.957 737.184, 1652 737.104 C 1650.625 737.048, 1647.589 737.948, 1645.253 739.104 M 1651.195 748.132 C 1642.244 752.563, 1635.547 765.537, 1636.190 777.201 C 1636.487 782.583, 1637.032 784.405, 1638.954 786.451 C 1640.271 787.853, 1641.915 789, 1642.607 789 C 1644.278 789, 1650.189 781.629, 1653.032 776 C 1655.595 770.927, 1661 752.935, 1661 749.478 C 1661 745.530, 1657.440 745.041, 1651.195 748.132 M 1339.368 775.750 C 1336.764 779.462, 1330.090 788.575, 1324.536 796 C 1311.229 813.790, 1293.766 839.976, 1286.684 852.761 C 1283.558 858.404, 1281 863.225, 1281 863.474 C 1281 863.722, 1275.393 875.550, 1268.541 889.758 C 1251.961 924.132, 1250.256 930.676, 1256.373 936.445 C 1263.440 943.110, 1275.322 947.413, 1302 952.968 C 1309.975 954.629, 1319.200 956.837, 1322.500 957.876 C 1337.488 962.592, 1401.175 987.110, 1422 996.181 C 1433.455 1001.170, 1441.259 1002.905, 1446.420 1001.609 C 1455.912 999.227, 1468.359 961.060, 1473.523 918.500 C 1475.540 901.874, 1476.507 848.521, 1475.229 824.345 C 1474.123 803.409, 1473.013 799.931, 1464.816 791.725 C 1460.667 787.572, 1459.685 787.044, 1457.273 787.671 C 1455.748 788.068, 1443.475 788.417, 1430 788.446 C 1410.402 788.489, 1403.399 788.129, 1395 786.646 C 1381.181 784.205, 1364.550 778.836, 1353.946 773.392 C 1349.241 770.976, 1345.102 769, 1344.747 769 C 1344.392 769, 1341.971 772.038, 1339.368 775.750 M 2591 781.699 C 2549.646 818.082, 2530.578 837.999, 2506.184 870.293 C 2491.615 889.581, 2490.276 892.539, 2493.982 897.250 C 2497.575 901.817, 2504.097 900.566, 2510.059 894.167 C 2512.620 891.418, 2515.605 891.393, 2517.057 894.107 C 2518.009 895.886, 2517.687 896.908, 2514.990 900.664 C 2511.014 906.200, 2510.099 911.696, 2512.535 915.414 C 2514.789 918.853, 2518.959 921, 2523.385 921 C 2528.563 921, 2531.057 919.726, 2536.162 914.474 C 2540.130 910.391, 2541.157 909.823, 2543.495 910.409 C 2546.439 911.148, 2546.468 911.629, 2544.094 920.500 C 2541.015 932.009, 2548.934 944, 2559.613 944 C 2563.029 944, 2564.679 943.343, 2567.516 940.852 C 2569.489 939.120, 2571.766 936.420, 2572.577 934.852 C 2574.228 931.658, 2577.919 930.993, 2580.010 933.513 C 2581.026 934.736, 2580.937 936.071, 2579.543 940.502 C 2577.517 946.943, 2578.104 952.390, 2581.334 957.135 C 2588.437 967.567, 2600.343 967.357, 2606.224 956.697 C 2608.139 953.224, 2609.053 952.500, 2611.520 952.500 L 2614.500 952.500 2614.178 961.266 C 2613.995 966.238, 2614.365 971.576, 2615.033 973.601 C 2616.767 978.853, 2621.547 983.824, 2625.593 984.583 C 2630.190 985.446, 2633.799 983.799, 2639.058 978.441 C 2646.261 971.102, 2649.762 972.881, 2648.216 983.094 C 2646.821 992.309, 2648.511 998.178, 2653.265 1000.637 C 2660.539 1004.398, 2667.125 1001.611, 2673.673 992 C 2687.751 971.335, 2701.060 931.282, 2714.212 870 C 2716.985 857.075, 2719.820 843.962, 2720.511 840.859 C 2722.747 830.817, 2718.713 818.305, 2710.360 809.372 L 2706.500 805.244 2690 804.168 C 2656.376 801.977, 2628.250 793.627, 2607.072 779.548 C 2603.310 777.047, 2599.842 775.023, 2599.366 775.050 C 2598.889 775.078, 2595.125 778.070, 2591 781.699 M 1795.728 847.319 C 1785.885 856.074, 1778.821 864.584, 1775.401 871.806 C 1772.100 878.778, 1771.890 889.703, 1774.927 896.567 C 1777.409 902.178, 1788.668 919.499, 1794.435 926.580 C 1807.094 942.119, 1814.599 944.320, 1831.959 937.585 C 1842.881 933.348, 1845.360 933.287, 1845.816 937.241 C 1846.052 939.297, 1844.624 942.057, 1840.103 948.279 C 1826.714 966.707, 1827.384 970.922, 1847.308 993.586 C 1867.347 1016.382, 1877.518 1023.972, 1886.171 1022.589 C 1894.799 1021.209, 1903.865 1015.057, 1919.337 1000.084 C 1932.139 987.694, 1937.919 977.711, 1936.541 970.367 C 1936.029 967.640, 1933.760 964.829, 1926.297 957.682 C 1921.025 952.632, 1908.062 939.050, 1897.491 927.500 C 1869.924 897.381, 1847.246 874.684, 1833.924 863.885 C 1827.557 858.723, 1818.502 851.237, 1813.802 847.250 C 1809.101 843.263, 1804.963 840, 1804.606 840 C 1804.248 840, 1800.253 843.293, 1795.728 847.319 M 1682.389 871.905 C 1669.461 879.788, 1666.763 908.864, 1678.445 914.407 C 1680.292 915.283, 1682.016 916, 1682.278 916 C 1683.099 916, 1686.911 906.436, 1688.520 900.339 C 1690.801 891.701, 1691.726 872.073, 1689.908 870.922 C 1687.765 869.565, 1685.805 869.821, 1682.389 871.905 M 2403.859 889.158 C 2399.692 891.574, 2396.383 896.883, 2394.398 904.339 C 2391.731 914.356, 2393.399 924.599, 2398.533 929.733 C 2403.449 934.649, 2406.245 934.182, 2408.904 928.001 C 2412.910 918.689, 2414.633 891.776, 2411.429 888.571 C 2409.381 886.524, 2408.249 886.612, 2403.859 889.158 M 2479.088 906.962 C 2473.507 915.228, 2471.114 920.723, 2471.044 925.434 C 2471.010 927.676, 2472.181 929.506, 2476.008 933.195 C 2480.049 937.090, 2485.987 940.459, 2506.758 950.645 C 2520.916 957.588, 2535.650 965.085, 2539.500 967.305 C 2550.055 973.391, 2582.695 994.496, 2598.500 1005.454 C 2606.200 1010.793, 2618.329 1018.791, 2625.454 1023.226 C 2644.902 1035.335, 2648.014 1035.006, 2658.250 1019.756 C 2661.412 1015.045, 2664 1010.923, 2664 1010.595 C 2664 1010.268, 2661.779 1010, 2659.065 1010 C 2656.351 1010, 2652.863 1009.521, 2651.315 1008.936 C 2645.534 1006.752, 2640 999.224, 2640 993.545 C 2640 990.178, 2639.096 989.911, 2634.916 992.043 C 2632.656 993.196, 2629.071 994, 2626.190 994 C 2617.571 994, 2609.333 986.022, 2606.758 975.183 C 2605.800 971.151, 2605.178 970.121, 2604.010 970.634 C 2599.663 972.543, 2593.292 973.196, 2589.405 972.130 C 2580.305 969.634, 2571.876 961.147, 2570.519 953.114 L 2569.871 949.280 2566.186 950.596 C 2561.347 952.324, 2559.387 952.304, 2553.194 950.465 C 2545.601 948.210, 2538.521 940.844, 2536.312 932.900 C 2534.990 928.142, 2534.328 927.062, 2533.075 927.614 C 2532.209 927.995, 2528.475 928.513, 2524.778 928.765 C 2518.852 929.168, 2517.523 928.911, 2513.562 926.589 C 2507.563 923.073, 2503.873 918.056, 2503.255 912.572 C 2502.914 909.542, 2502.357 908.309, 2501.484 908.645 C 2498.673 909.723, 2491.432 906.721, 2487.902 903.014 L 2484.304 899.236 2479.088 906.962 M 1260.071 953.123 C 1257.639 957.123, 1255.075 970.715, 1254.341 983.500 C 1253.845 992.141, 1254.066 994.384, 1255.969 1000 C 1260.032 1011.995, 1265.189 1016.417, 1282.545 1022.795 C 1297.826 1028.409, 1308.617 1031, 1316.721 1031 C 1326.751 1031, 1330.999 1028.048, 1338.521 1015.849 C 1344.316 1006.452, 1345.506 1005.044, 1347.679 1005.015 C 1350.844 1004.974, 1351.728 1007.942, 1352.200 1020.189 C 1352.748 1034.433, 1354.274 1038.853, 1359.906 1042.515 C 1364.078 1045.227, 1366.404 1045.887, 1386.545 1050.080 C 1403.374 1053.583, 1420.714 1054.910, 1426.163 1053.111 C 1435.205 1050.127, 1440.100 1040.743, 1444.407 1018.141 L 1445.759 1011.045 1442.129 1010.493 C 1436.240 1009.597, 1417.786 1003.229, 1401.075 996.327 C 1354.168 976.952, 1327.852 967.731, 1298.539 960.398 C 1286.418 957.365, 1273.436 953.785, 1269.690 952.442 C 1265.945 951.099, 1262.676 950, 1262.426 950 C 1262.175 950, 1261.116 951.405, 1260.071 953.123 M 2355.893 968.497 C 2351.173 971.063, 2346.733 979.442, 2344.984 989.087 C 2343.509 997.220, 2345.135 1005.288, 2349.033 1009.187 C 2354.183 1014.337, 2355.743 1013.202, 2360.282 1001 C 2365.750 986.301, 2367.820 976.009, 2366.509 970.040 C 2365.911 967.316, 2365.459 967.004, 2362.171 967.040 C 2360.152 967.062, 2357.327 967.718, 2355.893 968.497 M 1099.397 1048.516 C 1097.203 1051.866, 1097.920 1059.117, 1101.069 1065.423 C 1105.989 1075.275, 1118.843 1084.002, 1126.356 1082.593 C 1132.100 1081.515, 1132.651 1079.870, 1129.484 1073.254 C 1127.483 1069.072, 1123.750 1064.563, 1115.823 1056.750 C 1109.529 1050.547, 1104.097 1046, 1102.981 1046 C 1101.917 1046, 1100.304 1047.132, 1099.397 1048.516 M 1176.289 1058.800 C 1175.623 1059.224, 1174.367 1061.270, 1173.500 1063.347 C 1169.883 1072.002, 1176.928 1088.953, 1186.877 1095.537 C 1190.073 1097.653, 1191.727 1098.058, 1196.134 1097.806 C 1201.435 1097.504, 1201.497 1097.463, 1201.216 1094.500 C 1200.899 1091.157, 1197.449 1081.881, 1195.056 1077.936 C 1190.825 1070.965, 1180.406 1058.002, 1179.044 1058.015 C 1178.195 1058.024, 1176.955 1058.377, 1176.289 1058.800 M 534.500 2528.024 C 473.121 2533.447, 419.954 2561.565, 381.382 2609 C 364.811 2629.378, 351.241 2656.046, 343.116 2684.196 C 332.177 2722.099, 331.933 2774.661, 342.514 2813.618 C 348.484 2835.596, 359.501 2859.647, 372.166 2878.351 C 403.393 2924.467, 452.551 2956.588, 508.638 2967.524 C 548.906 2975.375, 589.175 2972.420, 629.500 2958.653 C 649.301 2951.893, 671.888 2940.806, 679.060 2934.327 C 688.203 2926.067, 688.135 2911.115, 678.907 2900.631 C 674.095 2895.164, 667.746 2892.502, 659.772 2892.607 C 654.623 2892.674, 652.202 2893.604, 635.772 2901.827 C 606.738 2916.358, 583.640 2922.030, 553.757 2921.968 C 523.985 2921.906, 500.182 2916.434, 475.563 2903.990 C 460.140 2896.195, 449.869 2888.769, 437.538 2876.500 C 425.045 2864.069, 416.677 2852.563, 408.626 2836.748 C 394.531 2809.058, 388.883 2783.943, 388.893 2749 C 388.902 2717.433, 393.394 2695.154, 404.875 2669.733 C 415.008 2647.299, 433.848 2623.712, 452.895 2609.618 C 487.774 2583.807, 531.076 2572.844, 576.091 2578.428 C 597.439 2581.077, 613.574 2586.311, 638.555 2598.693 C 660.003 2609.323, 668.160 2609.749, 676.946 2600.697 C 682.748 2594.719, 685.320 2588.795, 685.280 2581.500 C 685.216 2569.956, 680.958 2564.622, 664.637 2555.634 C 639.722 2541.913, 615.519 2533.906, 586 2529.618 C 572.570 2527.668, 547.362 2526.887, 534.500 2528.024 M 3018.909 2541.503 C 3011.957 2543.721, 3005.363 2550.040, 3003.518 2556.250 C 3001.763 2562.161, 3001.531 2574.713, 3003.046 2581.779 C 3004.290 2587.582, 3008.693 2593.292, 3014.014 2596.007 C 3020.031 2599.077, 3030.973 2600.396, 3039.677 2599.101 C 3049.342 2597.664, 3056.219 2594.137, 3059.745 2588.810 C 3062.331 2584.904, 3062.522 2583.859, 3062.853 2571.738 C 3063.339 2553.920, 3060.918 2548.147, 3050.709 2542.790 C 3047.201 2540.949, 3044.585 2540.536, 3035 2540.309 C 3026.989 2540.120, 3022.107 2540.482, 3018.909 2541.503 M 3197.954 2564.306 C 3190.548 2566.393, 3184.572 2571.782, 3181.254 2579.365 C 3180.334 2581.467, 3180 2590.847, 3180 2614.615 L 3180 2647 3159.182 2647 C 3134.919 2647, 3130.475 2647.865, 3124.586 2653.735 C 3119.037 2659.265, 3117.633 2662.553, 3117.636 2670 C 3117.641 2679.764, 3122.055 2686.904, 3131 2691.615 C 3134.033 2693.213, 3137.529 2693.508, 3157.216 2693.824 L 3179.933 2694.189 3180.240 2803.345 L 3180.548 2912.500 3182.841 2920 C 3186.378 2931.567, 3190.734 2939.469, 3197.755 2947.053 C 3205.830 2955.775, 3216.262 2961.306, 3229 2963.622 C 3241.056 2965.813, 3262.706 2965.786, 3271 2963.570 C 3282.408 2960.521, 3291.744 2954.145, 3295.699 2946.703 C 3298.164 2942.066, 3297.866 2933.419, 3295.040 2927.582 C 3290.551 2918.310, 3281.952 2915.530, 3270.016 2919.495 C 3259.137 2923.108, 3244.794 2920.515, 3238.250 2913.752 C 3236.519 2911.964, 3234.067 2908.250, 3232.801 2905.500 L 3230.500 2900.500 3230.227 2797.326 L 3229.955 2694.153 3260.727 2693.812 C 3294.662 2693.435, 3295.417 2693.309, 3301.822 2686.930 C 3306.059 2682.711, 3307.634 2679.623, 3308.502 2673.833 C 3309.488 2667.262, 3306.992 2659.329, 3302.477 2654.679 C 3295.439 2647.432, 3296.006 2647.535, 3261.250 2647.186 L 3230 2646.871 3230 2616.095 C 3230 2582.590, 3229.575 2579.242, 3224.472 2572.552 C 3218.673 2564.950, 3207.737 2561.549, 3197.954 2564.306 M 889 2637.655 C 851.950 2639.673, 819.775 2652.735, 792.242 2676.936 C 773.809 2693.137, 758.270 2715.699, 748.909 2739.851 C 736.608 2771.588, 734.299 2815.352, 743.075 2850.462 C 757.297 2907.365, 801.514 2952.777, 856 2966.438 C 872.475 2970.569, 879.774 2971.417, 898.500 2971.379 C 912.578 2971.349, 919.045 2970.869, 928.180 2969.175 C 958.670 2963.519, 984.304 2950.708, 1006.006 2930.279 C 1041.209 2897.140, 1058.037 2856.502, 1057.982 2804.757 C 1057.962 2786.574, 1056.445 2772.606, 1052.987 2758.779 C 1040.237 2707.797, 1004.251 2666.114, 957.462 2648.128 C 937.038 2640.277, 911.785 2636.414, 889 2637.655 M 2794.500 2637.651 C 2772.141 2639.076, 2748.398 2647.364, 2728.796 2660.586 C 2719.918 2666.574, 2704.577 2681.049, 2697.702 2689.923 L 2693.500 2695.346 2692.909 2679.923 C 2692.241 2662.470, 2691.403 2659.563, 2685.066 2652.687 C 2675.948 2642.795, 2658.251 2643.295, 2648.871 2653.709 C 2642.083 2661.245, 2642.500 2651.273, 2642.500 2806 L 2642.500 2946.500 2644.855 2951.238 C 2647.529 2956.620, 2652.680 2961.549, 2657.927 2963.747 C 2662.123 2965.504, 2672.263 2965.682, 2676.394 2964.070 C 2681.687 2962.004, 2686.844 2957.018, 2689.697 2951.208 L 2692.500 2945.500 2693 2849 L 2693.500 2752.500 2696.308 2744.500 C 2700.146 2733.564, 2705.587 2724.715, 2714.039 2715.666 C 2729.963 2698.614, 2747.968 2689.008, 2771.610 2684.950 C 2781.491 2683.254, 2803.419 2684.217, 2812.500 2686.745 C 2836.217 2693.348, 2851.716 2709.818, 2857.991 2735.088 C 2859.140 2739.715, 2860.377 2744.400, 2860.739 2745.500 C 2861.102 2746.600, 2861.646 2792.275, 2861.949 2847 L 2862.500 2946.500 2865.449 2951.824 C 2868.517 2957.362, 2873.642 2962.132, 2878.606 2964.070 C 2880.198 2964.691, 2884.279 2965.210, 2887.676 2965.224 C 2897.962 2965.267, 2904.834 2960.829, 2910.298 2950.616 L 2912.500 2946.500 2912.811 2860 C 2913.152 2765.097, 2912.483 2744.093, 2908.497 2724.500 C 2902.573 2695.387, 2894.153 2678.820, 2877.110 2662.743 C 2866.685 2652.908, 2858.602 2648.135, 2844.671 2643.587 C 2831.363 2639.243, 2809.715 2636.682, 2794.500 2637.651 M 1282 2640.695 C 1273.545 2641.172, 1259.892 2643.816, 1251.967 2646.511 C 1242.492 2649.734, 1227.600 2657.649, 1217.978 2664.577 C 1210.536 2669.936, 1194.424 2685.616, 1188.773 2693 L 1186.094 2696.500 1186.047 2682.468 C 1185.992 2666.179, 1184.688 2659.919, 1180.155 2654.196 C 1175.637 2648.492, 1169.599 2645.811, 1161.237 2645.798 C 1150.471 2645.781, 1144.137 2649.345, 1138.994 2658.313 L 1136.019 2663.500 1136.031 2805 C 1136.043 2940.868, 1136.118 2946.663, 1137.906 2950.601 C 1140.255 2955.772, 1145.959 2961.527, 1150.784 2963.593 C 1156.065 2965.854, 1165.635 2965.698, 1171.146 2963.260 C 1176.694 2960.805, 1182.670 2953.746, 1184.585 2947.385 C 1185.760 2943.481, 1186 2927.439, 1186 2852.929 C 1186 2756.033, 1186.038 2755.250, 1191.351 2742.175 C 1202.706 2714.230, 1230.797 2692.619, 1261.692 2688.061 C 1282.803 2684.946, 1303.996 2688.673, 1317.222 2697.826 C 1330.435 2706.970, 1339.783 2723.087, 1344.233 2744.396 C 1344.920 2747.687, 1345.512 2784.501, 1345.899 2848 L 1346.500 2946.500 1349.449 2951.824 C 1352.514 2957.357, 1357.632 2962.123, 1362.606 2964.076 C 1367.425 2965.969, 1378.144 2965.477, 1382.695 2963.155 C 1387.342 2960.785, 1392.268 2955.495, 1394.747 2950.213 C 1396.352 2946.792, 1396.534 2939.021, 1397.055 2851.500 C 1397.480 2780.148, 1397.931 2755.380, 1398.869 2752 C 1400.779 2745.111, 1408.292 2729.873, 1412.761 2723.824 C 1432.362 2697.291, 1468.555 2683, 1503.398 2688.037 C 1529.505 2691.810, 1548.283 2708.774, 1555.936 2735.500 C 1560.357 2750.937, 1560.357 2750.940, 1560.942 2851.500 C 1561.564 2958.473, 1561.013 2950.810, 1568.621 2958.338 C 1573.775 2963.438, 1578.143 2965.141, 1586.117 2965.160 C 1596.781 2965.186, 1606.204 2958.718, 1609.471 2949.131 C 1611.696 2942.602, 1611.764 2761.129, 1609.548 2744.436 C 1605.683 2715.316, 1598.367 2693.887, 1587.070 2678.595 C 1581.850 2671.529, 1569.717 2659.480, 1564.500 2656.181 C 1547.501 2645.432, 1528.957 2640.761, 1503.508 2640.820 C 1476.758 2640.881, 1456.094 2647.383, 1430.500 2663.794 C 1414.897 2673.798, 1401.758 2686.394, 1392.877 2699.861 C 1388.974 2705.780, 1387.894 2706.858, 1387.366 2705.361 C 1385.529 2700.157, 1379.894 2688.739, 1376.698 2683.743 C 1372.181 2676.680, 1360.211 2663.981, 1353.127 2658.734 C 1347.542 2654.598, 1335.013 2648.369, 1326.678 2645.586 C 1316.698 2642.252, 1295.510 2639.933, 1282 2640.695 M 1851 2641.049 C 1829.262 2643.017, 1806.722 2651.959, 1788.500 2665.842 C 1780.940 2671.602, 1766.576 2685.975, 1761.991 2692.368 L 1758.500 2697.235 1758 2679.868 C 1757.441 2660.448, 1756.780 2658.062, 1750.217 2651.788 C 1745.663 2647.434, 1740.382 2645.639, 1732.500 2645.768 C 1722.609 2645.930, 1715.533 2650.363, 1710.670 2659.447 L 1708.500 2663.500 1708.233 2802.935 C 1707.937 2957.625, 1707.566 2948.628, 1714.571 2956.811 C 1719.758 2962.872, 1724.831 2965.192, 1732.899 2965.195 C 1740.824 2965.199, 1745.192 2963.481, 1750.346 2958.338 C 1758.077 2950.622, 1757.432 2959.353, 1758.096 2853.500 C 1758.746 2749.922, 1758.433 2755.288, 1764.682 2740.429 C 1775.920 2713.705, 1803.099 2692.847, 1832.500 2688.381 C 1874.726 2681.968, 1903.303 2697.820, 1913.838 2733.500 C 1918.304 2748.626, 1918.338 2749.400, 1918.931 2850.500 L 1919.500 2947.500 1921.662 2951.500 C 1926.561 2960.561, 1934.080 2965.176, 1943.942 2965.176 C 1952.005 2965.176, 1956.464 2963.469, 1961.467 2958.467 C 1968.954 2950.979, 1968.434 2958.151, 1969.082 2853.500 C 1969.585 2772.282, 1969.878 2758.752, 1971.234 2754 C 1979.058 2726.597, 1993.191 2709.479, 2018.500 2696.751 C 2041.967 2684.950, 2075.706 2683.736, 2095.920 2693.967 C 2114.233 2703.235, 2125.787 2720.384, 2131.235 2746.383 C 2131.930 2749.700, 2132.517 2785.798, 2132.903 2849 L 2133.500 2946.500 2135.756 2950.722 C 2141.261 2961.025, 2147.868 2965.208, 2158.676 2965.235 C 2166.493 2965.254, 2172.799 2962.352, 2177.315 2956.656 C 2183.900 2948.351, 2183.470 2954.650, 2183.812 2861.500 C 2184.139 2772.357, 2183.464 2748.612, 2180.114 2731.358 C 2174.536 2702.633, 2166.448 2685.045, 2151.544 2669.235 C 2134.483 2651.136, 2115.977 2643.097, 2086.666 2641.053 C 2055.452 2638.876, 2029.375 2646.194, 2000.947 2665.110 C 1988.872 2673.144, 1969.821 2691.998, 1964.964 2700.720 C 1961.619 2706.726, 1960.002 2708.364, 1959.998 2705.750 C 1959.993 2702.651, 1948.767 2682.557, 1943.312 2675.886 C 1935.371 2666.173, 1930.122 2661.448, 1920.876 2655.695 C 1906.888 2646.989, 1892.223 2642.513, 1872.731 2640.997 C 1866.004 2640.473, 1860.275 2640.098, 1860 2640.162 C 1859.725 2640.226, 1855.675 2640.625, 1851 2641.049 M 3028 2641.005 C 3019.954 2642.659, 3013.893 2647.368, 3010.007 2654.987 C 3008.025 2658.871, 3008 2660.710, 3008.022 2802.710 C 3008.043 2939.703, 3008.130 2946.689, 3009.867 2950.500 C 3014.420 2960.487, 3021.967 2965.304, 3032.953 2965.235 C 3041.183 2965.184, 3046.235 2962.880, 3051.429 2956.811 C 3058.438 2948.623, 3058.063 2957.891, 3057.767 2800.436 L 3057.500 2658.500 3055.351 2654.487 C 3049.795 2644.115, 3038.929 2638.759, 3028 2641.005 M 3403.500 2641.002 C 3395.789 2642.198, 3388.399 2647.958, 3384.900 2655.500 C 3383.131 2659.313, 3383.043 2664.277, 3383.022 2761.872 C 3382.998 2874.411, 3383.026 2875.028, 3389.103 2896 C 3394.905 2916.024, 3402.526 2929.357, 3415.680 2942.496 C 3433.934 2960.729, 3456.219 2969.993, 3485.826 2971.655 C 3525.272 2973.869, 3562.393 2959.513, 3588.130 2932.090 L 3597 2922.639 3597 2936.596 C 3597 2953.522, 3595.756 2964.152, 3592.417 2975.742 C 3581.826 3012.510, 3555.838 3035.259, 3517.168 3041.611 C 3509.869 3042.810, 3503.457 3043.068, 3491 3042.664 C 3471.306 3042.025, 3465.784 3040.760, 3444.500 3032.014 C 3417.945 3021.102, 3414.831 3020.373, 3407.632 3023.380 C 3403.500 3025.107, 3397.423 3031.274, 3394.798 3036.406 C 3392.032 3041.813, 3392.115 3050.540, 3394.988 3056.475 C 3401.803 3070.553, 3432.170 3083.302, 3469.974 3087.957 C 3480.859 3089.297, 3507.589 3089.300, 3517.678 3087.963 C 3557.839 3082.638, 3586.432 3069.288, 3608.972 3045.339 C 3633.350 3019.436, 3644.502 2990.685, 3647.069 2947.119 C 3647.724 2936.008, 3647.995 2879.636, 3647.804 2794.500 C 3647.501 2660.128, 3647.490 2659.479, 3645.417 2655 C 3643.059 2649.907, 3637.369 2644.472, 3632.073 2642.253 C 3626.966 2640.114, 3617.298 2640.332, 3611.927 2642.708 C 3609.492 2643.785, 3605.981 2646.396, 3604.125 2648.510 C 3597.062 2656.555, 3597.559 2648.968, 3596.944 2758 C 3596.585 2821.463, 3596.019 2857.754, 3595.350 2860.025 C 3591.669 2872.529, 3587.512 2881.067, 3580.512 2890.500 C 3567.853 2907.562, 3548.554 2919.445, 3526.707 2923.631 C 3516.411 2925.603, 3492.506 2925.033, 3483.500 2922.601 C 3474.856 2920.266, 3462.166 2913.779, 3456.518 2908.807 C 3447.564 2900.925, 3440.574 2888.175, 3436.616 2872.500 C 3433.426 2859.868, 3433 2845.888, 3432.994 2753.644 C 3432.991 2693.253, 3432.632 2660.216, 3431.954 2657.775 C 3428.750 2646.239, 3416.457 2638.992, 3403.500 2641.002 M 2300 2646.126 C 2293.778 2647.303, 2288.095 2651.586, 2284.250 2657.995 L 2281 2663.412 2281.018 2759.456 C 2281.038 2861.120, 2281.191 2865.042, 2285.836 2882.500 C 2291.983 2905.604, 2300.417 2920.503, 2316.200 2936.138 C 2325.920 2945.767, 2333.078 2950.731, 2346.370 2957.063 C 2365.810 2966.323, 2384.918 2970.141, 2412 2970.177 C 2455.267 2970.235, 2486.239 2959.478, 2509.685 2936.251 C 2525.588 2920.497, 2534.003 2905.658, 2540.164 2882.500 C 2544.807 2865.048, 2544.962 2861.099, 2544.982 2759.739 C 2545 2665.615, 2544.965 2663.904, 2542.973 2659.665 C 2538.724 2650.626, 2530.812 2645.714, 2520.500 2645.714 C 2510.422 2645.714, 2502.558 2650.462, 2497.665 2659.500 L 2495.500 2663.500 2494.939 2761 C 2494.431 2849.389, 2494.214 2859.191, 2492.618 2865.894 C 2486.181 2892.930, 2471.033 2910.632, 2447.603 2918.497 C 2426.271 2925.658, 2400.354 2925.857, 2380.046 2919.015 C 2358.315 2911.695, 2344.796 2898.524, 2336.953 2877.033 C 2331.093 2860.977, 2331.008 2859.308, 2331.004 2759.468 C 2331.001 2687.207, 2330.727 2667.384, 2329.677 2663.335 C 2326.365 2650.567, 2314.105 2643.458, 2300 2646.126 M 877 2685.954 C 847.441 2692.262, 824.848 2707.362, 808.737 2731.576 C 797.749 2748.092, 792.543 2762.008, 789.412 2783.235 C 787.308 2797.500, 787.959 2821.183, 790.823 2834.548 C 800.778 2881.014, 834.443 2915.102, 878.750 2923.579 C 882.834 2924.361, 891.487 2925, 897.978 2925 C 915.805 2925, 931.083 2921.583, 945.394 2914.396 C 978.166 2897.939, 1000.764 2865.255, 1006.564 2825.927 C 1008.730 2811.239, 1008.059 2787.932, 1005.065 2773.891 C 996.183 2732.230, 966.701 2698.854, 929.500 2688.344 C 912.987 2683.679, 892.115 2682.729, 877 2685.954" stroke="none" fill="#ab4d4a" fill-rule="evenodd"/></svg>