<svg version="1.1" id="Layer_1" xmlns="http://www.w3.org/2000/svg" xmlns:xlink="http://www.w3.org/1999/xlink" x="0px" y="0px"
	 width="100%" viewBox="0 0 1920 1908" enable-background="new 0 0 1920 1908" xml:space="preserve">
<path fill="#FFF" opacity="1.000000" stroke="none"
    d="
M907.000000,1.000003 
	C1244.973755,1.000000 1582.947632,1.000000 1920.960693,1.000000 
	C1920.960693,636.924500 1920.960693,1272.848999 1920.960693,1908.886719 
	C1281.000000,1908.886719 641.000000,1908.886719 1.000003,1908.880981 
	C1.000000,1798.884155 1.000000,1688.892944 1.336624,1578.575684 
	C8.197323,1589.913452 14.451024,1601.738770 21.301939,1613.207397 
	C35.368286,1636.754883 51.902035,1658.558228 70.442612,1678.710938 
	C81.201256,1690.405151 92.665733,1701.573120 104.722740,1711.917114 
	C118.656479,1723.870972 133.205643,1735.204712 148.208496,1745.785645 
	C161.039276,1754.834839 174.529266,1763.113403 188.383621,1770.503174 
	C203.719177,1778.682983 219.770905,1785.529785 235.618973,1792.718506 
	C236.742157,1793.228027 239.366364,1792.259033 240.248413,1791.148193 
	C243.842010,1786.623291 246.958359,1781.723633 250.377457,1777.055054 
	C268.159973,1752.774048 286.068237,1728.584839 303.766266,1704.242554 
	C323.417694,1677.213379 342.850891,1650.025879 362.451263,1622.959473 
	C380.508026,1598.024658 398.729065,1573.208618 416.747681,1548.246460 
	C429.735901,1530.253174 442.554474,1512.136719 455.368896,1494.018921 
	C470.364838,1472.816895 485.065430,1451.401733 500.341492,1430.404663 
	C505.256927,1423.648315 511.010010,1417.231079 517.399841,1411.875610 
	C529.425720,1401.796509 544.292358,1397.276489 559.102173,1392.955566 
	C570.277039,1389.695435 581.514954,1386.235474 590.577271,1378.700073 
	C605.726562,1366.103394 620.890564,1353.446899 635.123474,1339.847412 
	C649.644653,1325.972534 663.471741,1311.305664 676.838684,1296.304810 
	C693.251282,1277.885864 708.871826,1258.761230 724.894775,1240.329956 
	C725.078247,1241.366211 725.105774,1242.051147 725.339172,1242.656616 
	C732.959106,1262.428833 742.144409,1281.399658 753.701355,1299.218506 
	C755.785645,1302.432007 757.585815,1306.378662 757.878052,1310.114868 
	C759.531982,1331.259644 761.397461,1352.429810 761.802429,1373.617920 
	C762.173340,1393.023438 760.770142,1412.462280 760.172241,1431.887085 
	C759.492249,1453.978516 758.797180,1476.069702 758.184082,1498.162964 
	C757.469421,1523.917725 756.837646,1549.674683 756.167297,1575.430664 
	C755.838623,1588.058594 755.488220,1600.686035 755.176453,1613.314331 
	C754.823608,1627.608032 754.506775,1641.902832 754.167236,1656.196899 
	C753.839600,1669.991211 753.486389,1683.784790 753.174622,1697.579468 
	C752.821533,1713.206055 752.523071,1728.834106 752.161377,1744.460571 
	C751.861328,1757.422119 751.474182,1770.381470 751.179565,1783.343140 
	C750.812988,1799.469727 750.508423,1815.597656 750.164795,1831.724731 
	C749.860413,1846.011963 749.487549,1860.298218 749.325378,1874.587036 
	C749.312683,1875.704468 750.468811,1877.401978 751.510681,1877.865112 
	C755.853149,1879.795898 760.313721,1881.491821 764.813782,1883.032227 
	C788.013489,1890.972900 811.500793,1897.859741 835.890381,1901.056396 
	C850.106201,1902.919434 864.342285,1904.936279 878.634766,1905.804688 
	C889.200684,1906.446655 899.925964,1905.904907 910.484802,1904.894043 
	C927.031677,1903.309937 943.637146,1901.642578 959.967346,1898.645996 
	C987.613464,1893.572998 1014.658630,1885.974365 1041.135986,1876.444824 
	C1048.440063,1873.816040 1048.550659,1873.916260 1048.015137,1866.400635 
	C1047.075439,1853.213013 1046.035889,1840.032349 1045.039551,1826.848633 
	C1043.695068,1809.055298 1042.353027,1791.261963 1041.008667,1773.468628 
	C1040.012451,1760.285767 1039.010864,1747.103027 1038.018311,1733.919800 
	C1036.678711,1716.125488 1035.348145,1698.330200 1034.008545,1680.535889 
	C1033.015991,1667.351562 1032.021118,1654.167358 1031.017334,1640.983887 
	C1029.687134,1623.513916 1028.351196,1606.044556 1027.010620,1588.575439 
	C1025.682739,1571.272217 1024.345093,1553.969727 1023.013489,1536.666748 
	C1022.012695,1523.661743 1021.016724,1510.656372 1020.015198,1497.651367 
	C1018.683289,1480.354736 1017.388916,1463.054932 1016.002197,1445.762695 
	C1014.732056,1429.924072 1013.194031,1414.105225 1012.074219,1398.256470 
	C1010.555054,1376.755859 1009.085449,1355.246582 1008.034912,1333.719360 
	C1007.055237,1313.644165 1006.594177,1293.542480 1006.086609,1273.447754 
	C1006.038147,1271.528564 1006.760315,1269.088745 1008.027100,1267.735107 
	C1011.298218,1264.239746 1015.074829,1261.217285 1018.863281,1258.285889 
	C1023.884033,1263.799072 1027.947876,1270.114502 1033.656372,1274.034546 
	C1044.715210,1281.628662 1056.666870,1287.931763 1068.308716,1294.665771 
	C1085.718506,1304.736572 1103.450317,1314.450317 1117.053589,1329.685425 
	C1128.748169,1342.782593 1143.524292,1348.770630 1160.529419,1349.919434 
	C1179.069824,1351.171753 1197.629395,1352.284058 1216.198853,1352.930054 
	C1243.130615,1353.867188 1270.079346,1354.837158 1297.020020,1354.811157 
	C1313.803345,1354.794922 1328.571533,1360.321899 1341.678833,1369.519043 
	C1355.477905,1379.201294 1368.171997,1390.514038 1380.974121,1401.549194 
	C1402.857544,1420.412476 1424.807373,1439.225098 1446.068359,1458.777710 
	C1470.206177,1480.976196 1492.016602,1505.416870 1512.496704,1531.052490 
	C1528.235718,1550.753540 1544.276978,1570.213867 1560.243286,1589.732788 
	C1574.330078,1606.953857 1588.540771,1624.073730 1602.619751,1641.301270 
	C1616.784180,1658.633301 1630.864868,1676.033691 1644.949463,1693.430664 
	C1646.619507,1695.493530 1648.105347,1695.677368 1650.412720,1694.162476 
	C1658.598877,1688.788208 1667.257812,1684.083862 1675.147339,1678.317749 
	C1694.160156,1664.422852 1713.022461,1650.306641 1731.599121,1635.834961 
	C1748.834839,1622.407837 1764.353027,1607.029663 1778.139893,1590.121704 
	C1802.466431,1560.288330 1820.418335,1526.515869 1836.933838,1491.954346 
	C1841.212280,1483.001099 1844.958740,1473.793579 1849.006714,1464.572754 
	C1847.925781,1463.786987 1847.160767,1463.183960 1846.350952,1462.648682 
	C1809.079468,1438.015503 1771.710449,1413.528198 1734.558838,1388.715698 
	C1705.152100,1369.075806 1675.535034,1349.697632 1646.875854,1329.005737 
	C1612.703247,1304.333252 1579.339355,1278.531616 1545.854126,1252.919678 
	C1530.671143,1241.306641 1516.079468,1228.914185 1503.754272,1214.155396 
	C1481.399048,1187.386230 1465.069458,1156.905884 1450.101929,1125.682495 
	C1437.585083,1099.571167 1424.134888,1074.069580 1407.798828,1050.086670 
	C1390.694092,1024.975342 1369.884399,1003.057922 1349.313110,980.941895 
	C1335.366211,965.947754 1320.746582,951.579651 1306.437378,936.922180 
	C1304.578857,935.018372 1302.777710,933.058472 1301.273682,930.992004 
	C1317.438354,919.903198 1333.391235,909.103943 1349.096436,897.956055 
	C1377.038330,878.122375 1404.310791,857.548340 1427.128784,831.581421 
	C1440.363281,816.520386 1453.086304,801.153564 1463.008057,783.722473 
	C1468.045410,774.872559 1474.582886,768.086182 1483.255493,762.750671 
	C1496.455322,754.629822 1509.221802,745.804199 1522.161133,737.260681 
	C1540.423096,725.202759 1558.266235,712.447937 1577.015747,701.203857 
	C1616.341919,677.619934 1656.277100,655.053406 1695.702759,631.632446 
	C1723.612549,615.052673 1751.105591,597.770691 1778.768555,580.775818 
	C1800.817993,567.229614 1822.825928,553.615906 1844.883301,540.082642 
	C1868.788940,525.415405 1892.766235,510.863770 1916.581665,496.052002 
	C1918.277588,494.997223 1919.818848,492.252533 1919.885498,490.242401 
	C1920.533569,470.681122 1919.547485,451.217041 1916.083984,431.888916 
	C1912.200806,410.218567 1906.511230,389.129089 1896.199341,369.579224 
	C1890.211426,358.226868 1883.495361,347.258667 1876.924316,335.969727 
	C1876.741699,335.821838 1876.331909,335.592010 1876.376953,335.276215 
	C1873.436768,331.330383 1870.447998,327.703278 1867.466919,324.069824 
	C1859.617432,314.502258 1852.179321,304.556915 1843.817749,295.460297 
	C1833.941406,284.715729 1823.662720,274.265411 1812.822876,264.504395 
	C1803.153442,255.797440 1792.486206,248.197876 1782.248657,240.123108 
	C1780.215942,238.519669 1778.330811,238.608673 1776.206787,240.277664 
	C1764.150269,249.751556 1752.039795,259.157532 1739.902710,268.528259 
	C1717.059814,286.164825 1694.205078,303.786530 1671.304688,321.348358 
	C1667.838501,324.006470 1664.000366,326.177338 1660.514648,328.812317 
	C1656.734253,331.669861 1653.226685,334.886200 1649.480103,337.791290 
	C1647.270630,339.504578 1644.666504,340.723938 1642.526978,342.509552 
	C1638.999390,345.453552 1635.891235,348.919678 1632.258057,351.712616 
	C1628.648315,354.487549 1624.377808,356.412659 1620.819824,359.242035 
	C1616.841797,362.405182 1613.531616,366.402130 1609.587891,369.615234 
	C1602.437988,375.440308 1595.052856,380.978210 1587.732422,386.592163 
	C1566.544312,402.840759 1545.349243,419.080444 1524.138672,435.299652 
	C1500.705566,453.218384 1477.606812,471.601593 1453.703735,488.870667 
	C1431.563477,504.866089 1408.644287,519.794373 1385.889038,534.923279 
	C1373.979492,542.841431 1362.363281,551.318054 1348.268433,555.431519 
	C1341.442261,557.423767 1335.298096,558.236572 1329.520020,553.100403 
	C1328.067627,551.809326 1326.146118,551.026245 1324.395752,550.092896 
	C1299.754395,536.953064 1272.925171,532.855042 1245.565186,532.102234 
	C1220.380981,531.409302 1195.160278,532.150940 1169.959473,531.891357 
	C1161.891357,531.808289 1153.798462,530.825378 1145.782349,529.760803 
	C1132.904175,528.050537 1120.030029,526.210388 1107.247681,523.906128 
	C1093.510620,521.429749 1079.806152,518.671143 1066.232300,515.428833 
	C1057.300415,513.295288 1048.690918,509.846466 1039.817505,507.424530 
	C1029.437866,504.591553 1022.569153,508.284241 1020.304626,517.581665 
	C1017.832886,527.729736 1019.370544,537.504822 1023.451843,546.995300 
	C1029.333130,560.671326 1040.852783,568.571777 1053.433472,574.625183 
	C1074.092896,584.565979 1095.179932,593.625610 1116.160400,602.889648 
	C1127.911743,608.078430 1139.766846,613.041626 1151.672607,617.866089 
	C1155.122314,619.263977 1156.140137,621.746765 1155.824707,624.849121 
	C1154.664185,636.262939 1150.019653,646.093262 1141.487549,653.842834 
	C1137.853638,657.143494 1133.705078,659.870667 1129.944702,663.041382 
	C1127.296509,665.274170 1125.234741,668.339539 1122.351807,670.134949 
	C1101.252930,683.274902 1080.012817,696.187805 1058.528564,708.969238 
	C1056.467651,708.072632 1054.695435,707.379089 1052.944092,706.276123 
	C1052.980469,705.533875 1052.944946,705.189148 1053.018921,704.869995 
	C1057.114380,687.221008 1056.530762,669.362305 1054.863037,651.554443 
	C1054.276489,645.291199 1053.041748,638.643860 1050.225830,633.130493 
	C1045.041016,622.978760 1035.374146,618.993469 1024.407959,620.207336 
	C1013.767883,621.385193 1006.980957,628.633362 1003.216858,638.210571 
	C999.933716,646.564087 997.611755,655.295410 994.585999,663.679321 
	C990.373352,657.008972 986.645081,650.383789 982.468445,644.054504 
	C969.214600,623.969482 964.063965,602.980164 969.831421,578.658447 
	C980.848633,532.198120 990.249695,485.353943 1000.275330,438.659180 
	C1007.597534,404.555511 1014.750610,370.415253 1022.151855,336.328827 
	C1030.682861,297.039490 1039.471680,257.806152 1048.020386,218.520630 
	C1054.518433,188.658127 1060.760620,158.740051 1067.219482,128.868942 
	C1072.881226,102.685699 1078.719116,76.540543 1084.327637,50.346085 
	C1084.603271,49.059265 1083.843262,46.668167 1082.851318,46.144955 
	C1078.494019,43.846539 1073.926636,41.914581 1069.340942,40.086250 
	C1037.040771,27.207823 1004.036926,16.564461 969.961914,9.476358 
	C950.407959,5.408855 930.725342,2.135072 910.664246,1.895040 
	C909.439392,1.880385 908.221252,1.311183 907.000000,1.000003 
M885.629272,1906.987061 
	C883.179993,1906.987061 880.730652,1906.987061 878.281372,1906.987061 
	C878.298523,1907.238892 878.315735,1907.490845 878.332947,1907.742676 
	C886.178162,1907.742676 894.023376,1907.742676 901.868591,1907.742676 
	C901.871521,1907.490845 901.874390,1907.238892 901.877319,1906.987061 
	C896.781982,1906.987061 891.686646,1906.987061 885.629272,1906.987061 
M1201.680908,530.991028 
	C1194.852173,530.991028 1188.023560,530.991028 1181.194824,530.991028 
	C1181.200806,531.238586 1181.206787,531.486206 1181.212769,531.733765 
	C1188.738037,531.733765 1196.263428,531.733765 1205.095337,531.733765 
	C1203.357300,531.254700 1202.907959,531.130859 1201.680908,530.991028 
z"/>
<path fill="#FFF" opacity="1.000000" stroke="none"
    d="
M1.000014,1574.000000 
	C1.000000,1049.752441 1.000000,525.504883 1.000000,1.000000 
	C295.366028,1.000000 589.732117,1.000000 884.276184,1.323747 
	C870.239685,2.405701 856.019165,3.066956 841.813171,3.960262 
	C833.910889,4.457174 825.961060,4.892523 818.158875,6.142969 
	C801.624512,8.792913 785.078186,11.520882 768.717896,15.055101 
	C756.207336,17.757660 743.970032,21.729898 731.621948,25.176029 
	C728.189575,26.133942 726.591309,28.215004 726.872498,32.046757 
	C727.429321,39.636513 727.567932,47.256130 727.947266,54.860016 
	C728.218933,60.304058 728.543091,65.746880 728.945374,71.182732 
	C729.931580,84.508369 731.121216,97.820702 731.947571,111.155823 
	C732.510742,120.244995 732.547302,129.365692 732.917847,138.468292 
	C733.166626,144.579117 733.512573,150.688278 733.947144,156.788788 
	C734.920349,170.452148 736.045776,184.104874 736.976501,197.770981 
	C737.740173,208.984375 738.353821,220.208572 738.959961,231.431976 
	C740.003296,250.751831 740.978577,270.075378 742.003052,289.396271 
	C742.642212,301.450134 743.349426,313.500427 743.971252,325.555176 
	C744.678833,339.274994 745.328918,352.997803 745.997192,366.719666 
	C746.665466,380.441162 747.396484,394.160095 747.971252,407.885559 
	C748.713440,425.606995 749.654358,443.329010 749.913635,461.059479 
	C750.231140,482.773224 750.141418,504.499725 749.752808,526.212219 
	C749.654968,531.677673 748.236755,537.267700 746.557678,542.523193 
	C743.782654,551.208923 740.920593,559.775269 741.936584,569.321411 
	C736.740479,566.156616 731.903503,562.451660 726.682312,559.405273 
	C711.326477,550.445801 695.834473,541.718750 680.364380,532.956055 
	C666.601746,525.160461 652.988037,516.835083 637.215271,513.767151 
	C628.551208,512.081970 622.065857,507.492950 615.993896,501.598663 
	C606.350098,492.237030 597.180542,482.422028 586.163025,474.458893 
	C578.682007,469.051849 572.001038,462.426575 565.470581,455.841949 
	C555.647461,445.937500 546.479919,435.382782 536.653015,425.482361 
	C521.562927,410.279358 506.139832,395.407074 490.875702,380.376556 
	C467.974335,357.825714 445.105042,335.242249 422.190063,312.705292 
	C405.452911,296.244232 388.673676,279.826019 371.895386,263.406830 
	C357.737427,249.551804 343.534912,235.742325 329.386353,221.877716 
	C310.834320,203.698044 292.331146,185.468536 273.778442,167.289566 
	C258.320770,152.143295 242.823273,137.037659 227.332916,121.924782 
	C226.993561,121.593704 226.527649,121.392319 226.257294,121.218300 
	C135.881271,178.424210 61.902786,250.819519 13.762396,347.605957 
	C24.172226,356.434326 34.206757,365.012512 44.316223,373.501373 
	C57.999794,384.991455 71.766953,396.381927 85.449158,407.873596 
	C96.714027,417.334930 107.881653,426.912018 119.139091,436.382263 
	C133.000320,448.042969 146.905014,459.652039 160.801147,471.271179 
	C166.659088,476.169312 172.559357,481.016846 178.411606,485.921753 
	C186.913544,493.047394 195.391037,500.202209 203.875977,507.348083 
	C215.015121,516.729370 226.128647,526.141174 237.294647,535.490356 
	C250.746689,546.753601 264.323486,557.869324 277.693115,569.229248 
	C288.334717,578.271240 298.608429,587.748596 309.310974,596.715759 
	C315.901825,602.237976 323.067108,607.068604 329.836578,612.385315 
	C337.089630,618.081848 344.146851,624.026978 351.353241,629.783813 
	C357.387909,634.604736 363.629364,639.171692 369.578125,644.094116 
	C385.878632,657.582581 402.159210,671.098083 418.272980,684.808105 
	C426.232849,691.580505 433.967468,698.638367 441.520660,705.863342 
	C453.992126,717.793030 466.248688,729.947693 478.535400,742.068787 
	C479.268127,742.791626 479.931976,744.098755 479.843384,745.061890 
	C478.619202,758.375244 476.536072,771.653259 476.117188,784.985596 
	C475.624573,800.664001 476.546509,816.386841 476.492279,832.067139 
	C466.584991,830.821655 457.358521,834.893677 453.258514,843.071960 
	C449.426392,850.715820 446.412415,858.771240 443.074066,866.660706 
	C440.448242,872.866150 438.227417,879.272705 435.184082,885.263550 
	C432.046753,891.439636 427.848785,897.071106 424.609924,903.202454 
	C414.333008,922.657166 404.860962,942.443909 391.416504,960.198608 
	C381.272247,973.595154 373.541962,988.799072 364.396332,1002.978638 
	C356.583374,1015.091980 348.042358,1026.736816 340.270844,1038.875488 
	C332.581635,1050.885620 325.141998,1063.079590 318.154602,1075.508789 
	C308.954865,1091.873657 301.530823,1109.103027 297.362366,1127.452026 
	C292.423859,1149.190674 291.384613,1171.392456 291.243256,1193.615967 
	C291.200012,1200.415771 291.799957,1207.217651 291.984039,1214.021729 
	C292.393005,1229.138550 292.437286,1244.271118 293.162018,1259.371826 
	C294.061157,1278.105347 287.692719,1294.896973 276.406067,1308.674438 
	C258.985565,1329.939209 240.180038,1350.193481 220.721405,1369.634888 
	C193.233795,1397.098145 164.709869,1423.530029 136.443237,1450.205933 
	C120.044044,1465.682495 103.299622,1480.793823 86.676544,1496.032471 
	C66.759132,1514.291138 46.825325,1532.532104 26.858568,1550.736816 
	C18.291033,1558.548218 9.622584,1566.249023 1.000014,1574.000000 
z"/>
<path fill="#D78866" opacity="1.000000" stroke="none"
    d="
M742.120178,569.082153 
	C740.920593,559.775269 743.782654,551.208923 746.557678,542.523193 
	C748.236755,537.267700 749.654968,531.677673 749.752808,526.212219 
	C750.141418,504.499725 750.231140,482.773224 749.913635,461.059479 
	C749.654358,443.329010 748.713440,425.606995 747.971252,407.885559 
	C747.396484,394.160095 746.665466,380.441162 745.997192,366.719666 
	C745.328918,352.997803 744.678833,339.274994 743.971252,325.555176 
	C743.349426,313.500427 742.642212,301.450134 742.003052,289.396271 
	C740.978577,270.075378 740.003296,250.751831 738.959961,231.431976 
	C738.353821,220.208572 737.740173,208.984375 736.976501,197.770981 
	C736.045776,184.104874 734.920349,170.452148 733.947144,156.788788 
	C733.512573,150.688278 733.166626,144.579117 732.917847,138.468292 
	C732.547302,129.365692 732.510742,120.244995 731.947571,111.155823 
	C731.121216,97.820702 729.931580,84.508369 728.945374,71.182732 
	C728.543091,65.746880 728.218933,60.304058 727.947266,54.860016 
	C727.567932,47.256130 727.429321,39.636513 726.872498,32.046757 
	C726.591309,28.215004 728.189575,26.133942 731.621948,25.176029 
	C743.970032,21.729898 756.207336,17.757660 768.717896,15.055101 
	C785.078186,11.520882 801.624512,8.792913 818.158875,6.142969 
	C825.961060,4.892523 833.910889,4.457174 841.813171,3.960262 
	C856.019165,3.066956 870.239685,2.405701 884.727051,1.323747 
	C892.020935,1.000000 899.041931,1.000000 906.531433,1.000003 
	C908.221252,1.311183 909.439392,1.880385 910.664246,1.895040 
	C930.725342,2.135072 950.407959,5.408855 969.961914,9.476358 
	C1004.036926,16.564461 1037.040771,27.207823 1069.340942,40.086250 
	C1073.926636,41.914581 1078.494019,43.846539 1082.851318,46.144955 
	C1083.843262,46.668167 1084.603271,49.059265 1084.327637,50.346085 
	C1078.719116,76.540543 1072.881226,102.685699 1067.219482,128.868942 
	C1060.760620,158.740051 1054.518433,188.658127 1048.020386,218.520630 
	C1039.471680,257.806152 1030.682861,297.039490 1022.151855,336.328827 
	C1014.750610,370.415253 1007.597534,404.555511 1000.275330,438.659180 
	C990.249695,485.353943 980.848633,532.198120 969.831421,578.658447 
	C964.063965,602.980164 969.214600,623.969482 982.468445,644.054504 
	C986.645081,650.383789 990.373352,657.008972 994.658508,664.039368 
	C998.559631,670.766785 1002.102661,676.957214 1005.659973,683.139465 
	C1011.774597,693.765930 1017.898071,704.387329 1024.034912,715.369385 
	C1025.369873,718.477051 1026.687744,721.226257 1028.153809,724.292969 
	C1030.164062,728.397766 1032.026123,732.185059 1034.043701,736.303406 
	C1036.378540,743.039978 1039.028442,749.329468 1040.642944,755.874390 
	C1044.403564,771.118774 1047.665649,786.486145 1051.165283,802.201233 
	C1055.732666,820.419556 1060.194214,838.258667 1064.823975,856.053955 
	C1067.447998,866.139954 1070.348145,876.154175 1072.933228,886.466431 
	C1063.881348,897.412109 1050.126099,898.510559 1038.062988,903.948914 
	C1040.895264,908.211914 1043.285034,912.198303 1046.054443,915.900818 
	C1052.920410,925.079651 1059.225708,934.838867 1069.412109,940.899048 
	C1075.719360,944.651367 1082.061157,945.865967 1088.421875,940.757324 
	C1090.343140,939.214294 1092.649902,938.151245 1094.986450,937.090576 
	C1094.114990,939.269409 1093.037109,941.225891 1091.624756,943.213440 
	C1090.073486,944.082886 1088.855225,944.919128 1087.640137,945.760010 
	C1077.729248,952.618591 1066.878418,956.187256 1055.909058,949.630188 
	C1037.829468,938.822937 1022.913330,924.432190 1012.866943,905.638306 
	C1008.805176,898.040161 1005.548462,890.011597 1001.884644,881.788879 
	C997.238098,868.598450 992.632263,855.797974 988.038696,842.616394 
	C984.015381,832.755859 979.956116,823.286377 975.959778,813.790527 
	C974.873474,811.209290 973.505188,809.913696 970.298828,810.401184 
	C966.880615,810.920776 966.083679,812.698669 965.757874,815.693115 
	C964.426270,827.932922 962.915405,840.153198 961.359863,852.663696 
	C961.178101,853.985291 961.107117,855.023865 961.013916,856.486572 
	C958.599304,877.394226 956.734131,897.960571 953.532715,918.316833 
	C952.390991,925.576660 952.459534,930.406311 959.768433,933.061401 
	C957.773865,933.947388 955.947571,934.404846 954.426575,935.352417 
	C952.741272,936.402283 950.468506,937.639282 949.981812,939.255615 
	C948.854065,943.000854 948.648682,947.023804 947.798645,951.203003 
	C944.633667,965.270020 941.739441,979.068237 938.659363,993.203247 
	C937.635620,997.774536 936.711548,1001.994202 935.974182,1006.246155 
	C931.663208,1031.105835 927.395996,1055.973022 923.076843,1081.261841 
	C921.694946,1088.684448 920.350220,1095.682861 918.800964,1103.023926 
	C915.370117,1121.156738 911.875488,1138.904175 909.046692,1156.757202 
	C907.877197,1164.137939 905.058594,1169.622803 898.041992,1172.596558 
	C897.291321,1172.914795 896.644104,1173.476929 895.526733,1173.942627 
	C887.364990,1175.700562 880.035278,1174.562134 872.945740,1171.067505 
	C867.516479,1168.391235 864.590027,1164.506592 864.843689,1158.148438 
	C865.364624,1145.091431 865.555725,1132.021240 865.918091,1118.495361 
	C866.373291,1105.584473 866.692932,1093.130493 867.235962,1080.686279 
	C868.075134,1061.454102 869.067017,1042.228516 870.089966,1022.594238 
	C871.125305,1009.778015 872.064880,997.367554 873.004456,984.957153 
	C873.919128,972.875305 874.893188,960.797485 875.727722,948.710083 
	C876.279907,940.712158 876.631836,932.700439 877.073364,924.694885 
	C873.167542,943.105164 870.014404,961.566650 867.033508,980.055969 
	C865.210999,991.360107 863.653137,1002.706848 861.657593,1014.236328 
	C860.609192,1018.847351 859.879517,1023.256592 859.113831,1028.095703 
	C855.763123,1049.033325 852.448425,1069.541138 849.067566,1090.453613 
	C843.948120,1122.193359 838.894897,1153.528076 833.613159,1185.106934 
	C831.931335,1187.141724 830.701050,1189.188354 828.988342,1190.682129 
	C817.937683,1200.320312 802.904480,1199.453735 790.469116,1189.155640 
	C785.619507,1185.139404 783.523560,1180.554199 784.036682,1174.456787 
	C784.925842,1163.893066 785.752930,1153.324097 786.542969,1142.752563 
	C786.609497,1141.863159 786.201294,1140.938354 786.070679,1139.628418 
	C786.778198,1132.143677 787.428650,1125.060547 788.320190,1117.646484 
	C789.091370,1109.191406 789.550720,1101.061768 790.164490,1092.943970 
	C792.093994,1067.422852 794.049438,1041.903687 796.061829,1016.389099 
	C796.910522,1005.629395 797.926575,994.882874 798.901794,983.657349 
	C800.412109,962.474670 801.887207,941.764893 803.362366,921.055176 
	C801.210754,926.098145 800.133606,931.353088 798.977112,936.590515 
	C796.361145,948.437561 793.706055,960.275818 791.061646,972.523560 
	C783.495789,1002.401489 775.910645,1031.867188 768.397400,1061.351318 
	C767.063721,1066.584717 766.028748,1071.894409 764.508423,1077.230225 
	C763.840759,1077.652466 763.345520,1077.963257 763.225525,1078.381592 
	C756.307495,1102.498779 748.543884,1126.421631 742.885315,1150.832397 
	C739.874329,1163.821655 723.087036,1170.680664 712.024902,1165.960693 
	C698.631104,1160.245972 693.073486,1149.071899 694.518005,1133.105225 
	C697.432373,1100.892212 704.958435,1069.490723 710.431274,1037.728271 
	C713.225159,1021.513611 715.573792,1005.222351 718.357666,988.652954 
	C722.327942,960.054138 726.073547,931.769409 729.786743,903.480347 
	C730.174988,900.522400 730.379944,897.539917 730.643005,894.566467 
	C730.670776,894.252991 730.573303,893.894348 730.429565,893.609314 
	C730.287720,893.327942 730.026672,893.099182 729.791260,892.875488 
	C729.676270,892.766174 729.507019,892.684448 729.350464,892.656616 
	C729.193481,892.628662 729.021729,892.683472 728.367004,892.756958 
	C727.939758,894.082092 727.377808,895.586853 726.968323,897.132019 
	C723.393127,910.622253 719.786560,924.104614 716.307556,937.619690 
	C713.453796,948.705994 710.761414,959.833923 707.677002,971.148926 
	C696.827515,1011.512024 686.385742,1051.692749 675.700806,1091.808716 
	C673.376770,1100.534180 669.601807,1108.732910 663.005920,1115.237183 
	C651.803833,1126.283813 635.625183,1122.224121 631.142578,1107.233154 
	C628.360352,1097.928955 628.707458,1088.440186 630.284851,1079.030151 
	C639.747742,1022.581787 649.324341,966.152649 658.923584,909.260254 
	C661.680237,893.919983 664.051758,878.969116 667.131104,864.165466 
	C677.627625,813.704651 688.337830,763.288147 699.038208,712.869995 
	C705.053833,684.525330 714.371277,657.493774 730.036377,632.809814 
	C736.419983,622.751099 741.675293,611.971802 747.316223,601.451904 
	C748.049194,600.084839 748.550598,598.196899 748.250549,596.737061 
	C746.349548,587.489502 744.192627,578.294495 742.120178,569.082153 
M818.259338,1149.211914 
	C810.744385,1148.040039 803.229431,1146.868164 795.120483,1145.603638 
	C794.776001,1148.278564 794.250916,1150.852051 794.150879,1153.441895 
	C793.932617,1159.091553 794.654846,1164.875977 793.694824,1170.378906 
	C791.447205,1183.262817 799.227051,1187.728638 808.189880,1189.607178 
	C818.375854,1191.742065 830.028809,1189.201904 831.064514,1173.915894 
	C831.254028,1171.118042 832.141907,1168.374512 832.550476,1165.583008 
	C833.328125,1160.270386 833.992432,1154.941162 834.741394,1149.337646 
	C829.018738,1149.337646 824.085938,1149.337646 818.259338,1149.211914 
M704.786865,1149.485352 
	C709.160278,1156.587891 715.825806,1158.860474 723.666626,1157.936523 
	C730.888794,1157.085449 733.947815,1151.715576 735.623352,1145.439575 
	C737.769226,1137.402344 739.642151,1129.292603 741.665649,1121.222290 
	C742.459961,1118.054565 741.105896,1116.655762 738.045288,1116.057739 
	C728.897400,1114.269897 719.768860,1112.375732 710.661316,1110.392212 
	C707.837158,1109.777100 706.243591,1110.164429 705.944824,1113.481567 
	C705.617737,1117.113892 704.580811,1120.685547 704.301147,1124.318115 
	C703.673035,1132.477783 700.475098,1140.679688 704.786865,1149.485352 
M872.534058,1140.047119 
	C872.099243,1143.836548 871.733154,1147.635254 871.215454,1151.413330 
	C870.089600,1159.630249 872.808105,1164.016724 880.784851,1166.350098 
	C883.164551,1167.046265 885.639282,1167.559082 888.104980,1167.794067 
	C896.821960,1168.625732 902.944397,1164.444336 905.109558,1155.883301 
	C906.572815,1150.097778 907.408325,1144.156250 908.690430,1138.321045 
	C909.540588,1134.452148 908.531860,1132.970947 904.255432,1133.014038 
	C895.008484,1133.107422 885.755981,1132.539429 876.505432,1132.529297 
	C875.352417,1132.528076 873.854004,1134.064453 873.148315,1135.261353 
	C872.542114,1136.289551 872.840698,1137.851074 872.534058,1140.047119 
M646.340454,1114.429565 
	C654.989929,1118.058838 661.496765,1113.512817 664.603638,1106.436401 
	C667.522583,1099.787964 669.552673,1092.733765 671.659790,1085.763062 
	C671.945312,1084.818481 670.630310,1082.466675 669.672546,1082.212402 
	C659.972900,1079.637329 650.193420,1077.363159 639.995178,1074.897949 
	C637.446655,1084.309448 637.332275,1093.943970 638.852783,1103.691040 
	C639.560486,1108.227417 641.501465,1111.855347 646.340454,1114.429565 
z"/>
<path fill="#280001" opacity="1.000000" stroke="none"
    d="
M788.079102,1117.977417 
	C787.428650,1125.060547 786.778198,1132.143677 785.870850,1139.914429 
	C773.452576,1165.640015 759.670349,1189.734375 743.758789,1212.593140 
	C737.425476,1221.691772 731.141296,1230.824341 724.834717,1239.941528 
	C708.871826,1258.761230 693.251282,1277.885864 676.838684,1296.304810 
	C663.471741,1311.305664 649.644653,1325.972534 635.123474,1339.847412 
	C620.890564,1353.446899 605.726562,1366.103394 590.577271,1378.700073 
	C581.514954,1386.235474 570.277039,1389.695435 559.102173,1392.955566 
	C544.292358,1397.276489 529.425720,1401.796509 517.399841,1411.875610 
	C511.010010,1417.231079 505.256927,1423.648315 500.341492,1430.404663 
	C485.065430,1451.401733 470.364838,1472.816895 455.368896,1494.018921 
	C442.554474,1512.136719 429.735901,1530.253174 416.747681,1548.246460 
	C398.729065,1573.208618 380.508026,1598.024658 362.451263,1622.959473 
	C342.850891,1650.025879 323.417694,1677.213379 303.766266,1704.242554 
	C286.068237,1728.584839 268.159973,1752.774048 250.377457,1777.055054 
	C246.958359,1781.723633 243.842010,1786.623291 240.248413,1791.148193 
	C239.366364,1792.259033 236.742157,1793.228027 235.618973,1792.718506 
	C219.770905,1785.529785 203.719177,1778.682983 188.383621,1770.503174 
	C174.529266,1763.113403 161.039276,1754.834839 148.208496,1745.785645 
	C133.205643,1735.204712 118.656479,1723.870972 104.722740,1711.917114 
	C92.665733,1701.573120 81.201256,1690.405151 70.442612,1678.710938 
	C51.902035,1658.558228 35.368286,1636.754883 21.301939,1613.207397 
	C14.451024,1601.738770 8.197323,1589.913452 1.336624,1578.124756 
	C1.000000,1576.933350 1.000000,1575.866577 1.000014,1574.399902 
	C9.622584,1566.249023 18.291033,1558.548218 26.858568,1550.736816 
	C46.825325,1532.532104 66.759132,1514.291138 86.676544,1496.032471 
	C103.299622,1480.793823 120.044044,1465.682495 136.443237,1450.205933 
	C164.709869,1423.530029 193.233795,1397.098145 220.721405,1369.634888 
	C240.180038,1350.193481 258.985565,1329.939209 276.406067,1308.674438 
	C287.692719,1294.896973 294.061157,1278.105347 293.162018,1259.371826 
	C292.437286,1244.271118 292.393005,1229.138550 291.984039,1214.021729 
	C291.799957,1207.217651 291.200012,1200.415771 291.243256,1193.615967 
	C291.384613,1171.392456 292.423859,1149.190674 297.362366,1127.452026 
	C301.530823,1109.103027 308.954865,1091.873657 318.154602,1075.508789 
	C325.141998,1063.079590 332.581635,1050.885620 340.270844,1038.875488 
	C348.042358,1026.736816 356.583374,1015.091980 364.396332,1002.978638 
	C373.541962,988.799072 381.272247,973.595154 391.416504,960.198608 
	C404.860962,942.443909 414.333008,922.657166 424.609924,903.202454 
	C427.848785,897.071106 432.046753,891.439636 435.184082,885.263550 
	C438.227417,879.272705 440.448242,872.866150 443.074066,866.660706 
	C446.412415,858.771240 449.426392,850.715820 453.258514,843.071960 
	C457.358521,834.893677 466.584991,830.821655 476.641174,832.432373 
	C480.195557,847.389099 483.015411,862.008484 486.345642,876.510681 
	C489.493347,890.217896 493.275513,903.778687 496.527557,917.463501 
	C497.061798,919.711548 496.302765,922.266846 496.056702,924.941406 
	C495.273132,927.042175 494.446106,928.844299 493.895447,930.727234 
	C488.558258,948.975281 483.415924,967.281799 477.912231,985.479126 
	C474.123993,998.004700 469.853119,1010.384216 465.588989,1022.995239 
	C465.365936,1023.575134 465.351837,1023.988708 465.337708,1024.402344 
	C465.765808,1024.166992 466.193909,1023.931641 466.911377,1023.522522 
	C471.461426,1018.313782 475.805939,1013.346924 479.963959,1008.228577 
	C486.989258,999.580566 493.896576,990.836731 500.912231,982.654236 
	C501.070221,986.665894 501.292236,990.157959 501.248413,993.646729 
	C501.002289,1013.243347 503.513000,1032.424927 509.988342,1050.976929 
	C513.328491,1060.546509 519.631836,1067.558350 529.210449,1071.187622 
	C540.744385,1075.557739 549.859558,1070.228027 552.004517,1058.134888 
	C553.134949,1051.761353 554.320068,1045.397339 555.504639,1039.033569 
	C559.323303,1018.519043 564.099731,998.127686 566.744690,977.463379 
	C570.239258,950.160706 576.140869,923.627319 586.442566,898.121216 
	C587.245850,896.132568 589.437988,894.149170 591.461548,893.299866 
	C603.772522,888.132874 616.316895,888.307861 628.908936,892.433533 
	C640.105713,896.102112 649.537781,902.813110 658.862854,909.717041 
	C649.324341,966.152649 639.747742,1022.581787 630.284851,1079.030151 
	C628.707458,1088.440186 628.360352,1097.928955 631.142578,1107.233154 
	C635.625183,1122.224121 651.803833,1126.283813 663.005920,1115.237183 
	C669.601807,1108.732910 673.376770,1100.534180 675.700806,1091.808716 
	C686.385742,1051.692749 696.827515,1011.512024 707.841431,971.457581 
	C711.592041,977.362366 714.857849,983.164001 718.123657,988.965698 
	C715.573792,1005.222351 713.225159,1021.513611 710.431274,1037.728271 
	C704.958435,1069.490723 697.432373,1100.892212 694.518005,1133.105225 
	C693.073486,1149.071899 698.631104,1160.245972 712.024902,1165.960693 
	C723.087036,1170.680664 739.874329,1163.821655 742.885315,1150.832397 
	C748.543884,1126.421631 756.307495,1102.498779 763.225525,1078.381592 
	C763.345520,1077.963257 763.840759,1077.652466 764.575195,1077.579102 
	C772.685974,1091.236816 780.382507,1104.607056 788.079102,1117.977417 
z"/>
<path fill="#EC8F5D" opacity="1.000000" stroke="none"
    d="
M1033.888306,735.972412 
	C1032.026123,732.185059 1030.164062,728.397766 1028.511963,724.200623 
	C1038.753662,718.917969 1048.785400,714.045166 1058.817261,709.172363 
	C1080.012817,696.187805 1101.252930,683.274902 1122.351807,670.134949 
	C1125.234741,668.339539 1127.296509,665.274170 1129.944702,663.041382 
	C1133.705078,659.870667 1137.853638,657.143494 1141.487549,653.842834 
	C1150.019653,646.093262 1154.664185,636.262939 1155.824707,624.849121 
	C1156.140137,621.746765 1155.122314,619.263977 1151.672607,617.866089 
	C1139.766846,613.041626 1127.911743,608.078430 1116.160400,602.889648 
	C1095.179932,593.625610 1074.092896,584.565979 1053.433472,574.625183 
	C1040.852783,568.571777 1029.333130,560.671326 1023.451843,546.995300 
	C1019.370544,537.504822 1017.832886,527.729736 1020.304626,517.581665 
	C1022.569153,508.284241 1029.437866,504.591553 1039.817505,507.424530 
	C1048.690918,509.846466 1057.300415,513.295288 1066.232300,515.428833 
	C1079.806152,518.671143 1093.510620,521.429749 1107.247681,523.906128 
	C1120.030029,526.210388 1132.904175,528.050537 1145.782349,529.760803 
	C1153.798462,530.825378 1161.891357,531.808289 1169.959473,531.891357 
	C1195.160278,532.150940 1220.380981,531.409302 1245.565186,532.102234 
	C1272.925171,532.855042 1299.754395,536.953064 1324.395752,550.092896 
	C1326.146118,551.026245 1328.067627,551.809326 1329.520020,553.100403 
	C1335.298096,558.236572 1341.442261,557.423767 1348.268433,555.431519 
	C1362.363281,551.318054 1373.979492,542.841431 1385.889038,534.923279 
	C1408.644287,519.794373 1431.563477,504.866089 1453.703735,488.870667 
	C1477.606812,471.601593 1500.705566,453.218384 1524.138672,435.299652 
	C1545.349243,419.080444 1566.544312,402.840759 1587.732422,386.592163 
	C1595.052856,380.978210 1602.437988,375.440308 1609.587891,369.615234 
	C1613.531616,366.402130 1616.841797,362.405182 1620.819824,359.242035 
	C1624.377808,356.412659 1628.648315,354.487549 1632.258057,351.712616 
	C1635.891235,348.919678 1638.999390,345.453552 1642.526978,342.509552 
	C1644.666504,340.723938 1647.270630,339.504578 1649.480103,337.791290 
	C1653.226685,334.886200 1656.734253,331.669861 1660.514648,328.812317 
	C1664.000366,326.177338 1667.838501,324.006470 1671.304688,321.348358 
	C1694.205078,303.786530 1717.059814,286.164825 1739.902710,268.528259 
	C1752.039795,259.157532 1764.150269,249.751556 1776.206787,240.277664 
	C1778.330811,238.608673 1780.215942,238.519669 1782.248657,240.123108 
	C1792.486206,248.197876 1803.153442,255.797440 1812.822876,264.504395 
	C1823.662720,274.265411 1833.941406,284.715729 1843.817749,295.460297 
	C1852.179321,304.556915 1859.617432,314.502258 1867.466919,324.069824 
	C1870.447998,327.703278 1873.436768,331.330383 1876.291748,335.464111 
	C1876.476562,336.017761 1876.791626,336.067688 1877.106812,336.117615 
	C1883.495361,347.258667 1890.211426,358.226868 1896.199341,369.579224 
	C1906.511230,389.129089 1912.200806,410.218567 1916.083984,431.888916 
	C1919.547485,451.217041 1920.533569,470.681122 1919.885498,490.242401 
	C1919.818848,492.252533 1918.277588,494.997223 1916.581665,496.052002 
	C1892.766235,510.863770 1868.788940,525.415405 1844.883301,540.082642 
	C1822.825928,553.615906 1800.817993,567.229614 1778.768555,580.775818 
	C1751.105591,597.770691 1723.612549,615.052673 1695.702759,631.632446 
	C1656.277100,655.053406 1616.341919,677.619934 1577.015747,701.203857 
	C1558.266235,712.447937 1540.423096,725.202759 1522.161133,737.260681 
	C1509.221802,745.804199 1496.455322,754.629822 1483.255493,762.750671 
	C1474.582886,768.086182 1468.045410,774.872559 1463.008057,783.722473 
	C1453.086304,801.153564 1440.363281,816.520386 1427.128784,831.581421 
	C1404.310791,857.548340 1377.038330,878.122375 1349.096436,897.956055 
	C1333.391235,909.103943 1317.438354,919.903198 1300.934570,931.017456 
	C1291.439453,937.410767 1282.449097,943.435791 1273.804810,949.921936 
	C1250.350708,967.520325 1230.801758,988.375671 1217.454956,1014.960327 
	C1200.639893,1048.453369 1181.713989,1080.772461 1159.792236,1111.247070 
	C1147.926758,1127.741821 1136.181519,1144.395020 1120.139526,1157.236450 
	C1116.344238,1160.274536 1111.812500,1162.973022 1107.182495,1164.282959 
	C1090.802368,1168.917603 1075.018433,1156.063843 1077.182007,1139.803467 
	C1077.885620,1134.514893 1080.140503,1129.177124 1082.742920,1124.442993 
	C1091.718628,1108.115479 1101.635620,1092.294312 1110.302368,1075.811523 
	C1120.522583,1056.373779 1129.703125,1036.391968 1139.546265,1016.752136 
	C1146.702881,1002.472717 1154.396606,988.460022 1161.417969,974.116455 
	C1163.245728,970.382324 1164.304199,965.839844 1164.228149,961.695923 
	C1164.074707,953.320312 1159.544556,947.185181 1151.810181,943.936462 
	C1143.097900,940.277039 1135.168335,942.200989 1128.212158,948.394470 
	C1120.134644,955.586304 1112.107422,962.834717 1104.036987,969.620178 
	C1104.135620,958.596008 1099.362549,950.279297 1091.959106,943.182373 
	C1093.037109,941.225891 1094.114990,939.269409 1095.060303,936.717712 
	C1094.423828,934.409668 1094.085571,932.626221 1093.390015,930.995056 
	C1087.300049,916.712402 1081.160278,902.450867 1074.974609,888.209473 
	C1074.632080,887.420715 1073.753174,886.864929 1073.124023,886.200684 
	C1070.348145,876.154175 1067.447998,866.139954 1064.823975,856.053955 
	C1060.194214,838.258667 1055.732666,820.419556 1051.541016,802.271606 
	C1062.605957,804.196838 1073.289795,806.674988 1084.067749,808.634460 
	C1093.710083,810.387451 1104.423706,804.768555 1108.844604,796.231018 
	C1115.033203,784.280151 1110.548584,770.783203 1098.094849,762.704163 
	C1079.443604,750.604492 1058.802856,743.181152 1037.816406,736.517212 
	C1036.574585,736.122925 1035.200684,736.144409 1033.888306,735.972412 
z"/>
<path fill="#80451B" opacity="1.000000" stroke="none"
    d="
M1104.058472,970.058594 
	C1112.107422,962.834717 1120.134644,955.586304 1128.212158,948.394470 
	C1135.168335,942.200989 1143.097900,940.277039 1151.810181,943.936462 
	C1159.544556,947.185181 1164.074707,953.320312 1164.228149,961.695923 
	C1164.304199,965.839844 1163.245728,970.382324 1161.417969,974.116455 
	C1154.396606,988.460022 1146.702881,1002.472717 1139.546265,1016.752136 
	C1129.703125,1036.391968 1120.522583,1056.373779 1110.302368,1075.811523 
	C1101.635620,1092.294312 1091.718628,1108.115479 1082.742920,1124.442993 
	C1080.140503,1129.177124 1077.885620,1134.514893 1077.182007,1139.803467 
	C1075.018433,1156.063843 1090.802368,1168.917603 1107.182495,1164.282959 
	C1111.812500,1162.973022 1116.344238,1160.274536 1120.139526,1157.236450 
	C1136.181519,1144.395020 1147.926758,1127.741821 1159.792236,1111.247070 
	C1181.713989,1080.772461 1200.639893,1048.453369 1217.454956,1014.960327 
	C1230.801758,988.375671 1250.350708,967.520325 1273.804810,949.921936 
	C1282.449097,943.435791 1291.439453,937.410767 1300.611084,931.150024 
	C1302.777710,933.058472 1304.578857,935.018372 1306.437378,936.922180 
	C1320.746582,951.579651 1335.366211,965.947754 1349.313110,980.941895 
	C1369.884399,1003.057922 1390.694092,1024.975342 1407.798828,1050.086670 
	C1424.134888,1074.069580 1437.585083,1099.571167 1450.101929,1125.682495 
	C1465.069458,1156.905884 1481.399048,1187.386230 1503.754272,1214.155396 
	C1516.079468,1228.914185 1530.671143,1241.306641 1545.854126,1252.919678 
	C1579.339355,1278.531616 1612.703247,1304.333252 1646.875854,1329.005737 
	C1675.535034,1349.697632 1705.152100,1369.075806 1734.558838,1388.715698 
	C1771.710449,1413.528198 1809.079468,1438.015503 1846.350952,1462.648682 
	C1847.160767,1463.183960 1847.925781,1463.786987 1849.006714,1464.572754 
	C1844.958740,1473.793579 1841.212280,1483.001099 1836.933838,1491.954346 
	C1820.418335,1526.515869 1802.466431,1560.288330 1778.139893,1590.121704 
	C1764.353027,1607.029663 1748.834839,1622.407837 1731.599121,1635.834961 
	C1713.022461,1650.306641 1694.160156,1664.422852 1675.147339,1678.317749 
	C1667.257812,1684.083862 1658.598877,1688.788208 1650.412720,1694.162476 
	C1648.105347,1695.677368 1646.619507,1695.493530 1644.949463,1693.430664 
	C1630.864868,1676.033691 1616.784180,1658.633301 1602.619751,1641.301270 
	C1588.540771,1624.073730 1574.330078,1606.953857 1560.243286,1589.732788 
	C1544.276978,1570.213867 1528.235718,1550.753540 1512.496704,1531.052490 
	C1492.016602,1505.416870 1470.206177,1480.976196 1446.068359,1458.777710 
	C1424.807373,1439.225098 1402.857544,1420.412476 1380.974121,1401.549194 
	C1368.171997,1390.514038 1355.477905,1379.201294 1341.678833,1369.519043 
	C1328.571533,1360.321899 1313.803345,1354.794922 1297.020020,1354.811157 
	C1270.079346,1354.837158 1243.130615,1353.867188 1216.198853,1352.930054 
	C1197.629395,1352.284058 1179.069824,1351.171753 1160.529419,1349.919434 
	C1143.524292,1348.770630 1128.748169,1342.782593 1117.053589,1329.685425 
	C1103.450317,1314.450317 1085.718506,1304.736572 1068.308716,1294.665771 
	C1056.666870,1287.931763 1044.715210,1281.628662 1033.656372,1274.034546 
	C1027.947876,1270.114502 1023.884033,1263.799072 1018.842224,1257.948242 
	C1008.627686,1239.820923 997.261597,1223.690918 979.149048,1213.311768 
	C972.568054,1209.540649 966.896240,1204.173706 960.847412,1199.485962 
	C955.390137,1195.256714 953.799988,1189.773804 955.270935,1183.063232 
	C959.150696,1165.363525 976.362549,1154.915161 994.935791,1158.475098 
	C1014.336975,1162.193726 1032.180420,1169.164185 1048.425171,1180.557617 
	C1055.156128,1185.278442 1062.771606,1188.738159 1070.284180,1192.961792 
	C1077.701172,1196.279785 1084.818848,1199.407471 1091.936646,1202.535156 
	C1092.168335,1202.054565 1092.400146,1201.573975 1092.631836,1201.093262 
	C1087.632935,1193.730591 1082.633911,1186.367798 1077.613525,1178.666992 
	C1072.670654,1168.892456 1067.118896,1159.725708 1062.942993,1149.970093 
	C1048.907471,1117.179932 1029.073364,1087.784180 1010.151367,1057.592773 
	C1023.528320,1045.564697 1036.926636,1033.998047 1049.994385,1022.069275 
	C1056.582886,1016.054871 1062.572510,1009.384277 1069.019531,1003.298645 
	C1073.175415,1008.772766 1077.144775,1013.958618 1081.114136,1019.144531 
	C1081.706543,1011.158691 1076.248779,1005.955078 1072.992065,999.436707 
	C1074.039673,997.724182 1075.031250,996.376099 1076.450928,994.955688 
	C1093.423950,994.408508 1101.886353,986.679260 1104.058472,970.058594 
z"/>
<path fill="#FAB49A" opacity="1.000000" stroke="none"
    d="
M1010.036011,1057.904541 
	C1029.073364,1087.784180 1048.907471,1117.179932 1062.942993,1149.970093 
	C1067.118896,1159.725708 1072.670654,1168.892456 1077.379395,1178.893555 
	C1074.772949,1183.895752 1072.378906,1188.333618 1069.984863,1192.771362 
	C1062.771606,1188.738159 1055.156128,1185.278442 1048.425171,1180.557617 
	C1032.180420,1169.164185 1014.336975,1162.193726 994.935791,1158.475098 
	C976.362549,1154.915161 959.150696,1165.363525 955.270935,1183.063232 
	C953.799988,1189.773804 955.390137,1195.256714 960.847412,1199.485962 
	C966.896240,1204.173706 972.568054,1209.540649 979.149048,1213.311768 
	C997.261597,1223.690918 1008.627686,1239.820923 1018.628418,1257.668091 
	C1015.074829,1261.217285 1011.298218,1264.239746 1008.027100,1267.735107 
	C1006.760315,1269.088745 1006.038147,1271.528564 1006.086609,1273.447754 
	C1006.594177,1293.542480 1007.055237,1313.644165 1008.034912,1333.719360 
	C1009.085449,1355.246582 1010.555054,1376.755859 1012.074219,1398.256470 
	C1013.194031,1414.105225 1014.732056,1429.924072 1016.002197,1445.762695 
	C1017.388916,1463.054932 1018.683289,1480.354736 1020.015198,1497.651367 
	C1021.016724,1510.656372 1022.012695,1523.661743 1023.013489,1536.666748 
	C1024.345093,1553.969727 1025.682739,1571.272217 1027.010620,1588.575439 
	C1028.351196,1606.044556 1029.687134,1623.513916 1031.017334,1640.983887 
	C1032.021118,1654.167358 1033.015991,1667.351562 1034.008545,1680.535889 
	C1035.348145,1698.330200 1036.678711,1716.125488 1038.018311,1733.919800 
	C1039.010864,1747.103027 1040.012451,1760.285767 1041.008667,1773.468628 
	C1042.353027,1791.261963 1043.695068,1809.055298 1045.039551,1826.848633 
	C1046.035889,1840.032349 1047.075439,1853.213013 1048.015137,1866.400635 
	C1048.550659,1873.916260 1048.440063,1873.816040 1041.135986,1876.444824 
	C1014.658630,1885.974365 987.613464,1893.572998 959.967346,1898.645996 
	C943.637146,1901.642578 927.031677,1903.309937 910.484802,1904.894043 
	C899.925964,1905.904907 889.200684,1906.446655 878.634766,1905.804688 
	C864.342285,1904.936279 850.106201,1902.919434 835.890381,1901.056396 
	C811.500793,1897.859741 788.013489,1890.972900 764.813782,1883.032227 
	C760.313721,1881.491821 755.853149,1879.795898 751.510681,1877.865112 
	C750.468811,1877.401978 749.312683,1875.704468 749.325378,1874.587036 
	C749.487549,1860.298218 749.860413,1846.011963 750.164795,1831.724731 
	C750.508423,1815.597656 750.812988,1799.469727 751.179565,1783.343140 
	C751.474182,1770.381470 751.861328,1757.422119 752.161377,1744.460571 
	C752.523071,1728.834106 752.821533,1713.206055 753.174622,1697.579468 
	C753.486389,1683.784790 753.839600,1669.991211 754.167236,1656.196899 
	C754.506775,1641.902832 754.823608,1627.608032 755.176453,1613.314331 
	C755.488220,1600.686035 755.838623,1588.058594 756.167297,1575.430664 
	C756.837646,1549.674683 757.469421,1523.917725 758.184082,1498.162964 
	C758.797180,1476.069702 759.492249,1453.978516 760.172241,1431.887085 
	C760.770142,1412.462280 762.173340,1393.023438 761.802429,1373.617920 
	C761.397461,1352.429810 759.531982,1331.259644 757.878052,1310.114868 
	C757.585815,1306.378662 755.785645,1302.432007 753.701355,1299.218506 
	C742.144409,1281.399658 732.959106,1262.428833 725.339172,1242.656616 
	C725.105774,1242.051147 725.078247,1241.366211 724.894775,1240.329956 
	C731.141296,1230.824341 737.425476,1221.691772 743.758789,1212.593140 
	C759.670349,1189.734375 773.452576,1165.640015 785.813782,1140.315918 
	C786.201294,1140.938354 786.609497,1141.863159 786.542969,1142.752563 
	C785.752930,1153.324097 784.925842,1163.893066 784.036682,1174.456787 
	C783.523560,1180.554199 785.619507,1185.139404 790.469116,1189.155640 
	C802.904480,1199.453735 817.937683,1200.320312 828.988342,1190.682129 
	C830.701050,1189.188354 831.931335,1187.141724 833.915100,1185.290283 
	C842.324707,1192.051270 849.776855,1199.462891 858.187317,1205.550293 
	C869.621033,1213.826050 885.139465,1210.263428 893.239868,1198.658936 
	C898.700500,1190.836060 898.184082,1182.512329 895.948914,1173.925903 
	C896.644104,1173.476929 897.291321,1172.914795 898.041992,1172.596558 
	C905.058594,1169.622803 907.877197,1164.137939 909.046692,1156.757202 
	C911.875488,1138.904175 915.370117,1121.156738 919.229248,1103.093506 
	C927.501038,1104.120728 935.140320,1105.425659 942.556824,1101.190308 
	C955.253967,1113.912109 968.571289,1125.387451 983.456543,1134.954224 
	C994.100891,1141.795288 1011.699768,1138.362061 1018.947632,1128.083374 
	C1026.272461,1117.695679 1025.957397,1103.820312 1017.621216,1093.248901 
	C1010.331360,1084.004395 1002.562622,1075.137695 995.311890,1065.933838 
	C1000.424194,1063.144043 1005.230103,1060.524292 1010.036011,1057.904541 
z"/>
<path fill="#FAB499" opacity="1.000000" stroke="none"
    d="
M1024.017822,715.010864 
	C1017.898071,704.387329 1011.774597,693.765930 1005.659973,683.139465 
	C1002.102661,676.957214 998.559631,670.766785 994.937683,664.219971 
	C997.611755,655.295410 999.933716,646.564087 1003.216858,638.210571 
	C1006.980957,628.633362 1013.767883,621.385193 1024.407959,620.207336 
	C1035.374146,618.993469 1045.041016,622.978760 1050.225830,633.130493 
	C1053.041748,638.643860 1054.276489,645.291199 1054.863037,651.554443 
	C1056.530762,669.362305 1057.114380,687.221008 1053.018921,704.869995 
	C1052.944946,705.189148 1052.980469,705.533875 1052.535889,706.364502 
	C1041.537720,705.420837 1032.090576,707.846680 1024.017822,715.010864 
z"/>
<path fill="#81461C" opacity="1.000000" stroke="none"
    d="
M1024.034912,715.369385 
	C1032.090576,707.846680 1041.537720,705.420837 1052.515015,706.773987 
	C1054.695435,707.379089 1056.467651,708.072632 1058.528564,708.969299 
	C1048.785400,714.045166 1038.753662,718.917969 1028.363770,723.883118 
	C1026.687744,721.226257 1025.369873,718.477051 1024.034912,715.369385 
z"/>
<path fill="#D78866" opacity="1.000000" stroke="none"
    d="
M886.110291,1906.987061 
	C891.686646,1906.987061 896.781982,1906.987061 901.877319,1906.987061 
	C901.874390,1907.238892 901.871521,1907.490845 901.868591,1907.742676 
	C894.023376,1907.742676 886.178162,1907.742676 878.332947,1907.742676 
	C878.315735,1907.490845 878.298523,1907.238892 878.281372,1906.987061 
	C880.730652,1906.987061 883.179993,1906.987061 886.110291,1906.987061 
z"/>
<path fill="#D78866" opacity="1.000000" stroke="none"
    d="
M1202.069824,530.999023 
	C1202.907959,531.130859 1203.357300,531.254700 1205.095337,531.733765 
	C1196.263428,531.733765 1188.738037,531.733765 1181.212769,531.733765 
	C1181.206787,531.486206 1181.200806,531.238586 1181.194824,530.991028 
	C1188.023560,530.991028 1194.852173,530.991028 1202.069824,530.999023 
z"/>
<path fill="#FFCB77" opacity="1.000000" stroke="none"
    d="
M658.923584,909.260254 
	C649.537781,902.813110 640.105713,896.102112 628.908936,892.433533 
	C616.316895,888.307861 603.772522,888.132874 591.461548,893.299866 
	C589.437988,894.149170 587.245850,896.132568 586.442566,898.121216 
	C576.140869,923.627319 570.239258,950.160706 566.744690,977.463379 
	C564.099731,998.127686 559.323303,1018.519043 555.504639,1039.033569 
	C554.320068,1045.397339 553.134949,1051.761353 552.004517,1058.134888 
	C549.859558,1070.228027 540.744385,1075.557739 529.210449,1071.187622 
	C519.631836,1067.558350 513.328491,1060.546509 509.988342,1050.976929 
	C503.513000,1032.424927 501.002289,1013.243347 501.248413,993.646729 
	C501.292236,990.157959 501.070221,986.665894 501.040741,982.424194 
	C501.341980,976.235474 502.022461,970.771851 501.709351,965.365845 
	C501.100372,954.851685 500.085632,944.352783 498.905914,933.885071 
	C498.552917,930.752686 497.093811,927.744995 496.141479,924.680176 
	C496.302765,922.266846 497.061798,919.711548 496.527557,917.463501 
	C493.275513,903.778687 489.493347,890.217896 486.345642,876.510681 
	C483.015411,862.008484 480.195557,847.389099 477.003906,832.455688 
	C476.546509,816.386841 475.624573,800.664001 476.117188,784.985596 
	C476.536072,771.653259 478.619202,758.375244 479.843384,745.061890 
	C479.931976,744.098755 479.268127,742.791626 478.535400,742.068787 
	C466.248688,729.947693 453.992126,717.793030 441.520660,705.863342 
	C433.967468,698.638367 426.232849,691.580505 418.272980,684.808105 
	C402.159210,671.098083 385.878632,657.582581 369.578125,644.094116 
	C363.629364,639.171692 357.387909,634.604736 351.353241,629.783813 
	C344.146851,624.026978 337.089630,618.081848 329.836578,612.385315 
	C323.067108,607.068604 315.901825,602.237976 309.310974,596.715759 
	C298.608429,587.748596 288.334717,578.271240 277.693115,569.229248 
	C264.323486,557.869324 250.746689,546.753601 237.294647,535.490356 
	C226.128647,526.141174 215.015121,516.729370 203.875977,507.348083 
	C195.391037,500.202209 186.913544,493.047394 178.411606,485.921753 
	C172.559357,481.016846 166.659088,476.169312 160.801147,471.271179 
	C146.905014,459.652039 133.000320,448.042969 119.139091,436.382263 
	C107.881653,426.912018 96.714027,417.334930 85.449158,407.873596 
	C71.766953,396.381927 57.999794,384.991455 44.316223,373.501373 
	C34.206757,365.012512 24.172226,356.434326 13.762396,347.605957 
	C61.902786,250.819519 135.881271,178.424210 226.257294,121.218300 
	C226.527649,121.392319 226.993561,121.593704 227.332916,121.924782 
	C242.823273,137.037659 258.320770,152.143295 273.778442,167.289566 
	C292.331146,185.468536 310.834320,203.698044 329.386353,221.877716 
	C343.534912,235.742325 357.737427,249.551804 371.895386,263.406830 
	C388.673676,279.826019 405.452911,296.244232 422.190063,312.705292 
	C445.105042,335.242249 467.974335,357.825714 490.875702,380.376556 
	C506.139832,395.407074 521.562927,410.279358 536.653015,425.482361 
	C546.479919,435.382782 555.647461,445.937500 565.470581,455.841949 
	C572.001038,462.426575 578.682007,469.051849 586.163025,474.458893 
	C597.180542,482.422028 606.350098,492.237030 615.993896,501.598663 
	C622.065857,507.492950 628.551208,512.081970 637.215271,513.767151 
	C652.988037,516.835083 666.601746,525.160461 680.364380,532.956055 
	C695.834473,541.718750 711.326477,550.445801 726.682312,559.405273 
	C731.903503,562.451660 736.740479,566.156616 741.936584,569.321411 
	C744.192627,578.294495 746.349548,587.489502 748.250549,596.737061 
	C748.550598,598.196899 748.049194,600.084839 747.316223,601.451904 
	C741.675293,611.971802 736.419983,622.751099 730.036377,632.809814 
	C714.371277,657.493774 705.053833,684.525330 699.038208,712.869995 
	C688.337830,763.288147 677.627625,813.704651 667.131104,864.165466 
	C664.051758,878.969116 661.680237,893.919983 658.923584,909.260254 
z"/>
<path fill="#FECA77" opacity="1.000000" stroke="none"
    d="
M1104.036987,969.620178 
	C1101.886353,986.679260 1093.423950,994.408508 1076.114990,994.785889 
	C1069.885010,992.752258 1064.091919,991.434937 1059.019897,988.753540 
	C1047.729004,982.784363 1036.830688,976.076538 1025.706787,969.785583 
	C1020.822205,967.023132 1015.777527,964.543762 1010.666931,961.640137 
	C1007.745789,959.582458 1005.041199,957.680298 1002.167480,956.082336 
	C988.160156,948.293335 974.107788,940.585571 960.071350,932.848999 
	C952.459534,930.406311 952.390991,925.576660 953.532715,918.316833 
	C956.734131,897.960571 958.599304,877.394226 961.352661,856.541870 
	C963.555786,857.295410 965.427917,858.371460 967.234863,859.547546 
	C978.806335,867.079041 990.363464,874.632629 1001.925354,882.178894 
	C1005.548462,890.011597 1008.805176,898.040161 1012.866943,905.638306 
	C1022.913330,924.432190 1037.829468,938.822937 1055.909058,949.630188 
	C1066.878418,956.187256 1077.729248,952.618591 1087.640137,945.760010 
	C1088.855225,944.919128 1090.073486,944.082886 1091.624756,943.213440 
	C1099.362549,950.279297 1104.135620,958.596008 1104.036987,969.620178 
z"/>
<path fill="#FFCB77" opacity="1.000000" stroke="none"
    d="
M995.005493,1066.104004 
	C1002.562622,1075.137695 1010.331360,1084.004395 1017.621216,1093.248901 
	C1025.957397,1103.820312 1026.272461,1117.695679 1018.947632,1128.083374 
	C1011.699768,1138.362061 994.100891,1141.795288 983.456543,1134.954224 
	C968.571289,1125.387451 955.253967,1113.912109 942.338257,1100.913086 
	C935.620605,1093.901733 929.367371,1087.369751 923.114014,1080.837646 
	C927.395996,1055.973022 931.663208,1031.105835 935.974182,1006.246155 
	C936.711548,1001.994202 937.635620,997.774536 938.830017,993.519043 
	C944.674377,1001.001343 950.162170,1008.504456 955.860229,1016.296997 
	C969.048767,1033.092285 982.027100,1049.598145 995.005493,1066.104004 
z"/>
<path fill="#FECA77" opacity="1.000000" stroke="none"
    d="
M1034.043701,736.303467 
	C1035.200684,736.144409 1036.574585,736.122925 1037.816406,736.517212 
	C1058.802856,743.181152 1079.443604,750.604492 1098.094849,762.704163 
	C1110.548584,770.783203 1115.033203,784.280151 1108.844604,796.231018 
	C1104.423706,804.768555 1093.710083,810.387451 1084.067749,808.634460 
	C1073.289795,806.674988 1062.605957,804.196838 1051.505371,801.874023 
	C1047.665649,786.486145 1044.403564,771.118774 1040.642944,755.874390 
	C1039.028442,749.329468 1036.378540,743.039978 1034.043701,736.303467 
z"/>
<path fill="#FECA77" opacity="1.000000" stroke="none"
    d="
M895.526733,1173.942627 
	C898.184082,1182.512329 898.700500,1190.836060 893.239868,1198.658936 
	C885.139465,1210.263428 869.621033,1213.826050 858.187317,1205.550293 
	C849.776855,1199.462891 842.324707,1192.051270 834.143555,1185.046387 
	C838.894897,1153.528076 843.948120,1122.193359 849.338440,1090.638794 
	C850.626404,1091.964355 851.630920,1093.479492 852.519165,1095.059937 
	C856.990295,1103.016113 861.431091,1110.989380 865.882568,1118.956543 
	C865.555725,1132.021240 865.364624,1145.091431 864.843689,1158.148438 
	C864.590027,1164.506592 867.516479,1168.391235 872.945740,1171.067505 
	C880.035278,1174.562134 887.364990,1175.700562 895.526733,1173.942627 
z"/>
<path fill="#FECA77" opacity="1.000000" stroke="none"
    d="
M788.320190,1117.646484 
	C780.382507,1104.607056 772.685974,1091.236816 764.922668,1077.517578 
	C766.028748,1071.894409 767.063721,1066.584717 768.397400,1061.351318 
	C775.910645,1031.867188 783.495789,1002.401489 791.392090,972.587463 
	C794.107361,976.207092 796.487000,980.168701 798.866638,984.130371 
	C797.926575,994.882874 796.910522,1005.629395 796.061829,1016.389099 
	C794.049438,1041.903687 792.093994,1067.422852 790.164490,1092.943970 
	C789.550720,1101.061768 789.091370,1109.191406 788.320190,1117.646484 
z"/>
<path fill="#81461C" opacity="1.000000" stroke="none"
    d="
M959.768433,933.061401 
	C974.107788,940.585571 988.160156,948.293335 1002.167480,956.082336 
	C1005.041199,957.680298 1007.745789,959.582458 1010.373535,961.788696 
	C1001.299561,971.385803 992.474609,980.633423 983.409119,989.638855 
	C980.322937,992.704651 976.631348,995.161072 973.102783,997.562622 
	C964.682617,981.797668 956.375977,966.365967 948.069336,950.934204 
	C948.648682,947.023804 948.854065,943.000854 949.981812,939.255615 
	C950.468506,937.639282 952.741272,936.402283 954.426575,935.352417 
	C955.947571,934.404846 957.773865,933.947388 959.768433,933.061401 
z"/>
<path fill="#F6B59C" opacity="1.000000" stroke="none"
    d="
M1072.933228,886.466492 
	C1073.753174,886.864929 1074.632080,887.420715 1074.974609,888.209473 
	C1081.160278,902.450867 1087.300049,916.712402 1093.390015,930.995056 
	C1094.085571,932.626221 1094.423828,934.409668 1094.853882,936.495422 
	C1092.649902,938.151245 1090.343140,939.214294 1088.421875,940.757324 
	C1082.061157,945.865967 1075.719360,944.651367 1069.412109,940.899048 
	C1059.225708,934.838867 1052.920410,925.079651 1046.054443,915.900818 
	C1043.285034,912.198303 1040.895264,908.211914 1038.062988,903.948914 
	C1050.126099,898.510559 1063.881348,897.412109 1072.933228,886.466492 
z"/>
<path fill="#F6B59C" opacity="1.000000" stroke="none"
    d="
M818.706177,1149.274780 
	C824.085938,1149.337646 829.018738,1149.337646 834.741394,1149.337646 
	C833.992432,1154.941162 833.328125,1160.270386 832.550476,1165.583008 
	C832.141907,1168.374512 831.254028,1171.118042 831.064514,1173.915894 
	C830.028809,1189.201904 818.375854,1191.742065 808.189880,1189.607178 
	C799.227051,1187.728638 791.447205,1183.262817 793.694824,1170.378906 
	C794.654846,1164.875977 793.932617,1159.091553 794.150879,1153.441895 
	C794.250916,1150.852051 794.776001,1148.278564 795.120483,1145.603638 
	C803.229431,1146.868164 810.744385,1148.040039 818.706177,1149.274780 
z"/>
<path fill="#F6B59C" opacity="1.000000" stroke="none"
    d="
M704.608704,1149.152344 
	C700.475098,1140.679688 703.673035,1132.477783 704.301147,1124.318115 
	C704.580811,1120.685547 705.617737,1117.113892 705.944824,1113.481567 
	C706.243591,1110.164429 707.837158,1109.777100 710.661316,1110.392212 
	C719.768860,1112.375732 728.897400,1114.269897 738.045288,1116.057739 
	C741.105896,1116.655762 742.459961,1118.054565 741.665649,1121.222290 
	C739.642151,1129.292603 737.769226,1137.402344 735.623352,1145.439575 
	C733.947815,1151.715576 730.888794,1157.085449 723.666626,1157.936523 
	C715.825806,1158.860474 709.160278,1156.587891 704.608704,1149.152344 
z"/>
<path fill="#FAB49A" opacity="1.000000" stroke="none"
    d="
M865.918091,1118.495361 
	C861.431091,1110.989380 856.990295,1103.016113 852.519165,1095.059937 
	C851.630920,1093.479492 850.626404,1091.964355 849.404663,1090.233887 
	C852.448425,1069.541138 855.763123,1049.033325 859.382751,1027.945435 
	C861.748962,1024.589111 863.810303,1021.812927 866.127930,1019.226685 
	C867.587585,1020.611023 868.790894,1021.805542 869.994202,1023.000061 
	C869.067017,1042.228516 868.075134,1061.454102 867.235962,1080.686279 
	C866.692932,1093.130493 866.373291,1105.584473 865.918091,1118.495361 
z"/>
<path fill="#FAB49A" opacity="1.000000" stroke="none"
    d="
M947.798584,951.203003 
	C956.375977,966.365967 964.682617,981.797668 973.004700,997.901489 
	C971.907837,999.979858 970.934814,1001.529907 969.658325,1002.766663 
	C965.044128,1007.237305 960.327820,1011.602539 955.650024,1016.007568 
	C950.162170,1008.504456 944.674377,1001.001343 939.015930,993.182312 
	C941.739441,979.068237 944.633667,965.270020 947.798584,951.203003 
z"/>
<path fill="#F6B59C" opacity="1.000000" stroke="none"
    d="
M872.636597,1139.611938 
	C872.840698,1137.851074 872.542114,1136.289551 873.148315,1135.261353 
	C873.854004,1134.064453 875.352417,1132.528076 876.505432,1132.529297 
	C885.755981,1132.539429 895.008484,1133.107422 904.255432,1133.014038 
	C908.531860,1132.970947 909.540588,1134.452148 908.690430,1138.321045 
	C907.408325,1144.156250 906.572815,1150.097778 905.109558,1155.883301 
	C902.944397,1164.444336 896.821960,1168.625732 888.104980,1167.794067 
	C885.639282,1167.559082 883.164551,1167.046265 880.784851,1166.350098 
	C872.808105,1164.016724 870.089600,1159.630249 871.215454,1151.413330 
	C871.733154,1147.635254 872.099243,1143.836548 872.636597,1139.611938 
z"/>
<path fill="#F6B59C" opacity="1.000000" stroke="none"
    d="
M646.008057,1114.246826 
	C641.501465,1111.855347 639.560486,1108.227417 638.852783,1103.691040 
	C637.332275,1093.943970 637.446655,1084.309448 639.995178,1074.897949 
	C650.193420,1077.363159 659.972900,1079.637329 669.672546,1082.212402 
	C670.630310,1082.466675 671.945312,1084.818481 671.659790,1085.763062 
	C669.552673,1092.733765 667.522583,1099.787964 664.603638,1106.436401 
	C661.496765,1113.512817 654.989929,1118.058838 646.008057,1114.246826 
z"/>
<path fill="#FDC976" opacity="1.000000" stroke="none"
    d="
M718.357666,988.652954 
	C714.857849,983.164001 711.592041,977.362366 708.161865,971.252014 
	C710.761414,959.833923 713.453796,948.705994 716.307556,937.619690 
	C719.786560,924.104614 723.393127,910.622253 726.968323,897.132019 
	C727.377808,895.586853 727.939758,894.082092 728.367004,892.756958 
	C729.021729,892.683472 729.193481,892.628662 729.350464,892.656616 
	C729.507019,892.684448 729.676270,892.766174 729.791260,892.875488 
	C730.026672,893.099182 730.287720,893.327942 730.429565,893.609314 
	C730.573303,893.894348 730.670776,894.252991 730.643005,894.566467 
	C730.379944,897.539917 730.174988,900.522400 729.786743,903.480347 
	C726.073547,931.769409 722.327942,960.054138 718.357666,988.652954 
z"/>
<path fill="#81461C" opacity="1.000000" stroke="none"
    d="
M961.470581,852.380737 
	C962.915405,840.153198 964.426270,827.932922 965.757874,815.693115 
	C966.083679,812.698669 966.880615,810.920776 970.298828,810.401184 
	C973.505188,809.913696 974.873474,811.209290 975.959778,813.790527 
	C979.956116,823.286377 984.015381,832.755859 987.670288,842.686829 
	C978.683289,846.219177 970.076904,849.299988 961.470581,852.380737 
z"/>
<path fill="#EC8F5D" opacity="1.000000" stroke="none"
    d="
M961.359802,852.663696 
	C970.076904,849.299988 978.683289,846.219177 987.658020,843.067993 
	C992.632263,855.797974 997.238098,868.598450 1001.884644,881.788879 
	C990.363464,874.632629 978.806335,867.079041 967.234863,859.547546 
	C965.427917,858.371460 963.555786,857.295410 961.375000,856.117798 
	C961.107117,855.023865 961.178101,853.985291 961.359802,852.663696 
z"/>
<path fill="#FDC976" opacity="1.000000" stroke="none"
    d="
M870.089966,1022.594238 
	C868.790894,1021.805542 867.587585,1020.611023 866.036011,1018.918213 
	C864.450684,1016.958008 863.213501,1015.496277 861.976379,1014.034485 
	C863.653137,1002.706848 865.210999,991.360107 867.033508,980.055969 
	C870.014404,961.566650 873.167542,943.105164 877.073364,924.694885 
	C876.631836,932.700439 876.279907,940.712158 875.727722,948.710083 
	C874.893188,960.797485 873.919128,972.875305 873.004456,984.957153 
	C872.064880,997.367554 871.125305,1009.778015 870.089966,1022.594238 
z"/>
<path fill="#EC8F5D" opacity="1.000000" stroke="none"
    d="
M923.076904,1081.261841 
	C929.367371,1087.369751 935.620605,1093.901733 942.092407,1100.711060 
	C935.140320,1105.425659 927.501038,1104.120728 919.433838,1102.750732 
	C920.350220,1095.682861 921.694946,1088.684448 923.076904,1081.261841 
z"/>
<path fill="#ED9560" opacity="1.000000" stroke="none"
    d="
M798.901794,983.657349 
	C796.487000,980.168701 794.107361,976.207092 791.397339,972.181519 
	C793.706055,960.275818 796.361145,948.437561 798.977112,936.590515 
	C800.133606,931.353088 801.210754,926.098145 803.362366,921.055176 
	C801.887207,941.764893 800.412109,962.474670 798.901794,983.657349 
z"/>
<path fill="#280001" opacity="1.000000" stroke="none"
    d="
M861.657593,1014.236328 
	C863.213501,1015.496277 864.450684,1016.958008 865.779663,1018.728271 
	C863.810303,1021.812927 861.748962,1024.589111 859.418762,1027.515503 
	C859.879517,1023.256592 860.609192,1018.847351 861.657593,1014.236328 
z"/>
<path fill="#516B71" opacity="1.000000" stroke="none"
    d="
M496.056702,924.941406 
	C497.093811,927.744995 498.552917,930.752686 498.905914,933.885071 
	C500.085632,944.352783 501.100372,954.851685 501.709351,965.365845 
	C502.022461,970.771851 501.341980,976.235474 500.981995,981.903076 
	C493.896576,990.836731 486.989258,999.580566 479.963959,1008.228577 
	C475.805939,1013.346924 471.461426,1018.313782 466.715332,1023.296265 
	C466.085907,1023.105469 465.941925,1022.967285 465.797913,1022.829041 
	C469.853119,1010.384216 474.123993,998.004700 477.912231,985.479126 
	C483.415924,967.281799 488.558258,948.975281 493.895447,930.727234 
	C494.446106,928.844299 495.273132,927.042175 496.056702,924.941406 
z"/>
<path fill="#516B71" opacity="1.000000" stroke="none"
    d="
M466.425964,1023.469971 
	C466.193909,1023.931641 465.765808,1024.166992 465.337708,1024.402344 
	C465.351837,1023.988708 465.365936,1023.575134 465.588989,1022.995239 
	C465.941925,1022.967285 466.085907,1023.105469 466.425964,1023.469971 
z"/>
<path fill="#FFF" opacity="1.000000" stroke="none"
    d="
M1876.924316,335.969727 
	C1876.791626,336.067688 1876.476562,336.017761 1876.246582,335.779907 
	C1876.331909,335.592010 1876.741699,335.821838 1876.924316,335.969727 
z"/>
<path fill="#EC8F5D" opacity="1.000000" stroke="none"
    d="
M955.860229,1016.296997 
	C960.327820,1011.602539 965.044128,1007.237305 969.658325,1002.766663 
	C970.934814,1001.529907 971.907837,999.979858 973.118286,998.234741 
	C976.631348,995.161072 980.322937,992.704651 983.409119,989.638855 
	C992.474609,980.633423 1001.299561,971.385803 1010.512085,962.084473 
	C1015.777527,964.543762 1020.822205,967.023132 1025.706787,969.785583 
	C1036.830688,976.076538 1047.729004,982.784363 1059.019897,988.753540 
	C1064.091919,991.434937 1069.885010,992.752258 1075.687012,994.858276 
	C1075.031250,996.376099 1074.039673,997.724182 1072.712036,999.487610 
	C1071.195068,1000.938782 1070.014038,1001.974609 1068.832886,1003.010498 
	C1062.572510,1009.384277 1056.582886,1016.054871 1049.994385,1022.069275 
	C1036.926636,1033.998047 1023.528320,1045.564697 1010.151367,1057.592773 
	C1005.230103,1060.524292 1000.424194,1063.144043 995.311890,1065.933838 
	C982.027100,1049.598145 969.048767,1033.092285 955.860229,1016.296997 
z"/>
<path fill="#FFF" opacity="1.000000" stroke="none"
    d="
M1070.284180,1192.961792 
	C1072.378906,1188.333618 1074.772949,1183.895752 1077.400879,1179.231445 
	C1082.633911,1186.367798 1087.632935,1193.730591 1092.631836,1201.093262 
	C1092.400146,1201.573975 1092.168335,1202.054565 1091.936646,1202.535156 
	C1084.818848,1199.407471 1077.701172,1196.279785 1070.284180,1192.961792 
z"/>
<path fill="#516B71" opacity="1.000000" stroke="none"
    d="
M1069.019531,1003.298706 
	C1070.014038,1001.974609 1071.195068,1000.938782 1072.656128,999.851990 
	C1076.248779,1005.955078 1081.706543,1011.158691 1081.114136,1019.144531 
	C1077.144775,1013.958618 1073.175415,1008.772766 1069.019531,1003.298706 
z"/>
</svg>